<?xml version="1.0" encoding="UTF-8"?>
<svg width="30px" height="30px" viewBox="0 0 30 30" version="1.1" xmlns="http://www.w3.org/2000/svg" xmlns:xlink="http://www.w3.org/1999/xlink">
    <!-- Generator: sketchtool 50.2 (55047) - http://www.bohemiancoding.com/sketch -->
    <title>795CC651-B15E-42D8-8F4C-A16B81B84A8C@3x</title>
    <desc>Created with sketchtool.</desc>
    <defs></defs>
    <g id="Page-1" stroke="none" stroke-width="1" fill="none" fill-rule="evenodd">
        <g id="Traefik---Bandeau-top" transform="translate(-1160.000000, -79.000000)" fill="#000000">
            <g id="Group-5" transform="translate(-6.000000, 60.000000)">
                <g id="Group-34" transform="translate(6.000000, 0.000000)">
                    <path d="M1175,19.6 C1166.6875,19.6 1160,26.2875 1160,34.6 C1160,41.225 1164.3125,46.85 1170.25,48.85 C1171,48.975 1171.25,48.5375 1171.25,48.1 C1171.25,47.725 1171.25,46.7875 1171.25,45.5375 C1167.0625,46.475 1166.1875,43.5375 1166.1875,43.5375 C1165.5,41.7875 1164.5,41.35 1164.5,41.35 C1163.125,40.4125 1164.625,40.4125 1164.625,40.4125 C1166.125,40.5375 1166.9375,41.975 1166.9375,41.975 C1168.25,44.2875 1170.4375,43.6 1171.3125,43.225 C1171.4375,42.225 1171.8125,41.6 1172.25,41.225 C1168.9375,40.85 1165.4375,39.5375 1165.4375,33.7875 C1165.4375,32.1625 1166,30.7875 1167,29.7875 C1166.875,29.4125 1166.3125,27.9125 1167.125,25.7875 C1167.125,25.7875 1168.375,25.4125 1171.25,27.35 C1172.4375,27.0375 1173.75,26.85 1175,26.85 C1176.25,26.85 1177.5625,27.0375 1178.75,27.35 C1181.625,25.4125 1182.875,25.7875 1182.875,25.7875 C1183.6875,27.85 1183.1875,29.35 1183,29.7875 C1183.9375,30.85 1184.5625,32.1625 1184.5625,33.7875 C1184.5625,39.5375 1181.0625,40.7875 1177.6875,41.1625 C1178.25,41.6 1178.6875,42.5375 1178.6875,43.9125 C1178.6875,45.9125 1178.6875,47.5375 1178.6875,48.0375 C1178.6875,48.4125 1178.9375,48.9125 1179.75,48.7875 C1185.6875,46.85 1190,41.225 1190,34.6 C1190,26.2875 1183.3125,19.6 1175,19.6 Z" id="github_logo"></path>
                </g>
            </g>
        </g>
    </g>
</svg>