<?xml version="1.0" encoding="utf-8"?>
<!-- Generator: Adobe Illustrator 23.0.1, SVG Export Plug-In . SVG Version: 6.00 Build 0)  -->
<svg version="1.1" id="Layer_1" xmlns="http://www.w3.org/2000/svg" xmlns:xlink="http://www.w3.org/1999/xlink" x="0px" y="0px"
	 viewBox="0 0 1325.8 538" style="enable-background:new 0 0 1325.8 538;" xml:space="preserve">
<style type="text/css">
	.st0{fill:none;}
	.st1{fill:none;stroke:#231F20;stroke-width:0.3;stroke-linejoin:round;}
	.st2{fill:#FCFE00;}
	.st3{fill:#FDFDFB;}
	.st4{fill:url(#SVGID_1_);}
	.st5{fill:url(#SVGID_2_);}
	.st6{fill:#1F2326;}
	.st7{fill:none;stroke:#1F2326;stroke-width:2;stroke-miterlimit:10;}
	.st8{fill:#FDFDFB;stroke:#1F2326;stroke-width:3;stroke-miterlimit:10;}
</style>
<pattern  x="-1" y="-101" width="72" height="72" patternUnits="userSpaceOnUse" id="Diagonal_Lines_2" viewBox="79.6 -148.6 72 72" style="overflow:visible;">
	<g>
		<rect x="79.6" y="-148.6" class="st0" width="72" height="72"/>
		<g>
			<line class="st1" x1="144.1" y1="-66.1" x2="162.1" y2="-84.1"/>
			<line class="st1" x1="144.1" y1="-60.1" x2="168.1" y2="-84.1"/>
			<line class="st1" x1="144.1" y1="-54.1" x2="174.1" y2="-84.1"/>
			<line class="st1" x1="144.1" y1="-48.1" x2="180.1" y2="-84.1"/>
			<line class="st1" x1="144.1" y1="-42.1" x2="186.1" y2="-84.1"/>
			<line class="st1" x1="144.1" y1="-36.1" x2="192.1" y2="-84.1"/>
			<line class="st1" x1="144.1" y1="-30.1" x2="198.1" y2="-84.1"/>
			<line class="st1" x1="144.1" y1="-24.1" x2="204.1" y2="-84.1"/>
			<line class="st1" x1="144.1" y1="-18.1" x2="210.1" y2="-84.1"/>
			<line class="st1" x1="144.1" y1="-12.1" x2="216.1" y2="-84.1"/>
			<line class="st1" x1="144.1" y1="-6.1" x2="222.1" y2="-84.1"/>
			<line class="st1" x1="144.1" y1="-0.1" x2="228.1" y2="-84.1"/>
			<line class="st1" x1="150.1" y1="-0.1" x2="228.1" y2="-78.1"/>
		</g>
		<g>
			<line class="st1" x1="72.1" y1="-66.1" x2="90.1" y2="-84.1"/>
			<line class="st1" x1="72.1" y1="-60.1" x2="96.1" y2="-84.1"/>
			<line class="st1" x1="72.1" y1="-54.1" x2="102.1" y2="-84.1"/>
			<line class="st1" x1="72.1" y1="-48.1" x2="108.1" y2="-84.1"/>
			<line class="st1" x1="72.1" y1="-42.1" x2="114.1" y2="-84.1"/>
			<line class="st1" x1="72.1" y1="-36.1" x2="120.1" y2="-84.1"/>
			<line class="st1" x1="72.1" y1="-30.1" x2="126.1" y2="-84.1"/>
			<line class="st1" x1="72.1" y1="-24.1" x2="132.1" y2="-84.1"/>
			<line class="st1" x1="72.1" y1="-18.1" x2="138.1" y2="-84.1"/>
			<line class="st1" x1="72.1" y1="-12.1" x2="144.1" y2="-84.1"/>
			<line class="st1" x1="72.1" y1="-6.1" x2="150.1" y2="-84.1"/>
			<line class="st1" x1="72.1" y1="-0.1" x2="156.1" y2="-84.1"/>
			<line class="st1" x1="78.1" y1="-0.1" x2="156.1" y2="-78.1"/>
		</g>
		<g>
			<line class="st1" x1="0.1" y1="-0.1" x2="84.1" y2="-84.1"/>
			<line class="st1" x1="6.1" y1="-0.1" x2="84.1" y2="-78.1"/>
		</g>
		<g>
			<line class="st1" x1="144.1" y1="-138.1" x2="162.1" y2="-156.1"/>
			<line class="st1" x1="144.1" y1="-132.1" x2="168.1" y2="-156.1"/>
			<line class="st1" x1="144.1" y1="-126.1" x2="174.1" y2="-156.1"/>
			<line class="st1" x1="144.1" y1="-120.1" x2="180.1" y2="-156.1"/>
			<line class="st1" x1="144.1" y1="-114.1" x2="186.1" y2="-156.1"/>
			<line class="st1" x1="144.1" y1="-108.1" x2="192.1" y2="-156.1"/>
			<line class="st1" x1="144.1" y1="-102.1" x2="198.1" y2="-156.1"/>
			<line class="st1" x1="144.1" y1="-96.1" x2="204.1" y2="-156.1"/>
			<line class="st1" x1="144.1" y1="-90.1" x2="210.1" y2="-156.1"/>
			<line class="st1" x1="144.1" y1="-84.1" x2="216.1" y2="-156.1"/>
			<line class="st1" x1="144.1" y1="-78.1" x2="222.1" y2="-156.1"/>
			<line class="st1" x1="144.1" y1="-72.1" x2="228.1" y2="-156.1"/>
			<line class="st1" x1="150.1" y1="-72.1" x2="228.1" y2="-150.1"/>
		</g>
		<g>
			<line class="st1" x1="72.1" y1="-138.1" x2="90.1" y2="-156.1"/>
			<line class="st1" x1="72.1" y1="-132.1" x2="96.1" y2="-156.1"/>
			<line class="st1" x1="72.1" y1="-126.1" x2="102.1" y2="-156.1"/>
			<line class="st1" x1="72.1" y1="-120.1" x2="108.1" y2="-156.1"/>
			<line class="st1" x1="72.1" y1="-114.1" x2="114.1" y2="-156.1"/>
			<line class="st1" x1="72.1" y1="-108.1" x2="120.1" y2="-156.1"/>
			<line class="st1" x1="72.1" y1="-102.1" x2="126.1" y2="-156.1"/>
			<line class="st1" x1="72.1" y1="-96.1" x2="132.1" y2="-156.1"/>
			<line class="st1" x1="72.1" y1="-90.1" x2="138.1" y2="-156.1"/>
			<line class="st1" x1="72.1" y1="-84.1" x2="144.1" y2="-156.1"/>
			<line class="st1" x1="72.1" y1="-78.1" x2="150.1" y2="-156.1"/>
			<line class="st1" x1="72.1" y1="-72.1" x2="156.1" y2="-156.1"/>
			<line class="st1" x1="78.1" y1="-72.1" x2="156.1" y2="-150.1"/>
			<line class="st1" x1="84.1" y1="-72.1" x2="156.1" y2="-144.1"/>
			<line class="st1" x1="90.1" y1="-72.1" x2="156.1" y2="-138.1"/>
			<line class="st1" x1="96.1" y1="-72.1" x2="156.1" y2="-132.1"/>
			<line class="st1" x1="102.1" y1="-72.1" x2="156.1" y2="-126.1"/>
			<line class="st1" x1="108.1" y1="-72.1" x2="156.1" y2="-120.1"/>
			<line class="st1" x1="114.1" y1="-72.1" x2="156.1" y2="-114.1"/>
			<line class="st1" x1="120.1" y1="-72.1" x2="156.1" y2="-108.1"/>
			<line class="st1" x1="126.1" y1="-72.1" x2="156.1" y2="-102.1"/>
			<line class="st1" x1="132.1" y1="-72.1" x2="156.1" y2="-96.1"/>
			<line class="st1" x1="138.1" y1="-72.1" x2="156.1" y2="-90.1"/>
			<line class="st1" x1="144.1" y1="-72.1" x2="156.1" y2="-84.1"/>
		</g>
		<g>
			<line class="st1" x1="0.1" y1="-72.1" x2="84.1" y2="-156.1"/>
			<line class="st1" x1="6.1" y1="-72.1" x2="84.1" y2="-150.1"/>
			<line class="st1" x1="12.1" y1="-72.1" x2="84.1" y2="-144.1"/>
			<line class="st1" x1="18.1" y1="-72.1" x2="84.1" y2="-138.1"/>
			<line class="st1" x1="24.1" y1="-72.1" x2="84.1" y2="-132.1"/>
			<line class="st1" x1="30.1" y1="-72.1" x2="84.1" y2="-126.1"/>
			<line class="st1" x1="36.1" y1="-72.1" x2="84.1" y2="-120.1"/>
			<line class="st1" x1="42.1" y1="-72.1" x2="84.1" y2="-114.1"/>
			<line class="st1" x1="48.1" y1="-72.1" x2="84.1" y2="-108.1"/>
			<line class="st1" x1="54.1" y1="-72.1" x2="84.1" y2="-102.1"/>
			<line class="st1" x1="60.1" y1="-72.1" x2="84.1" y2="-96.1"/>
			<line class="st1" x1="66.1" y1="-72.1" x2="84.1" y2="-90.1"/>
			<line class="st1" x1="72.1" y1="-72.1" x2="84.1" y2="-84.1"/>
		</g>
		<g>
			<line class="st1" x1="144.1" y1="-144.1" x2="228.1" y2="-228.1"/>
			<line class="st1" x1="150.1" y1="-144.1" x2="228.1" y2="-222.1"/>
		</g>
		<g>
			<line class="st1" x1="72.1" y1="-144.1" x2="156.1" y2="-228.1"/>
			<line class="st1" x1="78.1" y1="-144.1" x2="156.1" y2="-222.1"/>
			<line class="st1" x1="84.1" y1="-144.1" x2="156.1" y2="-216.1"/>
			<line class="st1" x1="90.1" y1="-144.1" x2="156.1" y2="-210.1"/>
			<line class="st1" x1="96.1" y1="-144.1" x2="156.1" y2="-204.1"/>
			<line class="st1" x1="102.1" y1="-144.1" x2="156.1" y2="-198.1"/>
			<line class="st1" x1="108.1" y1="-144.1" x2="156.1" y2="-192.1"/>
			<line class="st1" x1="114.1" y1="-144.1" x2="156.1" y2="-186.1"/>
			<line class="st1" x1="120.1" y1="-144.1" x2="156.1" y2="-180.1"/>
			<line class="st1" x1="126.1" y1="-144.1" x2="156.1" y2="-174.1"/>
			<line class="st1" x1="132.1" y1="-144.1" x2="156.1" y2="-168.1"/>
			<line class="st1" x1="138.1" y1="-144.1" x2="156.1" y2="-162.1"/>
			<line class="st1" x1="144.1" y1="-144.1" x2="156.1" y2="-156.1"/>
		</g>
		<g>
			<line class="st1" x1="0.1" y1="-144.1" x2="84.1" y2="-228.1"/>
			<line class="st1" x1="6.1" y1="-144.1" x2="84.1" y2="-222.1"/>
			<line class="st1" x1="12.1" y1="-144.1" x2="84.1" y2="-216.1"/>
			<line class="st1" x1="18.1" y1="-144.1" x2="84.1" y2="-210.1"/>
			<line class="st1" x1="24.1" y1="-144.1" x2="84.1" y2="-204.1"/>
			<line class="st1" x1="30.1" y1="-144.1" x2="84.1" y2="-198.1"/>
			<line class="st1" x1="36.1" y1="-144.1" x2="84.1" y2="-192.1"/>
			<line class="st1" x1="42.1" y1="-144.1" x2="84.1" y2="-186.1"/>
			<line class="st1" x1="48.1" y1="-144.1" x2="84.1" y2="-180.1"/>
			<line class="st1" x1="54.1" y1="-144.1" x2="84.1" y2="-174.1"/>
			<line class="st1" x1="60.1" y1="-144.1" x2="84.1" y2="-168.1"/>
			<line class="st1" x1="66.1" y1="-144.1" x2="84.1" y2="-162.1"/>
			<line class="st1" x1="72.1" y1="-144.1" x2="84.1" y2="-156.1"/>
		</g>
	</g>
</pattern>
<title>how-it-works</title>
<g>
	<g>
		<rect x="727.3" y="134" class="st2" width="596" height="344"/>
		<path class="st3" d="M1320.8,136.5v339h-591v-339H1320.8 M1325.8,131.5h-5h-591h-5v5v339v5h5h591h5v-5v-339V131.5L1325.8,131.5z"
			/>
	</g>
	<g>
		<rect x="707.3" y="114" class="st2" width="596" height="344"/>
		<path class="st3" d="M1300.8,116.5v339h-591v-339H1300.8 M1305.8,111.5h-5h-591h-5v5v339v5h5h591h5v-5v-339V111.5L1305.8,111.5z"
			/>
	</g>
	<g>
		<rect x="686.6" y="30.4" class="st2" width="596.3" height="407.3"/>
		<path class="st3" d="M1280.3,33v402h-591V33H1280.3 M1285.6,27.7h-5.3h-591H684V33v402v5.3h5.3h591h5.3V435V33V27.7L1285.6,27.7z"
			/>
	</g>
	<g>
		<pattern  id="SVGID_1_" xlink:href="#Diagonal_Lines_2" patternTransform="matrix(1 0 0 1.0929 86.3001 1281.4425)">
		</pattern>
		<rect x="700.8" y="86.5" class="st4" width="568" height="198"/>
		<g>
			<path d="M1267.3,88v195h-565V88H1267.3 M1270.3,85h-571v201h571V85L1270.3,85z"/>
		</g>
	</g>
	<g>
		<rect x="2.7" y="30.4" class="st2" width="596.3" height="314.3"/>
		<path class="st3" d="M596.3,33v309H5.3V33H596.3 M601.6,27.7h-5.3H5.3H0V33v309v5.3h5.3h591h5.3V342V33V27.7L601.6,27.7z"/>
	</g>
	<g>
		<pattern  id="SVGID_2_" xlink:href="#Diagonal_Lines_2" patternTransform="matrix(1 0 0 1.0929 86.3001 1281.4425)">
		</pattern>
		<rect x="16.8" y="86.5" class="st5" width="568" height="244"/>
		<path d="M583.3,88v241h-565V88H583.3 M586.3,85h-571v247h571V85L586.3,85z"/>
	</g>
	<rect x="719.3" y="126" class="st6" width="136" height="62"/>
	<g>
		<g>
			<path class="st3" d="M751.9,150.8v1.8h-3v8.3h-2.1v-8.3h-3v-1.8H751.9z"/>
			<path class="st3" d="M753.9,153.4v4.5c0,0.4,0,0.7,0.1,1c0.2,0.4,0.5,0.6,1,0.6c0.7,0,1.1-0.3,1.4-0.8c0.1-0.3,0.2-0.7,0.2-1.2
				v-4.1h2v7.5h-1.9v-1.1c0,0-0.1,0.1-0.1,0.2c-0.1,0.1-0.2,0.2-0.3,0.3c-0.3,0.3-0.6,0.5-0.9,0.6s-0.6,0.2-1,0.2
				c-1.1,0-1.8-0.4-2.2-1.2c-0.2-0.4-0.3-1.1-0.3-1.9v-4.5H753.9z"/>
			<path class="st3" d="M766.5,153.8c0.5,0.4,0.7,1.1,0.7,2v5h-2v-4.5c0-0.4-0.1-0.7-0.2-0.9c-0.2-0.4-0.6-0.6-1.1-0.6
				c-0.7,0-1.1,0.3-1.3,0.8c-0.1,0.3-0.2,0.7-0.2,1.1v4h-1.9v-7.4h1.9v1.1c0.2-0.4,0.5-0.7,0.7-0.8c0.4-0.3,0.9-0.5,1.5-0.5
				C765.4,153.2,766,153.4,766.5,153.8z"/>
			<path class="st3" d="M775.1,153.8c0.5,0.4,0.7,1.1,0.7,2v5h-2v-4.5c0-0.4-0.1-0.7-0.2-0.9c-0.2-0.4-0.6-0.6-1.1-0.6
				c-0.7,0-1.1,0.3-1.3,0.8c-0.1,0.3-0.2,0.7-0.2,1.1v4h-1.9v-7.4h1.9v1.1c0.2-0.4,0.5-0.7,0.7-0.8c0.4-0.3,0.9-0.5,1.5-0.5
				C774,153.2,774.6,153.4,775.1,153.8z"/>
			<path class="st3" d="M782.5,153.6c0.5,0.2,0.9,0.6,1.3,1.1c0.3,0.4,0.5,1,0.6,1.5c0.1,0.3,0.1,0.8,0.1,1.5H779
				c0,0.7,0.3,1.3,0.8,1.6c0.3,0.2,0.7,0.3,1.1,0.3c0.4,0,0.8-0.1,1.1-0.3c0.2-0.1,0.3-0.3,0.4-0.5h2c-0.1,0.4-0.3,0.9-0.7,1.3
				c-0.7,0.7-1.6,1.1-2.8,1.1c-1,0-1.9-0.3-2.6-0.9c-0.8-0.6-1.1-1.6-1.1-3c0-1.3,0.3-2.3,1-3c0.7-0.7,1.6-1,2.7-1
				C781.4,153.2,782,153.3,782.5,153.6z M779.6,155.3c-0.3,0.3-0.4,0.7-0.5,1.2h3.4c0-0.5-0.2-0.9-0.5-1.2c-0.3-0.3-0.7-0.4-1.2-0.4
				C780.2,154.8,779.8,155,779.6,155.3z"/>
			<path class="st3" d="M787.4,160.9h-1.9v-10.1h1.9V160.9z"/>
			<path class="st3" d="M800.1,156.5c-0.6,0.5-1.4,0.7-2.5,0.7h-2.1v3.6h-2.1v-10.1h4.3c1,0,1.8,0.3,2.4,0.8s0.9,1.3,0.9,2.4
				C801,155.2,800.7,156,800.1,156.5z M798.5,152.9c-0.3-0.2-0.6-0.3-1.1-0.3h-1.9v3h1.9c0.5,0,0.9-0.1,1.1-0.4s0.4-0.6,0.4-1.1
				S798.8,153.1,798.5,152.9z"/>
			<path class="st3" d="M806.7,153.2c0,0,0.1,0,0.2,0v2c-0.1,0-0.2,0-0.3,0s-0.2,0-0.2,0c-0.8,0-1.3,0.3-1.6,0.8
				c-0.2,0.3-0.2,0.7-0.2,1.3v3.6h-2v-7.5h1.9v1.3c0.3-0.5,0.6-0.8,0.8-1C805.5,153.4,806,153.2,806.7,153.2
				C806.6,153.2,806.6,153.2,806.7,153.2z"/>
			<path class="st3" d="M814.2,160c-0.6,0.8-1.6,1.2-2.9,1.2s-2.2-0.4-2.9-1.2c-0.6-0.8-0.9-1.7-0.9-2.8c0-1.1,0.3-2,0.9-2.8
				s1.6-1.2,2.9-1.2s2.2,0.4,2.9,1.2s0.9,1.7,0.9,2.8C815.1,158.2,814.8,159.2,814.2,160z M812.6,158.9c0.3-0.4,0.5-1,0.5-1.7
				c0-0.7-0.2-1.3-0.5-1.7s-0.7-0.6-1.3-0.6s-1,0.2-1.3,0.6c-0.3,0.4-0.5,1-0.5,1.7c0,0.7,0.2,1.3,0.5,1.7c0.3,0.4,0.7,0.6,1.3,0.6
				S812.3,159.3,812.6,158.9z"/>
			<path class="st3" d="M815.8,160.9l2.5-3.8l-2.4-3.7h2.4l1.2,2.2l1.2-2.2h2.3l-2.4,3.6l2.5,3.8h-2.4l-1.3-2.2l-1.3,2.2H815.8z"/>
			<path class="st3" d="M824.6,162.3l0.2,0c0.2,0,0.4,0,0.5,0s0.3-0.1,0.4-0.2c0.1-0.1,0.2-0.2,0.3-0.5c0.1-0.2,0.1-0.4,0.1-0.5
				l-2.7-7.8h2.2l1.6,5.5l1.5-5.5h2.1l-2.6,7.3c-0.5,1.4-0.9,2.3-1.2,2.6c-0.3,0.3-0.9,0.5-1.7,0.5c-0.2,0-0.3,0-0.4,0
				c-0.1,0-0.3,0-0.5,0V162.3z"/>
		</g>
	</g>
	<rect x="916.3" y="126" class="st6" width="136" height="62"/>
	<g>
		<g>
			<path class="st3" d="M947.5,150.8h1.9v5.4l2.5-2.8h2.4l-2.7,2.8l2.8,4.6h-2.4l-1.8-3.2l-0.8,0.8v2.3h-1.9V150.8z"/>
			<path class="st3" d="M957.3,153.4v4.5c0,0.4,0,0.7,0.1,1c0.2,0.4,0.5,0.6,1,0.6c0.7,0,1.1-0.3,1.4-0.8c0.1-0.3,0.2-0.7,0.2-1.2
				v-4.1h2v7.5h-1.9v-1.1c0,0-0.1,0.1-0.1,0.2c-0.1,0.1-0.2,0.2-0.3,0.3c-0.3,0.3-0.6,0.5-0.9,0.6s-0.6,0.2-1,0.2
				c-1.1,0-1.8-0.4-2.2-1.2c-0.2-0.4-0.3-1.1-0.3-1.9v-4.5H957.3z"/>
			<path class="st3" d="M970.2,154.3c0.6,0.7,0.8,1.6,0.8,2.7c0,1.2-0.3,2.1-0.8,2.9c-0.5,0.8-1.3,1.1-2.3,1.1
				c-0.6,0-1.1-0.1-1.5-0.4c-0.2-0.1-0.5-0.4-0.7-0.8v0.9h-1.9v-10.1h1.9v3.6c0.2-0.3,0.5-0.6,0.8-0.8c0.4-0.2,0.8-0.3,1.3-0.3
				C968.9,153.3,969.7,153.6,970.2,154.3z M968.6,158.9c0.3-0.4,0.4-0.9,0.4-1.6c0-0.5-0.1-1-0.2-1.3c-0.3-0.7-0.7-1-1.4-1
				c-0.7,0-1.2,0.3-1.5,1c-0.1,0.3-0.2,0.8-0.2,1.3c0,0.6,0.1,1.2,0.4,1.6c0.3,0.4,0.7,0.6,1.3,0.6
				C967.9,159.5,968.3,159.3,968.6,158.9z"/>
			<path class="st3" d="M977.3,153.6c0.5,0.2,0.9,0.6,1.3,1.1c0.3,0.4,0.5,1,0.6,1.5c0.1,0.3,0.1,0.8,0.1,1.5h-5.4
				c0,0.7,0.3,1.3,0.8,1.6c0.3,0.2,0.7,0.3,1.1,0.3c0.4,0,0.8-0.1,1.1-0.3c0.2-0.1,0.3-0.3,0.4-0.5h2c-0.1,0.4-0.3,0.9-0.7,1.3
				c-0.7,0.7-1.6,1.1-2.8,1.1c-1,0-1.9-0.3-2.6-0.9c-0.8-0.6-1.1-1.6-1.1-3c0-1.3,0.3-2.3,1-3c0.7-0.7,1.6-1,2.7-1
				C976.2,153.2,976.8,153.3,977.3,153.6z M974.4,155.3c-0.3,0.3-0.4,0.7-0.5,1.2h3.4c0-0.5-0.2-0.9-0.5-1.2
				c-0.3-0.3-0.7-0.4-1.2-0.4C975,154.8,974.7,155,974.4,155.3z"/>
			<path class="st3" d="M979.6,156h3.8v1.8h-3.8V156z"/>
			<path class="st3" d="M991.2,154.2c0.6,0.6,0.9,1.6,0.9,2.8c0,1.3-0.3,2.3-0.9,3c-0.6,0.7-1.4,1-2.3,1c-0.6,0-1.1-0.1-1.5-0.4
				c-0.2-0.2-0.4-0.4-0.6-0.7v3.9h-1.9v-10.4h1.9v1.1c0.2-0.3,0.4-0.6,0.7-0.8c0.4-0.3,1-0.5,1.6-0.5
				C989.8,153.3,990.5,153.6,991.2,154.2z M989.7,155.6c-0.3-0.4-0.7-0.7-1.3-0.7c-0.7,0-1.2,0.3-1.5,1c-0.1,0.4-0.2,0.8-0.2,1.4
				c0,0.9,0.2,1.5,0.7,1.8c0.3,0.2,0.6,0.3,1,0.3c0.5,0,1-0.2,1.3-0.6s0.4-1,0.4-1.7C990.1,156.6,989.9,156.1,989.7,155.6z"/>
			<path class="st3" d="M997.6,153.2c0,0,0.1,0,0.2,0v2c-0.1,0-0.2,0-0.3,0s-0.2,0-0.2,0c-0.8,0-1.3,0.3-1.6,0.8
				c-0.2,0.3-0.2,0.7-0.2,1.3v3.6h-2v-7.5h1.9v1.3c0.3-0.5,0.6-0.8,0.8-1C996.4,153.4,996.9,153.2,997.6,153.2
				C997.5,153.2,997.6,153.2,997.6,153.2z"/>
			<path class="st3" d="M1005.1,160c-0.6,0.8-1.6,1.2-2.9,1.2s-2.2-0.4-2.9-1.2c-0.6-0.8-0.9-1.7-0.9-2.8c0-1.1,0.3-2,0.9-2.8
				s1.6-1.2,2.9-1.2s2.2,0.4,2.9,1.2s0.9,1.7,0.9,2.8C1006,158.2,1005.7,159.2,1005.1,160z M1003.5,158.9c0.3-0.4,0.5-1,0.5-1.7
				c0-0.7-0.2-1.3-0.5-1.7s-0.7-0.6-1.3-0.6s-1,0.2-1.3,0.6c-0.3,0.4-0.5,1-0.5,1.7c0,0.7,0.2,1.3,0.5,1.7c0.3,0.4,0.7,0.6,1.3,0.6
				S1003.2,159.3,1003.5,158.9z"/>
			<path class="st3" d="M1006.7,160.9l2.5-3.8l-2.4-3.7h2.4l1.2,2.2l1.2-2.2h2.3l-2.4,3.6l2.5,3.8h-2.4l-1.3-2.2l-1.3,2.2H1006.7z"
				/>
			<path class="st3" d="M1015.5,162.3l0.2,0c0.2,0,0.4,0,0.5,0s0.3-0.1,0.4-0.2c0.1-0.1,0.2-0.2,0.3-0.5c0.1-0.2,0.1-0.4,0.1-0.5
				l-2.7-7.8h2.2l1.6,5.5l1.5-5.5h2.1l-2.6,7.3c-0.5,1.4-0.9,2.3-1.2,2.6c-0.3,0.3-0.9,0.5-1.7,0.5c-0.2,0-0.3,0-0.4,0
				c-0.1,0-0.3,0-0.5,0V162.3z"/>
		</g>
	</g>
	<g>
		<rect x="918.8" y="2.5" class="st3" width="131" height="57"/>
		<path class="st6" d="M1047.3,5v52h-126V5H1047.3 M1052.3,0h-136v62h136V0L1052.3,0z"/>
	</g>
	<g>
		<path class="st6" d="M942.8,24.8h2.5v7l3.2-3.6h3.1l-3.4,3.6l3.6,6h-3l-2.3-4.1l-1,1.1v3h-2.5V24.8z"/>
		<path class="st6" d="M954.6,33.8c0,0.5,0.1,0.9,0.2,1.3c0.3,0.6,0.9,0.9,1.7,0.9c0.5,0,0.9-0.2,1.3-0.5c0.4-0.3,0.5-0.8,0.5-1.5
			c0-0.8-0.3-1.4-1-1.7c-0.4-0.2-1-0.2-1.8-0.2v-1.8c0.8,0,1.4-0.1,1.7-0.2c0.6-0.2,0.8-0.7,0.8-1.5c0-0.5-0.1-0.9-0.4-1.2
			c-0.3-0.3-0.7-0.5-1.2-0.5c-0.6,0-1,0.2-1.3,0.6c-0.3,0.4-0.4,0.9-0.4,1.5h-2.3c0-0.6,0.1-1.2,0.3-1.8c0.2-0.5,0.5-1,1-1.4
			c0.3-0.3,0.7-0.5,1.2-0.7c0.5-0.2,1-0.2,1.7-0.2c1.2,0,2.2,0.3,2.9,0.9c0.7,0.6,1.1,1.5,1.1,2.5c0,0.8-0.2,1.4-0.7,1.9
			c-0.3,0.3-0.6,0.5-0.9,0.7c0.2,0,0.6,0.2,1,0.6c0.6,0.6,1,1.4,1,2.4c0,1.1-0.4,2-1.1,2.8c-0.7,0.8-1.9,1.2-3.3,1.2
			c-1.8,0-3.1-0.6-3.8-1.8c-0.4-0.6-0.6-1.4-0.6-2.5H954.6z"/>
		<path class="st6" d="M964.8,34.7c0.1,0.4,0.2,0.8,0.3,0.9c0.3,0.3,0.9,0.5,1.7,0.5c0.5,0,0.9-0.1,1.2-0.2c0.3-0.1,0.4-0.4,0.4-0.7
			c0-0.3-0.1-0.5-0.4-0.6c-0.2-0.1-1.1-0.4-2.6-0.8c-1.1-0.3-1.9-0.6-2.3-1c-0.4-0.4-0.7-1-0.7-1.7c0-0.9,0.3-1.6,1-2.3
			c0.7-0.6,1.7-1,2.9-1c1.2,0,2.2,0.2,2.9,0.7c0.8,0.5,1.2,1.3,1.3,2.5h-2.5c0-0.3-0.1-0.6-0.3-0.8c-0.3-0.3-0.7-0.5-1.4-0.5
			c-0.5,0-0.9,0.1-1.2,0.3c-0.2,0.2-0.3,0.4-0.3,0.6c0,0.3,0.1,0.5,0.4,0.6c0.2,0.1,1.1,0.4,2.6,0.7c1,0.2,1.7,0.6,2.2,1.1
			c0.5,0.5,0.7,1.1,0.7,1.8c0,0.9-0.4,1.7-1.1,2.3c-0.7,0.6-1.8,0.9-3.3,0.9c-1.5,0-2.6-0.3-3.3-1c-0.7-0.6-1.1-1.4-1.1-2.4H964.8z"
			/>
		<path class="st6" d="M981.1,24.8h3.1l4.6,13h-2.9l-0.9-2.7h-4.8l-0.9,2.7h-2.8L981.1,24.8z M981,32.9h3.3l-1.6-5.1L981,32.9z"/>
		<path class="st6" d="M995,28.2c0.6,0.3,1.1,0.7,1.5,1.4v-1.4h2.4v9.1c0,1.2-0.2,2.2-0.6,2.8c-0.7,1.1-2.1,1.6-4.1,1.6
			c-1.2,0-2.2-0.2-3-0.7s-1.2-1.2-1.3-2.2h2.7c0.1,0.3,0.2,0.5,0.3,0.6c0.3,0.2,0.7,0.3,1.4,0.3c0.9,0,1.5-0.3,1.8-0.9
			c0.2-0.4,0.3-1,0.3-2v-0.6c-0.2,0.4-0.5,0.7-0.8,0.9c-0.5,0.4-1.1,0.6-1.9,0.6c-1.2,0-2.2-0.4-2.9-1.3c-0.7-0.9-1.1-2-1.1-3.5
			c0-1.4,0.4-2.6,1.1-3.6c0.7-1,1.7-1.5,3-1.5C994.2,27.9,994.6,28,995,28.2z M995.8,35c0.4-0.4,0.6-1.1,0.6-2.1
			c0-0.9-0.2-1.6-0.6-2.1s-0.9-0.7-1.5-0.7c-0.9,0-1.5,0.4-1.8,1.2c-0.2,0.4-0.3,1-0.3,1.6c0,0.6,0.1,1.1,0.3,1.5
			c0.3,0.8,0.9,1.2,1.8,1.2C994.9,35.7,995.4,35.5,995.8,35z"/>
		<path class="st6" d="M1007.5,28.4c0.7,0.3,1.2,0.8,1.7,1.4c0.4,0.6,0.6,1.2,0.8,2c0.1,0.4,0.1,1.1,0.1,1.9h-7c0,1,0.4,1.6,1,2
			c0.4,0.2,0.8,0.4,1.4,0.4c0.6,0,1-0.1,1.4-0.4c0.2-0.2,0.4-0.4,0.5-0.7h2.6c-0.1,0.6-0.4,1.1-0.9,1.7c-0.9,0.9-2.1,1.4-3.6,1.4
			c-1.3,0-2.4-0.4-3.4-1.2s-1.5-2.1-1.5-3.8c0-1.7,0.4-2.9,1.3-3.8c0.9-0.9,2-1.3,3.4-1.3C1006,27.9,1006.8,28.1,1007.5,28.4z
			 M1003.7,30.5c-0.4,0.4-0.6,0.9-0.7,1.5h4.3c0-0.7-0.3-1.2-0.7-1.5s-0.9-0.5-1.5-0.5C1004.6,30,1004.1,30.2,1003.7,30.5z"/>
		<path class="st6" d="M1019,28.7c0.6,0.5,0.9,1.4,0.9,2.6v6.5h-2.6v-5.8c0-0.5-0.1-0.9-0.2-1.2c-0.2-0.5-0.7-0.7-1.4-0.7
			c-0.8,0-1.4,0.4-1.7,1.1c-0.2,0.4-0.2,0.9-0.2,1.5v5.2h-2.5v-9.6h2.4v1.4c0.3-0.5,0.6-0.8,0.9-1.1c0.5-0.4,1.2-0.6,2-0.6
			C1017.5,27.9,1018.3,28.2,1019,28.7z"/>
		<path class="st6" d="M1021.2,30v-1.8h1.3v-2.7h2.5v2.7h1.6V30h-1.6v5.1c0,0.4,0,0.6,0.1,0.7c0.1,0.1,0.4,0.1,0.9,0.1
			c0.1,0,0.2,0,0.2,0c0.1,0,0.2,0,0.2,0v1.9l-1.2,0c-1.2,0-2-0.2-2.4-0.6c-0.3-0.3-0.4-0.7-0.4-1.3V30H1021.2z"/>
	</g>
	<rect x="916.3" y="343" class="st6" width="136" height="62"/>
	<g>
		<g>
			<path class="st3" d="M954,373.1c0-0.3-0.1-0.5-0.3-0.8c-0.2-0.3-0.6-0.5-1-0.5c-0.7,0-1.1,0.3-1.4,1c-0.1,0.3-0.2,0.8-0.2,1.4
				c0,0.5,0.1,1,0.2,1.3c0.2,0.6,0.7,0.9,1.3,0.9c0.5,0,0.8-0.1,1-0.4c0.2-0.2,0.3-0.6,0.3-1h2c0,0.6-0.3,1.2-0.6,1.7
				c-0.6,0.9-1.5,1.3-2.7,1.3c-1.2,0-2.1-0.4-2.6-1.1s-0.8-1.6-0.8-2.8c0-1.3,0.3-2.3,0.9-3s1.5-1.1,2.6-1.1c0.9,0,1.7,0.2,2.3,0.6
				c0.6,0.4,0.9,1.2,1.1,2.2H954z"/>
			<path class="st3" d="M963.5,377c-0.6,0.8-1.6,1.2-2.9,1.2s-2.2-0.4-2.9-1.2c-0.6-0.8-0.9-1.7-0.9-2.8c0-1.1,0.3-2,0.9-2.8
				s1.6-1.2,2.9-1.2s2.2,0.4,2.9,1.2s0.9,1.7,0.9,2.8C964.4,375.2,964.1,376.2,963.5,377z M961.9,375.9c0.3-0.4,0.5-1,0.5-1.7
				c0-0.7-0.2-1.3-0.5-1.7s-0.7-0.6-1.3-0.6s-1,0.2-1.3,0.6c-0.3,0.4-0.5,1-0.5,1.7c0,0.7,0.2,1.3,0.5,1.7c0.3,0.4,0.7,0.6,1.3,0.6
				S961.6,376.3,961.9,375.9z"/>
			<path class="st3" d="M971.8,370.8c0.5,0.4,0.7,1.1,0.7,2v5h-2v-4.5c0-0.4-0.1-0.7-0.2-0.9c-0.2-0.4-0.6-0.6-1.1-0.6
				c-0.7,0-1.1,0.3-1.3,0.8c-0.1,0.3-0.2,0.7-0.2,1.1v4h-1.9v-7.4h1.9v1.1c0.2-0.4,0.5-0.7,0.7-0.8c0.4-0.3,0.9-0.5,1.5-0.5
				C970.7,370.2,971.4,370.4,971.8,370.8z"/>
			<path class="st3" d="M973.6,371.9v-1.4h1v-2.1h1.9v2.1h1.2v1.4h-1.2v3.9c0,0.3,0,0.5,0.1,0.6c0.1,0.1,0.3,0.1,0.7,0.1
				c0.1,0,0.1,0,0.2,0c0.1,0,0.1,0,0.2,0v1.5l-0.9,0c-0.9,0-1.5-0.1-1.9-0.5c-0.2-0.2-0.3-0.6-0.3-1v-4.6H973.6z"/>
			<path class="st3" d="M982,373.3c0.4,0,0.6-0.1,0.8-0.2c0.3-0.1,0.4-0.3,0.4-0.6c0-0.3-0.1-0.5-0.3-0.6c-0.2-0.1-0.5-0.2-0.9-0.2
				c-0.5,0-0.8,0.1-1,0.3c-0.1,0.2-0.2,0.4-0.3,0.7h-1.9c0-0.7,0.2-1.2,0.5-1.6c0.5-0.7,1.4-1,2.7-1c0.8,0,1.5,0.2,2.2,0.5
				c0.6,0.3,1,0.9,1,1.8v3.4c0,0.2,0,0.5,0,0.9c0,0.3,0.1,0.4,0.1,0.5s0.2,0.2,0.3,0.2v0.3h-2.1c-0.1-0.2-0.1-0.3-0.1-0.4
				s0-0.3-0.1-0.5c-0.3,0.3-0.6,0.5-0.9,0.7c-0.4,0.2-0.9,0.4-1.4,0.4c-0.7,0-1.2-0.2-1.7-0.6c-0.4-0.4-0.7-0.9-0.7-1.6
				c0-0.9,0.4-1.6,1.1-2c0.4-0.2,1-0.4,1.7-0.5L982,373.3z M983.2,374.2c-0.1,0.1-0.3,0.1-0.4,0.2c-0.1,0-0.3,0.1-0.5,0.1l-0.4,0.1
				c-0.4,0.1-0.7,0.2-0.9,0.3c-0.3,0.2-0.5,0.5-0.5,0.8c0,0.3,0.1,0.6,0.3,0.7c0.2,0.1,0.4,0.2,0.7,0.2c0.4,0,0.8-0.1,1.2-0.4
				c0.4-0.2,0.5-0.7,0.6-1.3V374.2z"/>
			<path class="st3" d="M988.8,369.5h-2v-1.8h2V369.5z M986.9,370.4h2v7.5h-2V370.4z"/>
			<path class="st3" d="M996.7,370.8c0.5,0.4,0.7,1.1,0.7,2v5h-2v-4.5c0-0.4-0.1-0.7-0.2-0.9c-0.2-0.4-0.6-0.6-1.1-0.6
				c-0.7,0-1.1,0.3-1.3,0.8c-0.1,0.3-0.2,0.7-0.2,1.1v4h-1.9v-7.4h1.9v1.1c0.2-0.4,0.5-0.7,0.7-0.8c0.4-0.3,0.9-0.5,1.5-0.5
				C995.6,370.2,996.2,370.4,996.7,370.8z"/>
			<path class="st3" d="M1004.1,370.6c0.5,0.2,0.9,0.6,1.3,1.1c0.3,0.4,0.5,1,0.6,1.5c0.1,0.3,0.1,0.8,0.1,1.5h-5.4
				c0,0.7,0.3,1.3,0.8,1.6c0.3,0.2,0.7,0.3,1.1,0.3c0.4,0,0.8-0.1,1.1-0.3c0.2-0.1,0.3-0.3,0.4-0.5h2c-0.1,0.4-0.3,0.9-0.7,1.3
				c-0.7,0.7-1.6,1.1-2.8,1.1c-1,0-1.9-0.3-2.6-0.9c-0.8-0.6-1.1-1.6-1.1-3c0-1.3,0.3-2.3,1-3c0.7-0.7,1.6-1,2.7-1
				C1003,370.2,1003.6,370.3,1004.1,370.6z M1001.2,372.3c-0.3,0.3-0.4,0.7-0.5,1.2h3.4c0-0.5-0.2-0.9-0.5-1.2
				c-0.3-0.3-0.7-0.4-1.2-0.4C1001.9,371.8,1001.5,372,1001.2,372.3z"/>
			<path class="st3" d="M1011.2,370.2c0,0,0.1,0,0.2,0v2c-0.1,0-0.2,0-0.3,0s-0.2,0-0.2,0c-0.8,0-1.3,0.3-1.6,0.8
				c-0.2,0.3-0.2,0.7-0.2,1.3v3.6h-2v-7.5h1.9v1.3c0.3-0.5,0.6-0.8,0.8-1C1010.1,370.4,1010.5,370.2,1011.2,370.2
				C1011.1,370.2,1011.2,370.2,1011.2,370.2z"/>
			<path class="st3" d="M1016.5,370.5c0.4,0.2,0.6,0.5,0.9,0.8v-3.6h2v10.1h-1.9v-1c-0.3,0.4-0.6,0.8-1,1s-0.8,0.3-1.3,0.3
				c-0.9,0-1.6-0.4-2.2-1.1c-0.6-0.7-0.9-1.6-0.9-2.7c0-1.3,0.3-2.3,0.9-3c0.6-0.7,1.4-1.1,2.3-1.1
				C1015.7,370.2,1016.1,370.3,1016.5,370.5z M1016.9,375.8c0.3-0.4,0.4-0.9,0.4-1.6c0-0.9-0.2-1.6-0.7-2c-0.3-0.2-0.6-0.4-1-0.4
				c-0.6,0-1,0.2-1.3,0.6c-0.3,0.4-0.4,1-0.4,1.6c0,0.7,0.1,1.2,0.4,1.7c0.3,0.4,0.7,0.6,1.2,0.6S1016.7,376.3,1016.9,375.8z"/>
		</g>
	</g>
	<rect x="1114.3" y="126" class="st6" width="136" height="62"/>
	<g>
		<g>
			<path class="st3" d="M1158.9,150.8h7.2v1.8h-5.1v2.3h4.5v1.8h-4.5v4.2h-2.1V150.8z"/>
			<path class="st3" d="M1169.3,160.9h-1.9v-10.1h1.9V160.9z"/>
			<path class="st3" d="M1174.2,156.3c0.4,0,0.6-0.1,0.8-0.2c0.3-0.1,0.4-0.3,0.4-0.6c0-0.3-0.1-0.5-0.3-0.6
				c-0.2-0.1-0.5-0.2-0.9-0.2c-0.5,0-0.8,0.1-1,0.3c-0.1,0.2-0.2,0.4-0.3,0.7h-1.9c0-0.7,0.2-1.2,0.5-1.6c0.5-0.7,1.4-1,2.7-1
				c0.8,0,1.5,0.2,2.2,0.5c0.6,0.3,1,0.9,1,1.8v3.4c0,0.2,0,0.5,0,0.9c0,0.3,0.1,0.4,0.1,0.5s0.2,0.2,0.3,0.2v0.3h-2.1
				c-0.1-0.2-0.1-0.3-0.1-0.4s0-0.3-0.1-0.5c-0.3,0.3-0.6,0.5-0.9,0.7c-0.4,0.2-0.9,0.4-1.4,0.4c-0.7,0-1.2-0.2-1.7-0.6
				c-0.4-0.4-0.7-0.9-0.7-1.6c0-0.9,0.4-1.6,1.1-2c0.4-0.2,1-0.4,1.7-0.5L1174.2,156.3z M1175.4,157.2c-0.1,0.1-0.3,0.1-0.4,0.2
				c-0.1,0-0.3,0.1-0.5,0.1l-0.4,0.1c-0.4,0.1-0.7,0.2-0.9,0.3c-0.3,0.2-0.5,0.5-0.5,0.8c0,0.3,0.1,0.6,0.3,0.7
				c0.2,0.1,0.4,0.2,0.7,0.2c0.4,0,0.8-0.1,1.2-0.4c0.4-0.2,0.5-0.7,0.6-1.3V157.2z"/>
			<path class="st3" d="M1185,153.8c0.5,0.4,0.7,1.1,0.7,2v5h-2v-4.5c0-0.4-0.1-0.7-0.2-0.9c-0.2-0.4-0.6-0.6-1.1-0.6
				c-0.7,0-1.1,0.3-1.3,0.8c-0.1,0.3-0.2,0.7-0.2,1.1v4h-1.9v-7.4h1.9v1.1c0.2-0.4,0.5-0.7,0.7-0.8c0.4-0.3,0.9-0.5,1.5-0.5
				C1183.9,153.2,1184.5,153.4,1185,153.8z"/>
			<path class="st3" d="M1193.6,153.8c0.5,0.4,0.7,1.1,0.7,2v5h-2v-4.5c0-0.4-0.1-0.7-0.2-0.9c-0.2-0.4-0.6-0.6-1.1-0.6
				c-0.7,0-1.1,0.3-1.3,0.8c-0.1,0.3-0.2,0.7-0.2,1.1v4h-1.9v-7.4h1.9v1.1c0.2-0.4,0.5-0.7,0.7-0.8c0.4-0.3,0.9-0.5,1.5-0.5
				C1192.4,153.2,1193.1,153.4,1193.6,153.8z"/>
			<path class="st3" d="M1201,153.6c0.5,0.2,0.9,0.6,1.3,1.1c0.3,0.4,0.5,1,0.6,1.5c0.1,0.3,0.1,0.8,0.1,1.5h-5.4
				c0,0.7,0.3,1.3,0.8,1.6c0.3,0.2,0.7,0.3,1.1,0.3c0.4,0,0.8-0.1,1.1-0.3c0.2-0.1,0.3-0.3,0.4-0.5h2c-0.1,0.4-0.3,0.9-0.7,1.3
				c-0.7,0.7-1.6,1.1-2.8,1.1c-1,0-1.9-0.3-2.6-0.9c-0.8-0.6-1.1-1.6-1.1-3c0-1.3,0.3-2.3,1-3c0.7-0.7,1.6-1,2.7-1
				C1199.9,153.2,1200.4,153.3,1201,153.6z M1198,155.3c-0.3,0.3-0.4,0.7-0.5,1.2h3.4c0-0.5-0.2-0.9-0.5-1.2
				c-0.3-0.3-0.7-0.4-1.2-0.4C1198.7,154.8,1198.3,155,1198,155.3z"/>
			<path class="st3" d="M1205.9,160.9h-1.9v-10.1h1.9V160.9z"/>
		</g>
	</g>
	<path class="st6" d="M787.3,538L787.3,538c-17.1,0-31-13.9-31-31v0c0-17.1,13.9-31,31-31h0c17.1,0,31,13.9,31,31v0
		C818.3,524.1,804.4,538,787.3,538z"/>
	<g>
		<g>
			<path class="st3" d="M781.9,506.5c-0.6,0.5-1.4,0.7-2.5,0.7h-2.1v3.6h-2.1v-10.1h4.3c1,0,1.8,0.3,2.4,0.8s0.9,1.3,0.9,2.4
				C782.8,505.2,782.5,506,781.9,506.5z M780.3,502.9c-0.3-0.2-0.6-0.3-1.1-0.3h-1.9v3h1.9c0.5,0,0.9-0.1,1.1-0.4
				c0.3-0.2,0.4-0.6,0.4-1.1C780.7,503.5,780.6,503.1,780.3,502.9z"/>
			<path class="st3" d="M790.5,510c-0.6,0.8-1.6,1.2-2.9,1.2s-2.2-0.4-2.9-1.2s-0.9-1.7-0.9-2.8c0-1.1,0.3-2,0.9-2.8
				c0.6-0.8,1.6-1.2,2.9-1.2s2.2,0.4,2.9,1.2c0.6,0.8,0.9,1.7,0.9,2.8C791.5,508.2,791.2,509.2,790.5,510z M789,508.9
				c0.3-0.4,0.5-1,0.5-1.7c0-0.7-0.2-1.3-0.5-1.7s-0.7-0.6-1.3-0.6s-1,0.2-1.3,0.6c-0.3,0.4-0.5,1-0.5,1.7c0,0.7,0.2,1.3,0.5,1.7
				c0.3,0.4,0.7,0.6,1.3,0.6S788.7,509.3,789,508.9z"/>
			<path class="st3" d="M796.8,503.5c0.4,0.2,0.6,0.5,0.9,0.8v-3.6h2v10.1h-1.9v-1c-0.3,0.4-0.6,0.8-1,1c-0.4,0.2-0.8,0.3-1.3,0.3
				c-0.9,0-1.6-0.4-2.2-1.1c-0.6-0.7-0.9-1.6-0.9-2.7c0-1.3,0.3-2.3,0.9-3c0.6-0.7,1.4-1.1,2.3-1.1
				C796.1,503.2,796.5,503.3,796.8,503.5z M797.3,508.8c0.3-0.4,0.4-0.9,0.4-1.6c0-0.9-0.2-1.6-0.7-2c-0.3-0.2-0.6-0.4-1-0.4
				c-0.6,0-1,0.2-1.3,0.6c-0.3,0.4-0.4,1-0.4,1.6c0,0.7,0.1,1.2,0.4,1.7c0.3,0.4,0.7,0.6,1.2,0.6S797,509.3,797.3,508.8z"/>
		</g>
	</g>
	<path class="st6" d="M984.3,538L984.3,538c-17.1,0-31-13.9-31-31v0c0-17.1,13.9-31,31-31h0c17.1,0,31,13.9,31,31v0
		C1015.3,524.1,1001.4,538,984.3,538z"/>
	<g>
		<g>
			<path class="st3" d="M978.9,506.5c-0.6,0.5-1.4,0.7-2.5,0.7h-2.1v3.6h-2.1v-10.1h4.3c1,0,1.8,0.3,2.4,0.8s0.9,1.3,0.9,2.4
				C979.8,505.2,979.5,506,978.9,506.5z M977.3,502.9c-0.3-0.2-0.6-0.3-1.1-0.3h-1.9v3h1.9c0.5,0,0.9-0.1,1.1-0.4
				c0.3-0.2,0.4-0.6,0.4-1.1C977.7,503.5,977.6,503.1,977.3,502.9z"/>
			<path class="st3" d="M987.5,510c-0.6,0.8-1.6,1.2-2.9,1.2s-2.2-0.4-2.9-1.2s-0.9-1.7-0.9-2.8c0-1.1,0.3-2,0.9-2.8
				c0.6-0.8,1.6-1.2,2.9-1.2s2.2,0.4,2.9,1.2c0.6,0.8,0.9,1.7,0.9,2.8C988.5,508.2,988.2,509.2,987.5,510z M986,508.9
				c0.3-0.4,0.5-1,0.5-1.7c0-0.7-0.2-1.3-0.5-1.7s-0.7-0.6-1.3-0.6s-1,0.2-1.3,0.6c-0.3,0.4-0.5,1-0.5,1.7c0,0.7,0.2,1.3,0.5,1.7
				c0.3,0.4,0.7,0.6,1.3,0.6S985.7,509.3,986,508.9z"/>
			<path class="st3" d="M993.8,503.5c0.4,0.2,0.6,0.5,0.9,0.8v-3.6h2v10.1h-1.9v-1c-0.3,0.4-0.6,0.8-1,1c-0.4,0.2-0.8,0.3-1.3,0.3
				c-0.9,0-1.6-0.4-2.2-1.1c-0.6-0.7-0.9-1.6-0.9-2.7c0-1.3,0.3-2.3,0.9-3c0.6-0.7,1.4-1.1,2.3-1.1
				C993.1,503.2,993.5,503.3,993.8,503.5z M994.3,508.8c0.3-0.4,0.4-0.9,0.4-1.6c0-0.9-0.2-1.6-0.7-2c-0.3-0.2-0.6-0.4-1-0.4
				c-0.6,0-1,0.2-1.3,0.6c-0.3,0.4-0.4,1-0.4,1.6c0,0.7,0.1,1.2,0.4,1.7c0.3,0.4,0.7,0.6,1.2,0.6S994,509.3,994.3,508.8z"/>
		</g>
	</g>
	<path class="st6" d="M1182.3,538L1182.3,538c-17.1,0-31-13.9-31-31v0c0-17.1,13.9-31,31-31l0,0c17.1,0,31,13.9,31,31v0
		C1213.3,524.1,1199.4,538,1182.3,538z"/>
	<g>
		<g>
			<path class="st3" d="M1176.9,506.5c-0.6,0.5-1.4,0.7-2.5,0.7h-2.1v3.6h-2.1v-10.1h4.3c1,0,1.8,0.3,2.4,0.8s0.9,1.3,0.9,2.4
				C1177.8,505.2,1177.5,506,1176.9,506.5z M1175.3,502.9c-0.3-0.2-0.6-0.3-1.1-0.3h-1.9v3h1.9c0.5,0,0.9-0.1,1.1-0.4
				c0.3-0.2,0.4-0.6,0.4-1.1C1175.7,503.5,1175.6,503.1,1175.3,502.9z"/>
			<path class="st3" d="M1185.5,510c-0.6,0.8-1.6,1.2-2.9,1.2s-2.2-0.4-2.9-1.2s-0.9-1.7-0.9-2.8c0-1.1,0.3-2,0.9-2.8
				c0.6-0.8,1.6-1.2,2.9-1.2s2.2,0.4,2.9,1.2c0.6,0.8,0.9,1.7,0.9,2.8C1186.5,508.2,1186.2,509.2,1185.5,510z M1184,508.9
				c0.3-0.4,0.5-1,0.5-1.7c0-0.7-0.2-1.3-0.5-1.7s-0.7-0.6-1.3-0.6s-1,0.2-1.3,0.6c-0.3,0.4-0.5,1-0.5,1.7c0,0.7,0.2,1.3,0.5,1.7
				c0.3,0.4,0.7,0.6,1.3,0.6S1183.7,509.3,1184,508.9z"/>
			<path class="st3" d="M1191.8,503.5c0.4,0.2,0.6,0.5,0.9,0.8v-3.6h2v10.1h-1.9v-1c-0.3,0.4-0.6,0.8-1,1c-0.4,0.2-0.8,0.3-1.3,0.3
				c-0.9,0-1.6-0.4-2.2-1.1c-0.6-0.7-0.9-1.6-0.9-2.7c0-1.3,0.3-2.3,0.9-3c0.6-0.7,1.4-1.1,2.3-1.1
				C1191.1,503.2,1191.5,503.3,1191.8,503.5z M1192.3,508.8c0.3-0.4,0.4-0.9,0.4-1.6c0-0.9-0.2-1.6-0.7-2c-0.3-0.2-0.6-0.4-1-0.4
				c-0.6,0-1,0.2-1.3,0.6c-0.3,0.4-0.4,1-0.4,1.6c0,0.7,0.1,1.2,0.4,1.7c0.3,0.4,0.7,0.6,1.2,0.6S1192,509.3,1192.3,508.8z"/>
		</g>
	</g>
	<rect x="916.3" y="206" class="st6" width="136" height="62"/>
	<g>
		<g>
			<path class="st3" d="M959.8,230.8h2.1v4.2l3.9-4.2h2.7l-4.1,4.1l4.3,5.9H966l-3.1-4.4l-1,1v3.4h-2.1V230.8z"/>
			<path class="st3" d="M971.7,233.4v4.5c0,0.4,0,0.7,0.1,1c0.2,0.4,0.5,0.6,1,0.6c0.7,0,1.1-0.3,1.4-0.8c0.1-0.3,0.2-0.7,0.2-1.2
				v-4.1h2v7.5h-1.9v-1.1c0,0-0.1,0.1-0.1,0.2c-0.1,0.1-0.2,0.2-0.3,0.3c-0.3,0.3-0.6,0.5-0.9,0.6s-0.6,0.2-1,0.2
				c-1.1,0-1.8-0.4-2.2-1.2c-0.2-0.4-0.3-1.1-0.3-1.9v-4.5H971.7z"/>
			<path class="st3" d="M984.6,234.3c0.6,0.7,0.8,1.6,0.8,2.7c0,1.2-0.3,2.1-0.8,2.9c-0.5,0.8-1.3,1.1-2.3,1.1
				c-0.6,0-1.1-0.1-1.5-0.4c-0.2-0.1-0.5-0.4-0.7-0.8v0.9h-1.9v-10.1h1.9v3.6c0.2-0.3,0.5-0.6,0.8-0.8c0.4-0.2,0.8-0.3,1.3-0.3
				C983.3,233.3,984.1,233.6,984.6,234.3z M983,238.9c0.3-0.4,0.4-0.9,0.4-1.6c0-0.5-0.1-1-0.2-1.3c-0.3-0.7-0.7-1-1.4-1
				c-0.7,0-1.2,0.3-1.5,1c-0.1,0.3-0.2,0.8-0.2,1.3c0,0.6,0.1,1.2,0.4,1.6c0.3,0.4,0.7,0.6,1.3,0.6
				C982.3,239.5,982.7,239.3,983,238.9z"/>
			<path class="st3" d="M991.7,233.6c0.5,0.2,0.9,0.6,1.3,1.1c0.3,0.4,0.5,1,0.6,1.5c0.1,0.3,0.1,0.8,0.1,1.5h-5.4
				c0,0.7,0.3,1.3,0.8,1.6c0.3,0.2,0.7,0.3,1.1,0.3c0.4,0,0.8-0.1,1.1-0.3c0.2-0.1,0.3-0.3,0.4-0.5h2c-0.1,0.4-0.3,0.9-0.7,1.3
				c-0.7,0.7-1.6,1.1-2.8,1.1c-1,0-1.9-0.3-2.6-0.9c-0.8-0.6-1.1-1.6-1.1-3c0-1.3,0.3-2.3,1-3c0.7-0.7,1.6-1,2.7-1
				C990.6,233.2,991.2,233.3,991.7,233.6z M988.8,235.3c-0.3,0.3-0.4,0.7-0.5,1.2h3.4c0-0.5-0.2-0.9-0.5-1.2
				c-0.3-0.3-0.7-0.4-1.2-0.4C989.4,234.8,989,235,988.8,235.3z"/>
			<path class="st3" d="M996.6,240.9h-1.9v-10.1h1.9V240.9z"/>
			<path class="st3" d="M1003.4,233.6c0.5,0.2,0.9,0.6,1.3,1.1c0.3,0.4,0.5,1,0.6,1.5c0.1,0.3,0.1,0.8,0.1,1.5h-5.4
				c0,0.7,0.3,1.3,0.8,1.6c0.3,0.2,0.7,0.3,1.1,0.3c0.4,0,0.8-0.1,1.1-0.3c0.2-0.1,0.3-0.3,0.4-0.5h2c-0.1,0.4-0.3,0.9-0.7,1.3
				c-0.7,0.7-1.6,1.1-2.8,1.1c-1,0-1.9-0.3-2.6-0.9c-0.8-0.6-1.1-1.6-1.1-3c0-1.3,0.3-2.3,1-3c0.7-0.7,1.6-1,2.7-1
				C1002.3,233.2,1002.8,233.3,1003.4,233.6z M1000.4,235.3c-0.3,0.3-0.4,0.7-0.5,1.2h3.4c0-0.5-0.2-0.9-0.5-1.2
				c-0.3-0.3-0.7-0.4-1.2-0.4C1001.1,234.8,1000.7,235,1000.4,235.3z"/>
			<path class="st3" d="M1005.5,234.9v-1.4h1v-2.1h1.9v2.1h1.2v1.4h-1.2v3.9c0,0.3,0,0.5,0.1,0.6c0.1,0.1,0.3,0.1,0.7,0.1
				c0.1,0,0.1,0,0.2,0c0.1,0,0.1,0,0.2,0v1.5l-0.9,0c-0.9,0-1.5-0.1-1.9-0.5c-0.2-0.2-0.3-0.6-0.3-1v-4.6H1005.5z"/>
		</g>
	</g>
	<g>
		<g>
			<path class="st6" d="M979.5,303.8l-0.1-1.2c-1.3,0.8-5.8-1-5.1-4.7c-2.5,0.5-4-1.6-3.4-4c0.5-2,0.7-3.2,0.1-6.8
				c-0.8-4.4-2.2-9.5,0.9-14.8c0.3-0.5,0-1-0.3-1.1c-0.6-0.3-2.3-0.1-2.3-1.5v-5.3c0-1.9,2.8-3.4,11.7-3.4c9.2,0,12.8,0.1,12.9,4
				c0,3.7,0,4.8,0,4.8c0,1.2-0.8,1.4-1.3,1.6c-0.3,0.1-0.4,0.6-0.3,0.9c0.2,0.5,2.3,5.2,2.7,9.3c0.4,3.8,1.6,5.3,1.2,7.8
				c-0.5,3-0.1,12.8-0.1,15.7c0,2.9-0.9,7.5-0.7,13.6c0.1,5.8-6.6,5.9-6.3,0.6c0.2-4.1-0.3-4.3-0.1-5.7c0.3-2.5,0-5.3-0.1-7.2
				c-0.1-0.9,0.2-1.9-0.1-4.5c-0.3,1.4-0.7,1.5-1.7,3.5C985.5,308.3,979.7,306.6,979.5,303.8z"/>
			<path class="st3" d="M981.9,268.6c-3.7-0.1-10,0.6-10.6,0.8c-0.5,0.2-0.9-0.2-0.8-1c0-0.6,0-3.4,0-3.4c0-1.3,1.3-2.8,11.1-2.8
				c10.2,0.1,11.5,0.5,11.5,3.5l-0.1,3.7c0,0.2-0.2,0.4-0.4,0.5C992,270.1,991.2,268.8,981.9,268.6z"/>
			<path class="st3" d="M980.9,277.3c-0.2-0.2-0.4-0.2-0.6-0.1c-0.7,0.3-0.2,1.1-0.1,1.7c0,0.5,0.5,3.1-0.1,4
				c-0.6,1-1.8,2.8-4.4,3.5c-0.5,0.1-1.9,0.9-2.3,2.1c-0.3,0.9-1.2,0.7-1.2,0c-0.2-2-1-2.6-1-8.8c0.3-4.9,1.2-9.6,7.8-9.9
				c3.6-0.1,8.7,0.1,10.5,0.6c1.9,0.5,1.8,2,2.5,3.4c2.4,5.5,2.2,9.2,2.9,12.2c0.3,1.2,0.7,2.1-0.3,3.6c-2.3,3.3-3.1,7.2-3.7,8.1
				c-0.4,0.7-0.6,0.8-0.9,1c-0.4,0.2-0.4,0.9-0.9,1.4c-0.3,0.4-0.4,0.5-0.6,1c-0.7-0.5,0.1-1-1.5-1.8c-0.3-0.2-1,0-1.2,0.1
				c-0.6,0.4-0.7,1.7-0.8,2.2c-0.1,0.4-0.2,0.9-0.2,1.4c-0.2,1.3,1.1,1.6,0.6,1.7c-2.3,0.2-1.8-2.9-1.7-3.9c0.1-1,0.6-1.9,0.9-2.9
				c0.3-0.4,0.4-2.8,2.1-2.8c0.3,0,0.9,0,0.6-0.7c-0.2-0.6-0.2-3.2,0.6-3.6c0.3-0.2,0.6-0.4,0.7-0.7c0.2-0.4-0.1-0.6-0.5-0.5
				c-0.5,0.1-1.3,0-1.5-0.7c-0.2-0.7-0.2-1,0.1-1.5c0.3-0.5,0.9-1.5,0.9-1.9c-0.1-0.4-0.4-0.6-0.8,0.2c-0.4,0.8-1.6,1.7-3,0.4
				c-2.1-1.9-2.2-1.3-2.5-8C981.2,277.6,981.1,277.4,980.9,277.3z"/>
			<path class="st3" d="M980.8,288.3c1.1-0.9,1.5-1.6,2.6-0.7c0.2,0.1,0.2,0.4,0,1.2c-0.1,0.4-1.9,1.9-3.1,0.6
				C980.2,289.1,980.1,288.8,980.8,288.3z"/>
			<path class="st3" d="M977.3,286.9c-0.2-0.5,2.3-1.4,2.5-1.4c0.2,0.1,0.5,0.1,0.6,1.2c0,0.5-1,1.4-2,1.3
				C977.6,287.9,977.3,287,977.3,286.9z"/>
			<path class="st3" d="M983.6,291.3c0.5-0.5,1.5-1.5,2-1.2c0.6,0.4,0.9,0.8,0.5,1.9c-0.3,0.7-1.5,2.1-2.9,0.6
				C983,292.2,982.9,292,983.6,291.3z"/>
			<path class="st3" d="M974.4,297c-3.2,0.8-3-2.8-2.1-4.2c1.4-2.3,1.7-4.3,2.6-5.1c0.5-0.4,1.8-1.1,1.9-0.4
				c0.1,0.6,0.5,1.1,0.8,1.4c0.1,0.1,1-0.1,1,0.1c0,0.1-1-0.1-2,2.1c-0.4,1-1.3,3-1.4,3.7c-0.1,0.6-0.4,1.1-0.5,2.1
				C974.5,296.9,974.4,296.9,974.4,297z"/>
			<path class="st3" d="M979.5,301.3c0.1-2.4,0-3.4,0-4c-0.3-3,0.8-4.3,1.7-5c0.6-0.6,1.1-0.8,1.4-1.3c0.3-0.4,1-0.8-0.1-0.5
				c-0.5,0.1-0.8,0.5-1.7,0.2c-0.5-0.3-0.8-0.4-1.4-1.3c0-0.1-0.1-0.2-0.1-0.1c-0.2,0.3-1.8,0.5-2.5,3.1c-0.9,3.3-1.7,4.8-1.8,5.5
				c0,0.1,0,0.3,0,0.5c0.1,1,0.2,1.4,0.5,1.7c0.3,0.3,1.7,2,3.5,1.6C979.3,301.5,979.5,301.4,979.5,301.3z"/>
			<path class="st3" d="M985.1,305.8c0,0.2-3.6,0.6-4.5-1.9c-0.5-1.2-0.1-1.9-0.2-3.1c0.1-2.1,0-3.8,0-4.7c0-1.3,0.3-2.3,1-2.9
				c0.4-0.3,1-1.1,1.2-0.6c0.2,0.5,0.3,0.8,1.1,1.3c1.1,0.6,1.8-0.2,1.5,0.5c-0.3,0.6-0.3,0.6-0.7,1.2c-1.7,2.4-3.5,10,0.3,9.8
				C985,305.4,985.3,305.7,985.1,305.8z"/>
			<path class="st3" d="M987.7,301.9c0,0.4-0.3,0.8-0.4,1.1c-0.2,0.5-0.5,2.2-1.5,1.4c-1-0.8-0.1-3.1,0.1-3.9
				c0.1-0.3,0.4-0.5,0.7-0.5C987,300,987.7,300.2,987.7,301.9z"/>
			<path class="st3" d="M994.3,314.7c0-1.9,1-6.2,0.5-8.5c0.5-2.8,0-7.6,0.1-9.2c0-1.4,0.3-4.4,0-6.5c-0.2,0.6-1.9,2.8-2.8,6.2
				c-0.3,1.2-0.8,2.1-2.1,3.1c-0.4,2.4-0.6,5.9-0.2,6.1c0.2,0.1,0.4,0.1,0.3,0.6c-0.1,0.4-0.2,0.2-0.2,0.9c-0.1,3.8,0,5.8,0,5.8
				c0.1,0.8,0.4,0.6,0.4,0.9c0.1,0.3-0.2,0.1-0.3,1c0,0.5-0.2,1.7-0.2,5c-0.1,3,4.4,3.7,4.6-1.4
				C994.5,315.1,994.2,315.2,994.3,314.7z"/>
		</g>
	</g>
	<rect x="35.3" y="126" class="st6" width="136" height="62"/>
	<g>
		<path class="st3" d="M83.4,159.8c0.1,0.5,0.2,0.8,0.4,1c0.3,0.4,0.9,0.6,1.8,0.6c0.5,0,0.9-0.1,1.2-0.2c0.6-0.2,0.9-0.6,0.9-1.2
			c0-0.3-0.1-0.6-0.4-0.8c-0.3-0.2-0.8-0.3-1.4-0.5l-1.1-0.2c-1.1-0.2-1.8-0.5-2.2-0.8c-0.7-0.5-1-1.2-1-2.2c0-0.9,0.3-1.7,1-2.2
			c0.7-0.6,1.6-0.9,2.9-0.9c1.1,0,2,0.3,2.8,0.8c0.8,0.6,1.2,1.4,1.2,2.5h-2c0-0.6-0.3-1-0.8-1.3c-0.3-0.2-0.8-0.3-1.3-0.3
			c-0.6,0-1,0.1-1.3,0.3c-0.3,0.2-0.5,0.5-0.5,0.9c0,0.4,0.2,0.6,0.5,0.8c0.2,0.1,0.7,0.3,1.3,0.4l1.8,0.4c0.8,0.2,1.4,0.4,1.7,0.7
			c0.6,0.5,0.9,1.2,0.9,2.1c0,0.9-0.4,1.7-1.1,2.3c-0.7,0.6-1.7,0.9-3,0.9c-1.3,0-2.4-0.3-3.1-0.9c-0.8-0.6-1.1-1.4-1.1-2.5H83.4z"
			/>
		<path class="st3" d="M100.2,159.9c-0.2,0.6-0.4,1.1-0.8,1.4l1.2,1.1l-1.1,1.1l-1.2-1.1c-0.4,0.2-0.7,0.4-1,0.5
			c-0.5,0.2-1,0.2-1.6,0.2c-1.3,0-2.4-0.4-3.3-1.2c-1-0.9-1.6-2.3-1.6-4.2c0-1.8,0.5-3.2,1.6-4.2c0.9-0.8,2-1.2,3.2-1.2
			c1.3,0,2.4,0.4,3.3,1.2c1,0.9,1.5,2.3,1.5,4C100.5,158.6,100.4,159.3,100.2,159.9z M96.3,161.3c0.1,0,0.3-0.1,0.5-0.2l-1-1
			l1.1-1.1l1,1c0.2-0.3,0.3-0.6,0.3-0.9c0.1-0.4,0.2-0.8,0.2-1.3c0-1.1-0.2-2-0.7-2.6c-0.5-0.6-1.1-0.9-2-0.9c-0.8,0-1.5,0.3-2,0.9
			s-0.7,1.5-0.7,2.7c0,1.4,0.4,2.4,1.1,3c0.5,0.4,1,0.6,1.7,0.6C95.9,161.4,96.1,161.3,96.3,161.3z"/>
		<path class="st3" d="M102.1,152.8h2.1v8.3h5v1.8h-7.1V152.8z"/>
		<path class="st3" d="M112.5,154.5h-2v-1.8h2V154.5z M110.5,155.4h2v7.5h-2V155.4z"/>
		<path class="st3" d="M113.6,156.9v-1.4h1v-2.1h1.9v2.1h1.2v1.4h-1.2v3.9c0,0.3,0,0.5,0.1,0.6c0.1,0.1,0.3,0.1,0.7,0.1
			c0.1,0,0.1,0,0.2,0c0.1,0,0.1,0,0.2,0v1.5l-0.9,0c-0.9,0-1.5-0.1-1.9-0.5c-0.2-0.2-0.3-0.6-0.3-1v-4.6H113.6z"/>
		<path class="st3" d="M123.9,155.6c0.5,0.2,0.9,0.6,1.3,1.1c0.3,0.4,0.5,1,0.6,1.5c0.1,0.3,0.1,0.8,0.1,1.5h-5.4
			c0,0.7,0.3,1.3,0.8,1.6c0.3,0.2,0.7,0.3,1.1,0.3c0.4,0,0.8-0.1,1.1-0.3c0.2-0.1,0.3-0.3,0.4-0.5h2c-0.1,0.4-0.3,0.9-0.7,1.3
			c-0.7,0.7-1.6,1.1-2.8,1.1c-1,0-1.9-0.3-2.6-0.9c-0.8-0.6-1.1-1.6-1.1-3c0-1.3,0.3-2.3,1-3c0.7-0.7,1.6-1,2.7-1
			C122.8,155.2,123.4,155.3,123.9,155.6z M121,157.3c-0.3,0.3-0.4,0.7-0.5,1.2h3.4c0-0.5-0.2-0.9-0.5-1.2c-0.3-0.3-0.7-0.4-1.2-0.4
			C121.7,156.8,121.3,157,121,157.3z"/>
	</g>
	<rect x="232.3" y="126" class="st6" width="136" height="62"/>
	<g>
		<path class="st3" d="M268.9,152.8h2.4l3.6,10.1h-2.3l-0.7-2.1h-3.7l-0.7,2.1h-2.2L268.9,152.8z M268.8,159.1h2.6l-1.3-4
			L268.8,159.1z"/>
		<path class="st3" d="M282.9,158.5c-0.6,0.5-1.4,0.7-2.5,0.7h-2.1v3.6h-2.1v-10.1h4.3c1,0,1.8,0.3,2.4,0.8s0.9,1.3,0.9,2.4
			C283.8,157.2,283.5,158,282.9,158.5z M281.3,154.9c-0.3-0.2-0.6-0.3-1.1-0.3h-1.9v3h1.9c0.5,0,0.9-0.1,1.1-0.4s0.4-0.6,0.4-1.1
			S281.6,155.1,281.3,154.9z"/>
		<path class="st3" d="M287.4,162.9h-2.1v-10.1h2.1V162.9z"/>
		<path class="st3" d="M294.8,159.8c0.1,0.5,0.2,0.8,0.4,1c0.3,0.4,0.9,0.6,1.8,0.6c0.5,0,0.9-0.1,1.2-0.2c0.6-0.2,0.9-0.6,0.9-1.2
			c0-0.3-0.1-0.6-0.4-0.8c-0.3-0.2-0.8-0.3-1.4-0.5l-1.1-0.2c-1.1-0.2-1.8-0.5-2.2-0.8c-0.7-0.5-1-1.2-1-2.2c0-0.9,0.3-1.7,1-2.2
			c0.7-0.6,1.6-0.9,2.9-0.9c1.1,0,2,0.3,2.8,0.8c0.8,0.6,1.2,1.4,1.2,2.5h-2c0-0.6-0.3-1-0.8-1.3c-0.3-0.2-0.8-0.3-1.3-0.3
			c-0.6,0-1,0.1-1.3,0.3c-0.3,0.2-0.5,0.5-0.5,0.9c0,0.4,0.2,0.6,0.5,0.8c0.2,0.1,0.7,0.3,1.3,0.4l1.8,0.4c0.8,0.2,1.4,0.4,1.7,0.7
			c0.6,0.5,0.9,1.2,0.9,2.1c0,0.9-0.4,1.7-1.1,2.3c-0.7,0.6-1.7,0.9-3,0.9c-1.3,0-2.4-0.3-3.1-0.9c-0.8-0.6-1.1-1.4-1.1-2.5H294.8z"
			/>
		<path class="st3" d="M307.3,155.6c0.5,0.2,0.9,0.6,1.3,1.1c0.3,0.4,0.5,1,0.6,1.5c0.1,0.3,0.1,0.8,0.1,1.5h-5.4
			c0,0.7,0.3,1.3,0.8,1.6c0.3,0.2,0.7,0.3,1.1,0.3c0.4,0,0.8-0.1,1.1-0.3c0.2-0.1,0.3-0.3,0.4-0.5h2c-0.1,0.4-0.3,0.9-0.7,1.3
			c-0.7,0.7-1.6,1.1-2.8,1.1c-1,0-1.9-0.3-2.6-0.9c-0.8-0.6-1.1-1.6-1.1-3c0-1.3,0.3-2.3,1-3c0.7-0.7,1.6-1,2.7-1
			C306.2,155.2,306.8,155.3,307.3,155.6z M304.4,157.3c-0.3,0.3-0.4,0.7-0.5,1.2h3.4c0-0.5-0.2-0.9-0.5-1.2
			c-0.3-0.3-0.7-0.4-1.2-0.4C305,156.8,304.6,157,304.4,157.3z"/>
		<path class="st3" d="M314.4,155.2c0,0,0.1,0,0.2,0v2c-0.1,0-0.2,0-0.3,0s-0.2,0-0.2,0c-0.8,0-1.3,0.3-1.6,0.8
			c-0.2,0.3-0.2,0.7-0.2,1.3v3.6h-2v-7.5h1.9v1.3c0.3-0.5,0.6-0.8,0.8-1C313.2,155.4,313.7,155.2,314.4,155.2
			C314.3,155.2,314.3,155.2,314.4,155.2z"/>
		<path class="st3" d="M320.3,155.4h2.1l-2.7,7.5h-2.1l-2.7-7.5h2.2l1.6,5.5L320.3,155.4z"/>
		<path class="st3" d="M328.3,155.6c0.5,0.2,0.9,0.6,1.3,1.1c0.3,0.4,0.5,1,0.6,1.5c0.1,0.3,0.1,0.8,0.1,1.5h-5.4
			c0,0.7,0.3,1.3,0.8,1.6c0.3,0.2,0.7,0.3,1.1,0.3c0.4,0,0.8-0.1,1.1-0.3c0.2-0.1,0.3-0.3,0.4-0.5h2c-0.1,0.4-0.3,0.9-0.7,1.3
			c-0.7,0.7-1.6,1.1-2.8,1.1c-1,0-1.9-0.3-2.6-0.9c-0.8-0.6-1.1-1.6-1.1-3c0-1.3,0.3-2.3,1-3c0.7-0.7,1.6-1,2.7-1
			C327.2,155.2,327.8,155.3,328.3,155.6z M325.4,157.3c-0.3,0.3-0.4,0.7-0.5,1.2h3.4c0-0.5-0.2-0.9-0.5-1.2
			c-0.3-0.3-0.7-0.4-1.2-0.4C326.1,156.8,325.7,157,325.4,157.3z"/>
		<path class="st3" d="M335.4,155.2c0,0,0.1,0,0.2,0v2c-0.1,0-0.2,0-0.3,0s-0.2,0-0.2,0c-0.8,0-1.3,0.3-1.6,0.8
			c-0.2,0.3-0.2,0.7-0.2,1.3v3.6h-2v-7.5h1.9v1.3c0.3-0.5,0.6-0.8,0.8-1C334.2,155.4,334.7,155.2,335.4,155.2
			C335.3,155.2,335.4,155.2,335.4,155.2z"/>
	</g>
	<g>
		<rect x="234.8" y="2.5" class="st3" width="131" height="57"/>
		<path class="st6" d="M363.3,5v52h-126V5H363.3 M368.3,0h-136v62h136V0L368.3,0z"/>
	</g>
	<g>
		<path class="st6" d="M256,24.8h2.5v7l3.2-3.6h3.1l-3.4,3.6l3.6,6h-3l-2.3-4.1l-1,1.1v3H256V24.8z"/>
		<path class="st6" d="M267.8,33.8c0,0.5,0.1,0.9,0.2,1.3c0.3,0.6,0.9,0.9,1.7,0.9c0.5,0,0.9-0.2,1.3-0.5c0.4-0.3,0.5-0.8,0.5-1.5
			c0-0.8-0.3-1.4-1-1.7c-0.4-0.2-1-0.2-1.8-0.2v-1.8c0.8,0,1.4-0.1,1.7-0.2c0.6-0.2,0.8-0.7,0.8-1.5c0-0.5-0.1-0.9-0.4-1.2
			c-0.3-0.3-0.7-0.5-1.2-0.5c-0.6,0-1,0.2-1.3,0.6c-0.3,0.4-0.4,0.9-0.4,1.5h-2.3c0-0.6,0.1-1.2,0.3-1.8c0.2-0.5,0.5-1,1-1.4
			c0.3-0.3,0.7-0.5,1.2-0.7c0.5-0.2,1-0.2,1.7-0.2c1.2,0,2.2,0.3,2.9,0.9c0.7,0.6,1.1,1.5,1.1,2.5c0,0.8-0.2,1.4-0.7,1.9
			c-0.3,0.3-0.6,0.5-0.9,0.7c0.2,0,0.6,0.2,1,0.6c0.6,0.6,1,1.4,1,2.4c0,1.1-0.4,2-1.1,2.8c-0.7,0.8-1.9,1.2-3.3,1.2
			c-1.8,0-3.1-0.6-3.8-1.8c-0.4-0.6-0.6-1.4-0.6-2.5H267.8z"/>
		<path class="st6" d="M278,34.7c0.1,0.4,0.2,0.8,0.3,0.9c0.3,0.3,0.9,0.5,1.7,0.5c0.5,0,0.9-0.1,1.2-0.2c0.3-0.1,0.4-0.4,0.4-0.7
			c0-0.3-0.1-0.5-0.4-0.6c-0.2-0.1-1.1-0.4-2.6-0.8c-1.1-0.3-1.9-0.6-2.3-1c-0.4-0.4-0.7-1-0.7-1.7c0-0.9,0.3-1.6,1-2.3
			c0.7-0.6,1.7-1,2.9-1c1.2,0,2.2,0.2,2.9,0.7c0.8,0.5,1.2,1.3,1.3,2.5h-2.5c0-0.3-0.1-0.6-0.3-0.8c-0.3-0.3-0.7-0.5-1.4-0.5
			c-0.5,0-0.9,0.1-1.2,0.3c-0.2,0.2-0.3,0.4-0.3,0.6c0,0.3,0.1,0.5,0.4,0.6c0.2,0.1,1.1,0.4,2.6,0.7c1,0.2,1.7,0.6,2.2,1.1
			c0.5,0.5,0.7,1.1,0.7,1.8c0,0.9-0.4,1.7-1.1,2.3c-0.7,0.6-1.8,0.9-3.3,0.9c-1.5,0-2.6-0.3-3.3-1c-0.7-0.6-1.1-1.4-1.1-2.4H278z"/>
		<path class="st6" d="M293.2,33.7c0.1,0.6,0.2,1,0.5,1.3c0.4,0.5,1.2,0.8,2.3,0.8c0.7,0,1.2-0.1,1.6-0.2c0.8-0.3,1.2-0.8,1.2-1.5
			c0-0.4-0.2-0.8-0.6-1c-0.4-0.2-1-0.4-1.8-0.6l-1.4-0.3c-1.4-0.3-2.3-0.6-2.8-1c-0.9-0.6-1.3-1.5-1.3-2.8c0-1.2,0.4-2.1,1.3-2.9
			s2.1-1.2,3.8-1.2c1.4,0,2.6,0.4,3.5,1.1c1,0.7,1.5,1.8,1.5,3.2h-2.6c0-0.8-0.4-1.3-1-1.7c-0.4-0.2-1-0.3-1.6-0.3
			c-0.7,0-1.3,0.1-1.7,0.4s-0.6,0.7-0.6,1.2c0,0.5,0.2,0.8,0.6,1c0.3,0.2,0.8,0.3,1.7,0.5l2.3,0.5c1,0.2,1.7,0.5,2.2,0.9
			c0.8,0.6,1.2,1.5,1.2,2.6c0,1.2-0.5,2.2-1.4,2.9c-0.9,0.8-2.2,1.2-3.9,1.2c-1.7,0-3-0.4-4-1.2c-1-0.8-1.5-1.8-1.5-3.2H293.2z"/>
		<path class="st6" d="M309.3,28.4c0.7,0.3,1.2,0.8,1.7,1.4c0.4,0.6,0.6,1.2,0.8,2c0.1,0.4,0.1,1.1,0.1,1.9h-7c0,1,0.4,1.6,1,2
			c0.4,0.2,0.8,0.4,1.4,0.4c0.6,0,1-0.1,1.4-0.4c0.2-0.2,0.4-0.4,0.5-0.7h2.6c-0.1,0.6-0.4,1.1-0.9,1.7c-0.9,0.9-2.1,1.4-3.6,1.4
			c-1.3,0-2.4-0.4-3.4-1.2s-1.5-2.1-1.5-3.8c0-1.7,0.4-2.9,1.3-3.8c0.9-0.9,2-1.3,3.4-1.3C307.9,27.9,308.6,28.1,309.3,28.4z
			 M305.5,30.5c-0.4,0.4-0.6,0.9-0.7,1.5h4.3c0-0.7-0.3-1.2-0.7-1.5S307.6,30,307,30C306.4,30,305.9,30.2,305.5,30.5z"/>
		<path class="st6" d="M318.4,27.9c0,0,0.1,0,0.2,0v2.6c-0.2,0-0.3,0-0.4,0s-0.2,0-0.3,0c-1,0-1.7,0.3-2,1c-0.2,0.4-0.3,0.9-0.3,1.7
			v4.6H313v-9.6h2.4v1.7c0.4-0.6,0.7-1.1,1-1.3c0.5-0.4,1.1-0.6,1.8-0.6C318.3,27.9,318.3,27.9,318.4,27.9z"/>
		<path class="st6" d="M326,28.2h2.7l-3.5,9.6h-2.6l-3.4-9.6h2.8l2,7.1L326,28.2z"/>
		<path class="st6" d="M336.3,28.4c0.7,0.3,1.2,0.8,1.7,1.4c0.4,0.6,0.6,1.2,0.8,2c0.1,0.4,0.1,1.1,0.1,1.9h-7c0,1,0.4,1.6,1,2
			c0.4,0.2,0.8,0.4,1.4,0.4c0.6,0,1-0.1,1.4-0.4c0.2-0.2,0.4-0.4,0.5-0.7h2.6c-0.1,0.6-0.4,1.1-0.9,1.7c-0.9,0.9-2.1,1.4-3.6,1.4
			c-1.3,0-2.4-0.4-3.4-1.2s-1.5-2.1-1.5-3.8c0-1.7,0.4-2.9,1.3-3.8c0.9-0.9,2-1.3,3.4-1.3C334.9,27.9,335.6,28.1,336.3,28.4z
			 M332.6,30.5c-0.4,0.4-0.6,0.9-0.7,1.5h4.3c0-0.7-0.3-1.2-0.7-1.5s-0.9-0.5-1.5-0.5C333.4,30,332.9,30.2,332.6,30.5z"/>
		<path class="st6" d="M345.4,27.9c0,0,0.1,0,0.2,0v2.6c-0.2,0-0.3,0-0.4,0s-0.2,0-0.3,0c-1,0-1.7,0.3-2,1c-0.2,0.4-0.3,0.9-0.3,1.7
			v4.6H340v-9.6h2.4v1.7c0.4-0.6,0.7-1.1,1-1.3c0.5-0.4,1.1-0.6,1.8-0.6C345.3,27.9,345.4,27.9,345.4,27.9z"/>
	</g>
	<rect x="430.3" y="126" class="st6" width="136" height="62"/>
	<g>
		<path class="st3" d="M462.9,152.8v1.8h-3v8.3h-2.1v-8.3h-3v-1.8H462.9z"/>
		<path class="st3" d="M464.9,155.4v4.5c0,0.4,0,0.7,0.1,1c0.2,0.4,0.5,0.6,1,0.6c0.7,0,1.1-0.3,1.4-0.8c0.1-0.3,0.2-0.7,0.2-1.2
			v-4.1h2v7.5h-1.9v-1.1c0,0-0.1,0.1-0.1,0.2c-0.1,0.1-0.2,0.2-0.3,0.3c-0.3,0.3-0.6,0.5-0.9,0.6s-0.6,0.2-1,0.2
			c-1.1,0-1.8-0.4-2.2-1.2c-0.2-0.4-0.3-1.1-0.3-1.9v-4.5H464.9z"/>
		<path class="st3" d="M477.5,155.8c0.5,0.4,0.7,1.1,0.7,2v5h-2v-4.5c0-0.4-0.1-0.7-0.2-0.9c-0.2-0.4-0.6-0.6-1.1-0.6
			c-0.7,0-1.1,0.3-1.3,0.8c-0.1,0.3-0.2,0.7-0.2,1.1v4h-1.9v-7.4h1.9v1.1c0.2-0.4,0.5-0.7,0.7-0.8c0.4-0.3,0.9-0.5,1.5-0.5
			C476.4,155.2,477,155.4,477.5,155.8z"/>
		<path class="st3" d="M486.1,155.8c0.5,0.4,0.7,1.1,0.7,2v5h-2v-4.5c0-0.4-0.1-0.7-0.2-0.9c-0.2-0.4-0.6-0.6-1.1-0.6
			c-0.7,0-1.1,0.3-1.3,0.8c-0.1,0.3-0.2,0.7-0.2,1.1v4h-1.9v-7.4h1.9v1.1c0.2-0.4,0.5-0.7,0.7-0.8c0.4-0.3,0.9-0.5,1.5-0.5
			C485,155.2,485.6,155.4,486.1,155.8z"/>
		<path class="st3" d="M493.5,155.6c0.5,0.2,0.9,0.6,1.3,1.1c0.3,0.4,0.5,1,0.6,1.5c0.1,0.3,0.1,0.8,0.1,1.5H490
			c0,0.7,0.3,1.3,0.8,1.6c0.3,0.2,0.7,0.3,1.1,0.3c0.4,0,0.8-0.1,1.1-0.3c0.2-0.1,0.3-0.3,0.4-0.5h2c-0.1,0.4-0.3,0.9-0.7,1.3
			c-0.7,0.7-1.6,1.1-2.8,1.1c-1,0-1.9-0.3-2.6-0.9c-0.8-0.6-1.1-1.6-1.1-3c0-1.3,0.3-2.3,1-3c0.7-0.7,1.6-1,2.7-1
			C492.4,155.2,493,155.3,493.5,155.6z M490.6,157.3c-0.3,0.3-0.4,0.7-0.5,1.2h3.4c0-0.5-0.2-0.9-0.5-1.2c-0.3-0.3-0.7-0.4-1.2-0.4
			C491.2,156.8,490.8,157,490.6,157.3z"/>
		<path class="st3" d="M498.4,162.9h-1.9v-10.1h1.9V162.9z"/>
		<path class="st3" d="M511.1,158.5c-0.6,0.5-1.4,0.7-2.5,0.7h-2.1v3.6h-2.1v-10.1h4.3c1,0,1.8,0.3,2.4,0.8s0.9,1.3,0.9,2.4
			C512,157.2,511.7,158,511.1,158.5z M509.5,154.9c-0.3-0.2-0.6-0.3-1.1-0.3h-1.9v3h1.9c0.5,0,0.9-0.1,1.1-0.4s0.4-0.6,0.4-1.1
			S509.8,155.1,509.5,154.9z"/>
		<path class="st3" d="M517.7,155.2c0,0,0.1,0,0.2,0v2c-0.1,0-0.2,0-0.3,0s-0.2,0-0.2,0c-0.8,0-1.3,0.3-1.6,0.8
			c-0.2,0.3-0.2,0.7-0.2,1.3v3.6h-2v-7.5h1.9v1.3c0.3-0.5,0.6-0.8,0.8-1C516.5,155.4,517,155.2,517.7,155.2
			C517.6,155.2,517.6,155.2,517.7,155.2z"/>
		<path class="st3" d="M525.2,162c-0.6,0.8-1.6,1.2-2.9,1.2s-2.2-0.4-2.9-1.2c-0.6-0.8-0.9-1.7-0.9-2.8c0-1.1,0.3-2,0.9-2.8
			s1.6-1.2,2.9-1.2s2.2,0.4,2.9,1.2s0.9,1.7,0.9,2.8C526.1,160.2,525.8,161.2,525.2,162z M523.6,160.9c0.3-0.4,0.5-1,0.5-1.7
			c0-0.7-0.2-1.3-0.5-1.7s-0.7-0.6-1.3-0.6s-1,0.2-1.3,0.6c-0.3,0.4-0.5,1-0.5,1.7c0,0.7,0.2,1.3,0.5,1.7c0.3,0.4,0.7,0.6,1.3,0.6
			S523.3,161.3,523.6,160.9z"/>
		<path class="st3" d="M526.8,162.9l2.5-3.8l-2.4-3.7h2.4l1.2,2.2l1.2-2.2h2.3l-2.4,3.6l2.5,3.8h-2.4l-1.3-2.2l-1.3,2.2H526.8z"/>
		<path class="st3" d="M535.6,164.3l0.2,0c0.2,0,0.4,0,0.5,0s0.3-0.1,0.4-0.2c0.1-0.1,0.2-0.2,0.3-0.5c0.1-0.2,0.1-0.4,0.1-0.5
			l-2.7-7.8h2.2l1.6,5.5l1.5-5.5h2.1l-2.6,7.3c-0.5,1.4-0.9,2.3-1.2,2.6c-0.3,0.3-0.9,0.5-1.7,0.5c-0.2,0-0.3,0-0.4,0
			c-0.1,0-0.3,0-0.5,0V164.3z"/>
	</g>
	<g>
		<g>
			<line class="st7" x1="984.3" y1="405" x2="984.3" y2="463.8"/>
			<g>
				<polygon class="st6" points="976.1,457.2 977.6,455.8 984.3,463.1 991,455.8 992.5,457.2 984.3,466 				"/>
			</g>
		</g>
	</g>
	<g>
		<g>
			<polyline class="st7" points="934.3,405 934.3,435 787.3,436 787.3,463.8 			"/>
			<g>
				<polygon class="st6" points="779.1,457.2 780.6,455.8 787.3,463.1 794,455.8 795.5,457.2 787.3,466 				"/>
			</g>
		</g>
	</g>
	<g>
		<g>
			<polyline class="st7" points="1034.3,405 1034.3,435 1182.3,436 1182.3,464.8 			"/>
			<g>
				<polygon class="st6" points="1174.1,458.2 1175.6,456.8 1182.3,464.1 1189,456.8 1190.5,458.2 1182.3,467 				"/>
			</g>
		</g>
	</g>
	<rect x="132.3" y="249" class="st6" width="136" height="62"/>
	<g>
		<path class="st3" d="M169.1,282.8c0.1,0.5,0.2,0.8,0.4,1c0.3,0.4,0.9,0.6,1.8,0.6c0.5,0,0.9-0.1,1.2-0.2c0.6-0.2,0.9-0.6,0.9-1.2
			c0-0.3-0.1-0.6-0.4-0.8c-0.3-0.2-0.8-0.3-1.4-0.5l-1.1-0.2c-1.1-0.2-1.8-0.5-2.2-0.8c-0.7-0.5-1-1.2-1-2.2c0-0.9,0.3-1.7,1-2.2
			c0.7-0.6,1.6-0.9,2.9-0.9c1.1,0,2,0.3,2.8,0.8c0.8,0.6,1.2,1.4,1.2,2.5h-2c0-0.6-0.3-1-0.8-1.3c-0.3-0.2-0.8-0.3-1.3-0.3
			c-0.6,0-1,0.1-1.3,0.3c-0.3,0.2-0.5,0.5-0.5,0.9c0,0.4,0.2,0.6,0.5,0.8c0.2,0.1,0.7,0.3,1.3,0.4l1.8,0.4c0.8,0.2,1.4,0.4,1.7,0.7
			c0.6,0.5,0.9,1.2,0.9,2.1c0,0.9-0.4,1.7-1.1,2.3c-0.7,0.6-1.7,0.9-3,0.9c-1.3,0-2.4-0.3-3.1-0.9c-0.8-0.6-1.1-1.4-1.1-2.5H169.1z"
			/>
		<path class="st3" d="M181.2,281.1c0-0.3-0.1-0.5-0.3-0.8c-0.2-0.3-0.6-0.5-1-0.5c-0.7,0-1.1,0.3-1.4,1c-0.1,0.3-0.2,0.8-0.2,1.4
			c0,0.5,0.1,1,0.2,1.3c0.2,0.6,0.7,0.9,1.3,0.9c0.5,0,0.8-0.1,1-0.4c0.2-0.2,0.3-0.6,0.3-1h2c0,0.6-0.3,1.2-0.6,1.7
			c-0.6,0.9-1.5,1.3-2.7,1.3c-1.2,0-2.1-0.4-2.6-1.1s-0.8-1.6-0.8-2.8c0-1.3,0.3-2.3,0.9-3s1.5-1.1,2.6-1.1c0.9,0,1.7,0.2,2.3,0.6
			c0.6,0.4,0.9,1.2,1.1,2.2H181.2z"/>
		<path class="st3" d="M189.9,278.5c0.4,0.2,0.7,0.4,0.9,0.7c0.2,0.3,0.3,0.6,0.4,0.9c0,0.3,0.1,0.8,0.1,1.4v4.4h-2v-4.5
			c0-0.4-0.1-0.7-0.2-1c-0.2-0.3-0.5-0.5-1-0.5c-0.5,0-0.9,0.2-1.2,0.5c-0.3,0.3-0.4,0.8-0.4,1.5v4h-1.9v-10h1.9v3.6
			c0.3-0.4,0.6-0.7,1-0.9c0.4-0.2,0.8-0.3,1.2-0.3C189.1,278.2,189.5,278.3,189.9,278.5z"/>
		<path class="st3" d="M198,278.6c0.5,0.2,0.9,0.6,1.3,1.1c0.3,0.4,0.5,1,0.6,1.5c0.1,0.3,0.1,0.8,0.1,1.5h-5.4
			c0,0.7,0.3,1.3,0.8,1.6c0.3,0.2,0.7,0.3,1.1,0.3c0.4,0,0.8-0.1,1.1-0.3c0.2-0.1,0.3-0.3,0.4-0.5h2c-0.1,0.4-0.3,0.9-0.7,1.3
			c-0.7,0.7-1.6,1.1-2.8,1.1c-1,0-1.9-0.3-2.6-0.9c-0.8-0.6-1.1-1.6-1.1-3c0-1.3,0.3-2.3,1-3c0.7-0.7,1.6-1,2.7-1
			C196.9,278.2,197.4,278.3,198,278.6z M195.1,280.3c-0.3,0.3-0.4,0.7-0.5,1.2h3.4c0-0.5-0.2-0.9-0.5-1.2c-0.3-0.3-0.7-0.4-1.2-0.4
			C195.7,279.8,195.3,280,195.1,280.3z"/>
		<path class="st3" d="M204.8,278.5c0.4,0.2,0.6,0.5,0.9,0.8v-3.6h2v10.1h-1.9v-1c-0.3,0.4-0.6,0.8-1,1s-0.8,0.3-1.3,0.3
			c-0.9,0-1.6-0.4-2.2-1.1c-0.6-0.7-0.9-1.6-0.9-2.7c0-1.3,0.3-2.3,0.9-3c0.6-0.7,1.4-1.1,2.3-1.1
			C204.1,278.2,204.5,278.3,204.8,278.5z M205.3,283.8c0.3-0.4,0.4-0.9,0.4-1.6c0-0.9-0.2-1.6-0.7-2c-0.3-0.2-0.6-0.4-1-0.4
			c-0.6,0-1,0.2-1.3,0.6c-0.3,0.4-0.4,1-0.4,1.6c0,0.7,0.1,1.2,0.4,1.7c0.3,0.4,0.7,0.6,1.2,0.6S205,284.3,205.3,283.8z"/>
		<path class="st3" d="M211.4,278.4v4.5c0,0.4,0,0.7,0.1,1c0.2,0.4,0.5,0.6,1,0.6c0.7,0,1.1-0.3,1.4-0.8c0.1-0.3,0.2-0.7,0.2-1.2
			v-4.1h2v7.5h-1.9v-1.1c0,0-0.1,0.1-0.1,0.2c-0.1,0.1-0.2,0.2-0.3,0.3c-0.3,0.3-0.6,0.5-0.9,0.6s-0.6,0.2-1,0.2
			c-1.1,0-1.8-0.4-2.2-1.2c-0.2-0.4-0.3-1.1-0.3-1.9v-4.5H211.4z"/>
		<path class="st3" d="M220,285.9H218v-10.1h1.9V285.9z"/>
		<path class="st3" d="M226.7,278.6c0.5,0.2,0.9,0.6,1.3,1.1c0.3,0.4,0.5,1,0.6,1.5c0.1,0.3,0.1,0.8,0.1,1.5h-5.4
			c0,0.7,0.3,1.3,0.8,1.6c0.3,0.2,0.7,0.3,1.1,0.3c0.4,0,0.8-0.1,1.1-0.3c0.2-0.1,0.3-0.3,0.4-0.5h2c-0.1,0.4-0.3,0.9-0.7,1.3
			c-0.7,0.7-1.6,1.1-2.8,1.1c-1,0-1.9-0.3-2.6-0.9c-0.8-0.6-1.1-1.6-1.1-3c0-1.3,0.3-2.3,1-3c0.7-0.7,1.6-1,2.7-1
			C225.6,278.2,226.2,278.3,226.7,278.6z M223.8,280.3c-0.3,0.3-0.4,0.7-0.5,1.2h3.4c0-0.5-0.2-0.9-0.5-1.2
			c-0.3-0.3-0.7-0.4-1.2-0.4C224.5,279.8,224.1,280,223.8,280.3z"/>
		<path class="st3" d="M233.8,278.2c0,0,0.1,0,0.2,0v2c-0.1,0-0.2,0-0.3,0s-0.2,0-0.2,0c-0.8,0-1.3,0.3-1.6,0.8
			c-0.2,0.3-0.2,0.7-0.2,1.3v3.6h-2v-7.5h1.9v1.3c0.3-0.5,0.6-0.8,0.8-1C232.7,278.4,233.1,278.2,233.8,278.2
			C233.8,278.2,233.8,278.2,233.8,278.2z"/>
	</g>
	<rect x="330.3" y="249" class="st6" width="136" height="62"/>
	<g>
		<path class="st3" d="M367,265.8c0.8-0.8,1.8-1.2,3.1-1.2c1.7,0,2.9,0.6,3.7,1.7c0.4,0.6,0.7,1.2,0.7,1.9h-2.1
			c-0.1-0.5-0.3-0.8-0.5-1.1c-0.4-0.4-0.9-0.7-1.7-0.7c-0.8,0-1.3,0.3-1.8,0.9c-0.4,0.6-0.6,1.5-0.6,2.6c0,1.1,0.2,2,0.7,2.5
			s1,0.8,1.7,0.8c0.7,0,1.3-0.2,1.7-0.7c0.2-0.3,0.4-0.6,0.5-1.2h2.1c-0.2,1.1-0.6,2-1.4,2.7c-0.7,0.7-1.7,1-2.9,1
			c-1.4,0-2.6-0.5-3.4-1.4c-0.8-0.9-1.2-2.2-1.2-3.8C365.6,268.1,366,266.8,367,265.8z"/>
		<path class="st3" d="M382.2,273.9c-0.6,0.8-1.6,1.2-2.9,1.2s-2.2-0.4-2.9-1.2s-0.9-1.7-0.9-2.8c0-1.1,0.3-2,0.9-2.8
			c0.6-0.8,1.6-1.2,2.9-1.2s2.2,0.4,2.9,1.2c0.6,0.8,0.9,1.7,0.9,2.8C383.1,272.2,382.8,273.1,382.2,273.9z M380.6,272.8
			c0.3-0.4,0.5-1,0.5-1.7c0-0.7-0.2-1.3-0.5-1.7s-0.7-0.6-1.3-0.6s-1,0.2-1.3,0.6c-0.3,0.4-0.5,1-0.5,1.7c0,0.7,0.2,1.3,0.5,1.7
			c0.3,0.4,0.7,0.6,1.3,0.6S380.3,273.2,380.6,272.8z"/>
		<path class="st3" d="M390.5,267.8c0.5,0.4,0.7,1.1,0.7,2v5h-2v-4.5c0-0.4-0.1-0.7-0.2-0.9c-0.2-0.4-0.6-0.6-1.1-0.6
			c-0.7,0-1.1,0.3-1.3,0.8c-0.1,0.3-0.2,0.7-0.2,1.1v4h-1.9v-7.4h1.9v1.1c0.2-0.4,0.5-0.7,0.7-0.8c0.4-0.3,0.9-0.5,1.5-0.5
			C389.4,267.2,390,267.4,390.5,267.8z"/>
		<path class="st3" d="M392.3,268.8v-1.4h1v-2.1h1.9v2.1h1.2v1.4h-1.2v3.9c0,0.3,0,0.5,0.1,0.6s0.3,0.1,0.7,0.1c0.1,0,0.1,0,0.2,0
			c0.1,0,0.1,0,0.2,0v1.5l-0.9,0c-0.9,0-1.5-0.1-1.9-0.5c-0.2-0.2-0.3-0.6-0.3-1v-4.6H392.3z"/>
		<path class="st3" d="M401.8,267.2c0,0,0.1,0,0.2,0v2c-0.1,0-0.2,0-0.3,0c-0.1,0-0.2,0-0.2,0c-0.8,0-1.3,0.3-1.6,0.8
			c-0.2,0.3-0.2,0.7-0.2,1.3v3.6h-2v-7.5h1.9v1.3c0.3-0.5,0.6-0.8,0.8-1C400.7,267.3,401.2,267.2,401.8,267.2
			C401.8,267.2,401.8,267.2,401.8,267.2z"/>
		<path class="st3" d="M409.4,273.9c-0.6,0.8-1.6,1.2-2.9,1.2s-2.2-0.4-2.9-1.2s-0.9-1.7-0.9-2.8c0-1.1,0.3-2,0.9-2.8
			c0.6-0.8,1.6-1.2,2.9-1.2s2.2,0.4,2.9,1.2c0.6,0.8,0.9,1.7,0.9,2.8C410.3,272.2,410,273.1,409.4,273.9z M407.8,272.8
			c0.3-0.4,0.5-1,0.5-1.7c0-0.7-0.2-1.3-0.5-1.7s-0.7-0.6-1.3-0.6s-1,0.2-1.3,0.6c-0.3,0.4-0.5,1-0.5,1.7c0,0.7,0.2,1.3,0.5,1.7
			c0.3,0.4,0.7,0.6,1.3,0.6S407.5,273.2,407.8,272.8z"/>
		<path class="st3" d="M413.7,274.8h-1.9v-10.1h1.9V274.8z"/>
		<path class="st3" d="M417.6,274.8h-1.9v-10.1h1.9V274.8z"/>
		<path class="st3" d="M424.3,267.5c0.5,0.2,0.9,0.6,1.3,1.1c0.3,0.4,0.5,1,0.6,1.5c0.1,0.3,0.1,0.8,0.1,1.5h-5.4
			c0,0.7,0.3,1.3,0.8,1.6c0.3,0.2,0.7,0.3,1.1,0.3c0.4,0,0.8-0.1,1.1-0.3c0.2-0.1,0.3-0.3,0.4-0.5h2c-0.1,0.4-0.3,0.9-0.7,1.3
			c-0.7,0.7-1.6,1.1-2.8,1.1c-1,0-1.9-0.3-2.6-0.9c-0.8-0.6-1.1-1.6-1.1-3c0-1.3,0.3-2.3,1-3c0.7-0.7,1.6-1,2.7-1
			C423.2,267.2,423.8,267.3,424.3,267.5z M421.4,269.2c-0.3,0.3-0.4,0.7-0.5,1.2h3.4c0-0.5-0.2-0.9-0.5-1.2
			c-0.3-0.3-0.7-0.4-1.2-0.4C422.1,268.8,421.7,268.9,421.4,269.2z"/>
		<path class="st3" d="M431.4,267.2c0,0,0.1,0,0.2,0v2c-0.1,0-0.2,0-0.3,0c-0.1,0-0.2,0-0.2,0c-0.8,0-1.3,0.3-1.6,0.8
			c-0.2,0.3-0.2,0.7-0.2,1.3v3.6h-2v-7.5h1.9v1.3c0.3-0.5,0.6-0.8,0.8-1C430.3,267.3,430.7,267.2,431.4,267.2
			C431.4,267.2,431.4,267.2,431.4,267.2z"/>
		<path class="st3" d="M377.3,281.5h3v10.1h-2v-6.8c0-0.2,0-0.5,0-0.8s0-0.6,0-0.8l-1.9,8.5h-2l-1.9-8.5c0,0.2,0,0.5,0,0.8
			s0,0.6,0,0.8v6.8h-2v-10.1h3.1l1.8,7.9L377.3,281.5z"/>
		<path class="st3" d="M385.1,287.1c0.4,0,0.6-0.1,0.8-0.2c0.3-0.1,0.4-0.3,0.4-0.6c0-0.3-0.1-0.5-0.3-0.6s-0.5-0.2-0.9-0.2
			c-0.5,0-0.8,0.1-1,0.3c-0.1,0.2-0.2,0.4-0.3,0.7h-1.9c0-0.7,0.2-1.2,0.5-1.6c0.5-0.7,1.4-1,2.7-1c0.8,0,1.5,0.2,2.2,0.5
			c0.6,0.3,1,0.9,1,1.8v3.4c0,0.2,0,0.5,0,0.9c0,0.3,0.1,0.4,0.1,0.5c0.1,0.1,0.2,0.2,0.3,0.2v0.3h-2.1c-0.1-0.2-0.1-0.3-0.1-0.4
			c0-0.1,0-0.3-0.1-0.5c-0.3,0.3-0.6,0.5-0.9,0.7c-0.4,0.2-0.9,0.4-1.4,0.4c-0.7,0-1.2-0.2-1.7-0.6s-0.7-0.9-0.7-1.6
			c0-0.9,0.4-1.6,1.1-2c0.4-0.2,1-0.4,1.7-0.5L385.1,287.1z M386.3,288c-0.1,0.1-0.3,0.1-0.4,0.2s-0.3,0.1-0.5,0.1l-0.4,0.1
			c-0.4,0.1-0.7,0.2-0.9,0.3c-0.3,0.2-0.5,0.5-0.5,0.8c0,0.3,0.1,0.6,0.3,0.7s0.4,0.2,0.7,0.2c0.4,0,0.8-0.1,1.2-0.4
			c0.4-0.2,0.5-0.7,0.6-1.3V288z"/>
		<path class="st3" d="M396,284.6c0.5,0.4,0.7,1.1,0.7,2v5h-2v-4.5c0-0.4-0.1-0.7-0.2-0.9c-0.2-0.4-0.6-0.6-1.1-0.6
			c-0.7,0-1.1,0.3-1.3,0.8c-0.1,0.3-0.2,0.7-0.2,1.1v4H390v-7.4h1.9v1.1c0.2-0.4,0.5-0.7,0.7-0.8c0.4-0.3,0.9-0.5,1.5-0.5
			C394.8,284,395.5,284.2,396,284.6z"/>
		<path class="st3" d="M401.4,287.1c0.4,0,0.6-0.1,0.8-0.2c0.3-0.1,0.4-0.3,0.4-0.6c0-0.3-0.1-0.5-0.3-0.6s-0.5-0.2-0.9-0.2
			c-0.5,0-0.8,0.1-1,0.3c-0.1,0.2-0.2,0.4-0.3,0.7h-1.9c0-0.7,0.2-1.2,0.5-1.6c0.5-0.7,1.4-1,2.7-1c0.8,0,1.5,0.2,2.2,0.5
			c0.6,0.3,1,0.9,1,1.8v3.4c0,0.2,0,0.5,0,0.9c0,0.3,0.1,0.4,0.1,0.5c0.1,0.1,0.2,0.2,0.3,0.2v0.3h-2.1c-0.1-0.2-0.1-0.3-0.1-0.4
			c0-0.1,0-0.3-0.1-0.5c-0.3,0.3-0.6,0.5-0.9,0.7c-0.4,0.2-0.9,0.4-1.4,0.4c-0.7,0-1.2-0.2-1.7-0.6s-0.7-0.9-0.7-1.6
			c0-0.9,0.4-1.6,1.1-2c0.4-0.2,1-0.4,1.7-0.5L401.4,287.1z M402.6,288c-0.1,0.1-0.3,0.1-0.4,0.2s-0.3,0.1-0.5,0.1l-0.4,0.1
			c-0.4,0.1-0.7,0.2-0.9,0.3c-0.3,0.2-0.5,0.5-0.5,0.8c0,0.3,0.1,0.6,0.3,0.7s0.4,0.2,0.7,0.2c0.4,0,0.8-0.1,1.2-0.4
			c0.4-0.2,0.5-0.7,0.6-1.3V288z"/>
		<path class="st3" d="M410,284.2c0.5,0.2,0.9,0.6,1.1,1.1v-1.1h1.9v7.1c0,1-0.2,1.7-0.5,2.2c-0.6,0.8-1.6,1.3-3.2,1.3
			c-1,0-1.7-0.2-2.3-0.6c-0.6-0.4-0.9-0.9-1-1.7h2.1c0.1,0.2,0.1,0.4,0.3,0.5c0.2,0.2,0.6,0.3,1.1,0.3c0.7,0,1.2-0.2,1.4-0.7
			c0.2-0.3,0.2-0.8,0.2-1.5v-0.5c-0.2,0.3-0.4,0.6-0.6,0.7c-0.4,0.3-0.9,0.4-1.5,0.4c-1,0-1.7-0.3-2.3-1c-0.6-0.7-0.9-1.6-0.9-2.7
			c0-1.1,0.3-2,0.8-2.8s1.3-1.1,2.3-1.1C409.4,284,409.7,284.1,410,284.2z M410.6,289.5c0.3-0.3,0.5-0.9,0.5-1.6
			c0-0.7-0.1-1.2-0.4-1.6c-0.3-0.4-0.7-0.6-1.2-0.6c-0.7,0-1.2,0.3-1.4,1c-0.1,0.3-0.2,0.8-0.2,1.3c0,0.4,0.1,0.8,0.2,1.2
			c0.3,0.6,0.7,0.9,1.4,0.9C409.9,290,410.3,289.9,410.6,289.5z"/>
		<path class="st3" d="M419.7,284.3c0.5,0.2,0.9,0.6,1.3,1.1c0.3,0.4,0.5,1,0.6,1.5c0.1,0.3,0.1,0.8,0.1,1.5h-5.4
			c0,0.7,0.3,1.3,0.8,1.6c0.3,0.2,0.7,0.3,1.1,0.3c0.4,0,0.8-0.1,1.1-0.3c0.2-0.1,0.3-0.3,0.4-0.5h2c-0.1,0.4-0.3,0.9-0.7,1.3
			c-0.7,0.7-1.6,1.1-2.8,1.1c-1,0-1.9-0.3-2.6-0.9c-0.8-0.6-1.1-1.6-1.1-3c0-1.3,0.3-2.3,1-3c0.7-0.7,1.6-1,2.7-1
			C418.6,284,419.2,284.1,419.7,284.3z M416.8,286c-0.3,0.3-0.4,0.7-0.5,1.2h3.4c0-0.5-0.2-0.9-0.5-1.2c-0.3-0.3-0.7-0.4-1.2-0.4
			C417.4,285.6,417,285.7,416.8,286z"/>
		<path class="st3" d="M426.8,284c0,0,0.1,0,0.2,0v2c-0.1,0-0.2,0-0.3,0c-0.1,0-0.2,0-0.2,0c-0.8,0-1.3,0.3-1.6,0.8
			c-0.2,0.3-0.2,0.7-0.2,1.3v3.6h-2v-7.5h1.9v1.3c0.3-0.5,0.6-0.8,0.8-1C425.6,284.1,426.1,284,426.8,284
			C426.7,284,426.7,284,426.8,284z"/>
	</g>
	<g>
		<g>
			<polyline class="st7" points="200.3,249 200.3,229 277.3,228 277.3,200.2 			"/>
			<g>
				<polygon class="st6" points="285.5,206.8 284,208.2 277.3,200.9 270.6,208.2 269.1,206.8 277.3,198 				"/>
			</g>
		</g>
	</g>
	<g>
		<g>
			<polyline class="st7" points="398.3,249 398.3,229 321.3,228 321.3,200.2 			"/>
			<g>
				<polygon class="st6" points="329.5,206.8 328,208.2 321.3,200.9 314.6,208.2 313.1,206.8 321.3,198 				"/>
			</g>
		</g>
	</g>
	<g>
		<g>
			<line class="st7" x1="429.3" y1="158" x2="380.5" y2="158"/>
			<g>
				<polygon class="st6" points="387.1,149.8 388.5,151.3 381.2,158 388.5,164.7 387.1,166.2 378.3,158 				"/>
			</g>
		</g>
	</g>
	<g>
		<g>
			<line class="st7" x1="232.3" y1="158" x2="183.5" y2="158"/>
			<g>
				<polygon class="st6" points="190.1,149.8 191.5,151.3 184.2,158 191.5,164.7 190.1,166.2 181.3,158 				"/>
			</g>
		</g>
	</g>
	<g>
		<g>
			<line class="st7" x1="867.5" y1="158" x2="916.3" y2="158"/>
			<g>
				<polygon class="st6" points="874.1,166.2 875.5,164.7 868.2,158 875.5,151.3 874.1,149.8 865.3,158 				"/>
			</g>
		</g>
	</g>
	<g>
		<g>
			<polyline class="st7" points="916.3,237 787.3,237 787.3,203.2 			"/>
			<g>
				<polygon class="st6" points="795.5,209.8 794,211.2 787.3,203.9 780.6,211.2 779.1,209.8 787.3,201 				"/>
			</g>
		</g>
	</g>
	<g>
		<g>
			<polyline class="st7" points="1052.3,237 1181.3,237 1181.3,203.2 			"/>
			<g>
				<polygon class="st6" points="1189.5,209.8 1188,211.2 1181.3,203.9 1174.6,211.2 1173.1,209.8 1181.3,201 				"/>
			</g>
		</g>
	</g>
	<line class="st7" x1="719.3" y1="158" x2="607.3" y2="158"/>
	<g>
		<g>
			<path class="st6" d="M572.4,160.1l1.2,0.1c-0.8,1.3,1,5.8,4.7,5.1c-0.5,2.5,1.6,4,4,3.4c2-0.5,3.2-0.7,6.8-0.1
				c4.4,0.8,9.5,2.2,14.8-0.9c0.5-0.3,1,0,1.1,0.3c0.3,0.6,0.1,2.3,1.5,2.3h5.3c1.9,0,3.4-2.8,3.4-11.7c0-9.2-0.1-12.8-4-12.9
				c-3.7,0-4.8,0-4.8,0c-1.2,0-1.4,0.8-1.6,1.3c-0.1,0.3-0.6,0.4-0.9,0.3c-0.5-0.2-5.2-2.3-9.3-2.7c-3.8-0.4-5.3-1.5-7.8-1.2
				c-3,0.5-12.8,0.1-15.7,0.1c-2.9,0-7.5,0.9-13.6,0.8c-5.8-0.1-5.9,6.6-0.6,6.3c4.1-0.2,4.3,0.3,5.7,0.1c2.5-0.3,5.3,0,7.2,0.1
				c0.9,0.1,1.9-0.2,4.5,0.1c-1.4,0.3-1.5,0.7-3.5,1.7C567.9,154.2,569.7,159.9,572.4,160.1z"/>
			<path class="st3" d="M607.7,157.7c0.1,3.7-0.6,10-0.8,10.6c-0.2,0.5,0.2,0.9,1,0.8c0.6,0,3.4,0,3.4,0c1.3,0,2.8-1.3,2.8-11.1
				c-0.1-10.2-0.5-11.5-3.5-11.5l-3.7,0.1c-0.2,0-0.4,0.2-0.5,0.4C606.1,147.6,607.4,148.4,607.7,157.7z"/>
			<path class="st3" d="M599,158.7c0.2,0.2,0.2,0.4,0.1,0.6c-0.3,0.6-1.1,0.2-1.7,0.1c-0.5,0-3.1-0.5-4,0.1c-1,0.6-2.8,1.8-3.5,4.4
				c-0.1,0.5-0.9,1.9-2.1,2.3c-0.9,0.3-0.7,1.2,0,1.2c2,0.2,2.6,1,8.8,1c4.9-0.3,9.6-1.2,9.9-7.8c0.1-3.6-0.1-8.7-0.6-10.5
				c-0.5-1.9-2-1.8-3.4-2.5c-5.5-2.4-9.2-2.2-12.2-2.9c-1.2-0.3-2.1-0.7-3.6,0.3c-3.3,2.3-7.2,3.1-8.1,3.8c-0.7,0.4-0.8,0.6-1,0.9
				c-0.2,0.4-0.9,0.4-1.4,0.9c-0.4,0.3-0.5,0.4-1,0.6c0.5,0.7,1-0.1,1.8,1.5c0.2,0.3,0,1-0.1,1.2c-0.4,0.6-1.7,0.7-2.2,0.8
				c-0.4,0.1-0.9,0.2-1.4,0.2c-1.3,0.2-1.6-1.1-1.7-0.6c-0.2,2.3,2.9,1.8,3.9,1.7c1-0.1,1.9-0.6,2.9-0.9c0.4-0.3,2.8-0.4,2.8-2.1
				c0-0.3,0-0.9,0.7-0.6c0.6,0.2,3.2,0.2,3.6-0.6c0.2-0.3,0.4-0.6,0.7-0.7c0.4-0.2,0.6,0,0.5,0.5c-0.1,0.5,0,1.3,0.7,1.5
				c0.7,0.2,1,0.2,1.5-0.1c0.5-0.3,1.5-0.9,1.9-0.9c0.4,0.1,0.6,0.4-0.2,0.8c-0.8,0.4-1.7,1.6-0.4,3c1.9,2.1,1.3,2.2,8,2.5
				C598.6,158.5,598.8,158.5,599,158.7z"/>
			<path class="st3" d="M588,158.8c0.9-1.1,1.6-1.5,0.7-2.6c-0.1-0.2-0.4-0.2-1.2,0c-0.4,0.1-1.9,1.9-0.6,3.1
				C587.1,159.4,587.5,159.6,588,158.8z"/>
			<path class="st3" d="M589.4,162.3c0.5,0.2,1.4-2.3,1.4-2.5c-0.1-0.2-0.1-0.5-1.2-0.6c-0.5,0-1.4,1-1.3,2
				C588.3,162,589.3,162.3,589.4,162.3z"/>
			<path class="st3" d="M584.9,156c0.5-0.5,1.5-1.5,1.2-2c-0.4-0.6-0.8-0.9-1.9-0.5c-0.7,0.3-2.1,1.5-0.6,2.9
				C584.1,156.6,584.3,156.7,584.9,156z"/>
			<path class="st3" d="M579.3,165.2c-0.8,3.2,2.8,3,4.2,2.1c2.3-1.4,4.3-1.7,5.1-2.6c0.4-0.5,1.1-1.8,0.4-1.9
				c-0.6-0.1-1.1-0.5-1.4-0.8c-0.1-0.1,0.1-1-0.1-1c-0.1,0,0.1,1-2.1,2c-1,0.4-3,1.3-3.7,1.4c-0.6,0.1-1.1,0.4-2.1,0.5
				C579.3,165.1,579.3,165.2,579.3,165.2z"/>
			<path class="st3" d="M575,160.1c2.4-0.1,3.4,0,4,0c3,0.3,4.3-0.8,5-1.7c0.6-0.6,0.8-1.1,1.3-1.4c0.4-0.3,0.8-1,0.5,0.1
				c-0.1,0.5-0.5,0.8-0.2,1.7c0.3,0.5,0.4,0.8,1.3,1.4c0.1,0,0.2,0.1,0.1,0.1c-0.3,0.2-0.5,1.8-3.1,2.5c-3.3,0.9-4.8,1.7-5.5,1.8
				c-0.1,0-0.3,0-0.5,0c-1-0.1-1.4-0.2-1.7-0.5c-0.3-0.3-2-1.7-1.6-3.5C574.7,160.3,574.9,160.1,575,160.1z"/>
			<path class="st3" d="M570.5,154.5c-0.2,0-0.6,3.6,1.9,4.5c1.2,0.5,1.9,0.1,3.1,0.2c2.1-0.1,3.8,0.1,4.7,0c1.3,0,2.3-0.3,2.9-1
				c0.3-0.4,1.1-0.9,0.6-1.2c-0.5-0.2-0.8-0.3-1.3-1.1c-0.6-1.1,0.2-1.8-0.5-1.5c-0.6,0.3-0.6,0.3-1.2,0.7c-2.4,1.7-10,3.5-9.8-0.3
				C570.8,154.6,570.6,154.4,570.5,154.5z"/>
			<path class="st3" d="M574.3,151.9c-0.4,0-0.8,0.3-1.1,0.4c-0.5,0.2-2.2,0.5-1.4,1.5c0.8,1,3.1,0.1,3.9-0.1
				c0.3-0.1,0.5-0.4,0.5-0.7C576.3,152.7,576.1,151.9,574.3,151.9z"/>
			<path class="st3" d="M561.6,145.3c1.9,0,6.2-1,8.5-0.5c2.8-0.5,7.6,0,9.2-0.1c1.4,0,4.4-0.3,6.5,0c-0.6,0.2-2.8,1.9-6.2,2.8
				c-1.2,0.3-2.1,0.8-3.1,2.1c-2.4,0.4-5.9,0.6-6.1,0.2c-0.1-0.2-0.1-0.3-0.6-0.3c-0.4,0.1-0.2,0.2-0.9,0.2c-3.8,0.1-5.8,0-5.8,0
				c-0.8-0.1-0.6-0.4-0.9-0.4c-0.3-0.1-0.1,0.2-1,0.3c-0.5,0.1-1.7,0.2-5,0.2c-3,0.1-3.7-4.4,1.4-4.6
				C561.1,145.1,561.1,145.4,561.6,145.3z"/>
		</g>
	</g>
	<path class="st8" d="M330.8,101h-60c-8.6,0-15.5-6.9-15.5-15.5v0c0-8.6,6.9-15.5,15.5-15.5h60c8.6,0,15.5,6.9,15.5,15.5v0
		C346.3,94.1,339.4,101,330.8,101z"/>
	<g>
		<path class="st6" d="M281.4,85.5c-0.6,0.5-1.4,0.7-2.5,0.7h-2.1v3.6h-2.1V79.8h4.3c1,0,1.8,0.3,2.4,0.8s0.9,1.3,0.9,2.4
			C282.3,84.2,282,85,281.4,85.5z M279.8,81.9c-0.3-0.2-0.6-0.3-1.1-0.3h-1.9v3h1.9c0.5,0,0.9-0.1,1.1-0.4c0.3-0.2,0.4-0.6,0.4-1.1
			C280.2,82.5,280,82.1,279.8,81.9z"/>
		<path class="st6" d="M287.9,82.2c0,0,0.1,0,0.2,0v2c-0.1,0-0.2,0-0.3,0c-0.1,0-0.2,0-0.2,0c-0.8,0-1.3,0.3-1.6,0.8
			c-0.2,0.3-0.2,0.7-0.2,1.3v3.6h-2v-7.5h1.9v1.3c0.3-0.5,0.6-0.8,0.8-1C286.8,82.4,287.3,82.2,287.9,82.2
			C287.9,82.2,287.9,82.2,287.9,82.2z"/>
		<path class="st6" d="M295.5,89c-0.6,0.8-1.6,1.2-2.9,1.2s-2.2-0.4-2.9-1.2s-0.9-1.7-0.9-2.8c0-1.1,0.3-2,0.9-2.8
			c0.6-0.8,1.6-1.2,2.9-1.2s2.2,0.4,2.9,1.2c0.6,0.8,0.9,1.7,0.9,2.8C296.4,87.2,296.1,88.2,295.5,89z M293.9,87.9
			c0.3-0.4,0.5-1,0.5-1.7c0-0.7-0.2-1.3-0.5-1.7s-0.7-0.6-1.3-0.6s-1,0.2-1.3,0.6c-0.3,0.4-0.5,1-0.5,1.7c0,0.7,0.2,1.3,0.5,1.7
			c0.3,0.4,0.7,0.6,1.3,0.6S293.6,88.3,293.9,87.9z"/>
		<path class="st6" d="M302.3,85.1c0-0.3-0.1-0.5-0.3-0.8c-0.2-0.3-0.6-0.5-1-0.5c-0.7,0-1.1,0.3-1.4,1c-0.1,0.3-0.2,0.8-0.2,1.4
			c0,0.5,0.1,1,0.2,1.3c0.2,0.6,0.7,0.9,1.3,0.9c0.5,0,0.8-0.1,1-0.4c0.2-0.2,0.3-0.6,0.3-1h2c0,0.6-0.3,1.2-0.6,1.7
			c-0.6,0.9-1.5,1.3-2.7,1.3c-1.2,0-2.1-0.4-2.6-1.1s-0.8-1.6-0.8-2.8c0-1.3,0.3-2.3,0.9-3s1.5-1.1,2.6-1.1c0.9,0,1.7,0.2,2.3,0.6
			c0.6,0.4,0.9,1.2,1.1,2.2H302.3z"/>
		<path class="st6" d="M310.4,82.6c0.5,0.2,0.9,0.6,1.3,1.1c0.3,0.4,0.5,1,0.6,1.5c0.1,0.3,0.1,0.8,0.1,1.5H307
			c0,0.7,0.3,1.3,0.8,1.6c0.3,0.2,0.7,0.3,1.1,0.3c0.4,0,0.8-0.1,1.1-0.3c0.2-0.1,0.3-0.3,0.4-0.5h2c-0.1,0.4-0.3,0.9-0.7,1.3
			c-0.7,0.7-1.6,1.1-2.8,1.1c-1,0-1.9-0.3-2.6-0.9c-0.8-0.6-1.1-1.6-1.1-3c0-1.3,0.3-2.3,1-3c0.7-0.7,1.6-1,2.7-1
			C309.3,82.2,309.9,82.3,310.4,82.6z M307.5,84.3c-0.3,0.3-0.4,0.7-0.5,1.2h3.4c0-0.5-0.2-0.9-0.5-1.2c-0.3-0.3-0.7-0.4-1.2-0.4
			C308.2,83.8,307.8,84,307.5,84.3z"/>
		<path class="st6" d="M314.9,87.5c0,0.3,0.1,0.6,0.3,0.7c0.2,0.3,0.7,0.4,1.3,0.4c0.4,0,0.7-0.1,0.9-0.2c0.2-0.1,0.3-0.3,0.3-0.5
			c0-0.2-0.1-0.4-0.3-0.5c-0.2-0.1-0.9-0.3-2-0.6c-0.8-0.2-1.4-0.5-1.8-0.8c-0.3-0.3-0.5-0.8-0.5-1.3c0-0.7,0.3-1.3,0.8-1.8
			s1.3-0.7,2.3-0.7c0.9,0,1.7,0.2,2.3,0.6s0.9,1,1,1.9h-1.9c0-0.3-0.1-0.4-0.2-0.6c-0.2-0.3-0.6-0.4-1.1-0.4c-0.4,0-0.7,0.1-0.9,0.2
			c-0.2,0.1-0.3,0.3-0.3,0.5c0,0.2,0.1,0.4,0.3,0.5c0.2,0.1,0.9,0.3,2,0.5c0.8,0.2,1.4,0.5,1.7,0.8c0.4,0.4,0.6,0.8,0.6,1.4
			c0,0.7-0.3,1.3-0.8,1.8c-0.6,0.5-1.4,0.7-2.6,0.7c-1.2,0-2-0.2-2.6-0.7s-0.8-1.1-0.8-1.9H314.9z"/>
		<path class="st6" d="M322.7,87.5c0,0.3,0.1,0.6,0.3,0.7c0.2,0.3,0.7,0.4,1.3,0.4c0.4,0,0.7-0.1,0.9-0.2c0.2-0.1,0.3-0.3,0.3-0.5
			c0-0.2-0.1-0.4-0.3-0.5c-0.2-0.1-0.9-0.3-2-0.6c-0.8-0.2-1.4-0.5-1.8-0.8c-0.3-0.3-0.5-0.8-0.5-1.3c0-0.7,0.3-1.3,0.8-1.8
			s1.3-0.7,2.3-0.7c0.9,0,1.7,0.2,2.3,0.6s0.9,1,1,1.9h-1.9c0-0.3-0.1-0.4-0.2-0.6c-0.2-0.3-0.6-0.4-1.1-0.4c-0.4,0-0.7,0.1-0.9,0.2
			c-0.2,0.1-0.3,0.3-0.3,0.5c0,0.2,0.1,0.4,0.3,0.5c0.2,0.1,0.9,0.3,2,0.5c0.8,0.2,1.4,0.5,1.7,0.8c0.4,0.4,0.6,0.8,0.6,1.4
			c0,0.7-0.3,1.3-0.8,1.8c-0.6,0.5-1.4,0.7-2.6,0.7c-1.2,0-2-0.2-2.6-0.7s-0.8-1.1-0.8-1.9H322.7z"/>
	</g>
	<path class="st8" d="M1014.3,101.5h-60c-8.6,0-15.5-6.9-15.5-15.5v0c0-8.6,6.9-15.5,15.5-15.5h60c8.6,0,15.5,6.9,15.5,15.5v0
		C1029.8,94.6,1022.9,101.5,1014.3,101.5z"/>
	<g>
		<path class="st6" d="M964.9,86c-0.6,0.5-1.4,0.7-2.5,0.7h-2.1v3.6h-2.1V80.3h4.3c1,0,1.8,0.3,2.4,0.8s0.9,1.3,0.9,2.4
			C965.8,84.7,965.5,85.5,964.9,86z M963.3,82.4c-0.3-0.2-0.6-0.3-1.1-0.3h-1.9v3h1.9c0.5,0,0.9-0.1,1.1-0.4
			c0.3-0.2,0.4-0.6,0.4-1.1C963.7,83,963.5,82.6,963.3,82.4z"/>
		<path class="st6" d="M971.4,82.7c0,0,0.1,0,0.2,0v2c-0.1,0-0.2,0-0.3,0c-0.1,0-0.2,0-0.2,0c-0.8,0-1.3,0.3-1.6,0.8
			c-0.2,0.3-0.2,0.7-0.2,1.3v3.6h-2v-7.5h1.9v1.3c0.3-0.5,0.6-0.8,0.8-1C970.3,82.9,970.8,82.7,971.4,82.7
			C971.4,82.7,971.4,82.7,971.4,82.7z"/>
		<path class="st6" d="M979,89.5c-0.6,0.8-1.6,1.2-2.9,1.2s-2.2-0.4-2.9-1.2s-0.9-1.7-0.9-2.8c0-1.1,0.3-2,0.9-2.8
			c0.6-0.8,1.6-1.2,2.9-1.2s2.2,0.4,2.9,1.2c0.6,0.8,0.9,1.7,0.9,2.8C979.9,87.8,979.6,88.7,979,89.5z M977.4,88.4
			c0.3-0.4,0.5-1,0.5-1.7c0-0.7-0.2-1.3-0.5-1.7s-0.7-0.6-1.3-0.6s-1,0.2-1.3,0.6c-0.3,0.4-0.5,1-0.5,1.7c0,0.7,0.2,1.3,0.5,1.7
			c0.3,0.4,0.7,0.6,1.3,0.6S977.1,88.8,977.4,88.4z"/>
		<path class="st6" d="M985.8,85.6c0-0.3-0.1-0.5-0.3-0.8c-0.2-0.3-0.6-0.5-1-0.5c-0.7,0-1.1,0.3-1.4,1c-0.1,0.3-0.2,0.8-0.2,1.4
			c0,0.5,0.1,1,0.2,1.3c0.2,0.6,0.7,0.9,1.3,0.9c0.5,0,0.8-0.1,1-0.4c0.2-0.2,0.3-0.6,0.3-1h2c0,0.6-0.3,1.2-0.6,1.7
			c-0.6,0.9-1.5,1.3-2.7,1.3c-1.2,0-2.1-0.4-2.6-1.1s-0.8-1.6-0.8-2.8c0-1.3,0.3-2.3,0.9-3s1.5-1.1,2.6-1.1c0.9,0,1.7,0.2,2.3,0.6
			c0.6,0.4,0.9,1.2,1.1,2.2H985.8z"/>
		<path class="st6" d="M993.9,83.1c0.5,0.2,0.9,0.6,1.3,1.1c0.3,0.4,0.5,1,0.6,1.5c0.1,0.3,0.1,0.8,0.1,1.5h-5.4
			c0,0.7,0.3,1.3,0.8,1.6c0.3,0.2,0.7,0.3,1.1,0.3c0.4,0,0.8-0.1,1.1-0.3c0.2-0.1,0.3-0.3,0.4-0.5h2c-0.1,0.4-0.3,0.9-0.7,1.3
			c-0.7,0.7-1.6,1.1-2.8,1.1c-1,0-1.9-0.3-2.6-0.9c-0.8-0.6-1.1-1.6-1.1-3c0-1.3,0.3-2.3,1-3c0.7-0.7,1.6-1,2.7-1
			C992.8,82.7,993.4,82.8,993.9,83.1z M991,84.8c-0.3,0.3-0.4,0.7-0.5,1.2h3.4c0-0.5-0.2-0.9-0.5-1.2c-0.3-0.3-0.7-0.4-1.2-0.4
			C991.7,84.3,991.3,84.5,991,84.8z"/>
		<path class="st6" d="M998.4,88c0,0.3,0.1,0.6,0.3,0.7c0.2,0.3,0.7,0.4,1.3,0.4c0.4,0,0.7-0.1,0.9-0.2c0.2-0.1,0.3-0.3,0.3-0.5
			c0-0.2-0.1-0.4-0.3-0.5c-0.2-0.1-0.9-0.3-2-0.6c-0.8-0.2-1.4-0.5-1.8-0.8c-0.3-0.3-0.5-0.8-0.5-1.3c0-0.7,0.3-1.3,0.8-1.8
			s1.3-0.7,2.3-0.7c0.9,0,1.7,0.2,2.3,0.6s0.9,1,1,1.9h-1.9c0-0.3-0.1-0.4-0.2-0.6c-0.2-0.3-0.6-0.4-1.1-0.4c-0.4,0-0.7,0.1-0.9,0.2
			c-0.2,0.1-0.3,0.3-0.3,0.5c0,0.2,0.1,0.4,0.3,0.5c0.2,0.1,0.9,0.3,2,0.5c0.8,0.2,1.4,0.5,1.7,0.8c0.4,0.4,0.6,0.8,0.6,1.4
			c0,0.7-0.3,1.3-0.8,1.8c-0.6,0.5-1.4,0.7-2.6,0.7c-1.2,0-2-0.2-2.6-0.7s-0.8-1.1-0.8-1.9H998.4z"/>
		<path class="st6" d="M1006.2,88c0,0.3,0.1,0.6,0.3,0.7c0.2,0.3,0.7,0.4,1.3,0.4c0.4,0,0.7-0.1,0.9-0.2c0.2-0.1,0.3-0.3,0.3-0.5
			c0-0.2-0.1-0.4-0.3-0.5c-0.2-0.1-0.9-0.3-2-0.6c-0.8-0.2-1.4-0.5-1.8-0.8c-0.3-0.3-0.5-0.8-0.5-1.3c0-0.7,0.3-1.3,0.8-1.8
			s1.3-0.7,2.3-0.7c0.9,0,1.7,0.2,2.3,0.6s0.9,1,1,1.9h-1.9c0-0.3-0.1-0.4-0.2-0.6c-0.2-0.3-0.6-0.4-1.1-0.4c-0.4,0-0.7,0.1-0.9,0.2
			c-0.2,0.1-0.3,0.3-0.3,0.5c0,0.2,0.1,0.4,0.3,0.5c0.2,0.1,0.9,0.3,2,0.5c0.8,0.2,1.4,0.5,1.7,0.8c0.4,0.4,0.6,0.8,0.6,1.4
			c0,0.7-0.3,1.3-0.8,1.8c-0.6,0.5-1.4,0.7-2.6,0.7c-1.2,0-2-0.2-2.6-0.7s-0.8-1.1-0.8-1.9H1006.2z"/>
	</g>
</g>
</svg>
