<?xml version="1.0" encoding="utf-8"?>
<!-- Generator: Adobe Illustrator 23.0.1, SVG Export Plug-In . SVG Version: 6.00 Build 0)  -->
<svg version="1.1" id="Layer_1" xmlns="http://www.w3.org/2000/svg" xmlns:xlink="http://www.w3.org/1999/xlink" x="0px" y="0px"
	 viewBox="0 0 800 300" style="enable-background:new 0 0 800 300;" xml:space="preserve">
<style type="text/css">
	.st0{fill:#FCEE21;}
	.st1{fill:#1F2326;}
	.st2{fill:#FFFFFF;}
</style>
<rect class="st0" width="800" height="300"/>
<g>
	<g>
		<rect x="317.9639893" y="116.1949081" class="st1" width="9.6461811" height="9.6461821"/>
		<rect x="308.3178101" y="116.1949081" class="st1" width="9.6461811" height="9.6461821"/>
		<rect x="288.9385376" y="116.1949081" class="st1" width="9.646184" height="9.6461821"/>
		<rect x="317.9639893" y="125.841095" class="st0" width="9.6461811" height="9.646184"/>
		<rect x="298.5847168" y="116.1949081" class="st1" width="9.6461811" height="9.6461821"/>
		<rect x="317.9639893" y="154.8665466" class="st1" width="9.6461811" height="9.6461811"/>
		<rect x="317.9639893" y="164.5127258" class="st0" width="9.6461811" height="9.6461811"/>
		<rect x="279.2923584" y="116.1949081" class="st1" width="9.646184" height="9.6461821"/>
		<rect x="317.9639893" y="145.1334534" class="st1" width="9.6461811" height="9.6461811"/>
		<rect x="317.9639893" y="135.4872742" class="st1" width="9.6461811" height="9.646184"/>
		<rect x="269.6461792" y="135.4872742" class="st1" width="9.6461821" height="9.646184"/>
		<rect x="269.6461792" y="164.5127258" class="st1" width="9.6461821" height="9.6461811"/>
		<rect x="269.6461792" y="174.158905" class="st1" width="9.6461821" height="9.6461811"/>
		<rect x="279.2923584" y="174.158905" class="st1" width="9.646184" height="9.6461811"/>
		<rect x="288.9385376" y="174.158905" class="st1" width="9.646184" height="9.6461811"/>
		<rect x="308.3178101" y="164.5127258" class="st1" width="9.6461811" height="9.6461811"/>
		<rect x="269.6461792" y="125.841095" class="st1" width="9.6461821" height="9.646184"/>
		<rect x="269.6461792" y="154.8665466" class="st1" width="9.6461821" height="9.6461811"/>
		<rect x="269.6461792" y="116.1949081" class="st1" width="9.6461821" height="9.6461821"/>
		<rect x="269.6461792" y="145.1334534" class="st1" width="9.6461821" height="9.6461811"/>
		<rect x="298.5847168" y="145.1334534" class="st0" width="9.6461811" height="9.6461811"/>
		<rect x="308.3178101" y="154.8665466" class="st2" width="9.6461811" height="9.6461811"/>
		<rect x="298.5847168" y="154.8665466" class="st1" width="9.6461811" height="9.6461811"/>
		<rect x="298.5847168" y="164.5127258" class="st1" width="9.6461811" height="9.6461811"/>
		<rect x="308.3178101" y="145.1334534" class="st1" width="9.6461811" height="9.6461811"/>
		<rect x="288.9385376" y="135.4872742" class="st1" width="9.646184" height="9.646184"/>
		<rect x="298.5847168" y="135.4872742" class="st1" width="9.6461811" height="9.646184"/>
		<rect x="298.5847168" y="174.158905" class="st1" width="9.6461811" height="9.6461811"/>
		<rect x="288.9385376" y="145.1334534" class="st1" width="9.646184" height="9.6461811"/>
		<rect x="308.3178101" y="135.4872742" class="st2" width="9.6461811" height="9.646184"/>
		<rect x="288.9385376" y="154.8665466" class="st1" width="9.646184" height="9.6461811"/>
		<rect x="279.2923584" y="164.5127258" class="st2" width="9.646184" height="9.6461811"/>
		<rect x="279.2923584" y="154.8665466" class="st2" width="9.646184" height="9.6461811"/>
		<rect x="288.9385376" y="164.5127258" class="st1" width="9.646184" height="9.6461811"/>
		<rect x="279.2923584" y="145.1334534" class="st2" width="9.646184" height="9.6461811"/>
		<rect x="308.3178101" y="125.841095" class="st1" width="9.6461811" height="9.646184"/>
		<rect x="288.9385376" y="125.841095" class="st1" width="9.646184" height="9.646184"/>
		<rect x="279.2923584" y="135.4872742" class="st2" width="9.646184" height="9.646184"/>
		<rect x="298.5847168" y="125.841095" class="st1" width="9.6461811" height="9.646184"/>
		<rect x="279.2923584" y="125.841095" class="st2" width="9.646184" height="9.646184"/>
		<rect x="337.2563477" y="145.1334534" class="st1" width="9.6461811" height="9.6461811"/>
		<rect x="288.9385376" y="183.8050842" class="st1" width="9.646184" height="9.6461811"/>
		<rect x="317.9639893" y="183.8050842" class="st1" width="9.6461811" height="9.6461811"/>
		<rect x="269.6461792" y="183.8050842" class="st1" width="9.6461821" height="9.6461811"/>
		<rect x="308.3178101" y="183.8050842" class="st1" width="9.6461811" height="9.6461811"/>
		<rect x="298.5847168" y="183.8050842" class="st1" width="9.6461811" height="9.6461811"/>
		<rect x="279.2923584" y="183.8050842" class="st1" width="9.646184" height="9.6461811"/>
		<rect x="260" y="164.5127258" class="st1" width="9.6461821" height="9.6461811"/>
		<rect x="260" y="154.8665466" class="st1" width="9.6461821" height="9.6461811"/>
		<rect x="260" y="174.158905" class="st1" width="9.6461821" height="9.6461811"/>
		<rect x="260" y="183.8050842" class="st1" width="9.6461821" height="9.6461811"/>
		<rect x="337.2563477" y="106.5487289" class="st1" width="9.6461811" height="9.6461821"/>
		<rect x="337.2563477" y="125.841095" class="st1" width="9.6461811" height="9.646184"/>
		<rect x="327.6101685" y="183.8050842" class="st1" width="9.6461811" height="9.6461811"/>
		<rect x="337.2563477" y="135.4872742" class="st1" width="9.6461811" height="9.646184"/>
		<rect x="260" y="145.1334534" class="st1" width="9.6461821" height="9.6461811"/>
		<rect x="337.2563477" y="116.1949081" class="st1" width="9.6461811" height="9.6461821"/>
		<rect x="337.2563477" y="174.158905" class="st1" width="9.6461811" height="9.6461811"/>
		<rect x="337.2563477" y="183.8050842" class="st1" width="9.6461811" height="9.6461811"/>
		<rect x="337.2563477" y="164.5127258" class="st1" width="9.6461811" height="9.6461811"/>
		<rect x="337.2563477" y="154.8665466" class="st1" width="9.6461811" height="9.6461811"/>
		<rect x="327.6101685" y="164.5127258" class="st1" width="9.6461811" height="9.6461811"/>
		<rect x="327.6101685" y="145.1334534" class="st1" width="9.6461811" height="9.6461811"/>
		<rect x="327.6101685" y="125.841095" class="st1" width="9.6461811" height="9.646184"/>
		<rect x="327.6101685" y="135.4872742" class="st1" width="9.6461811" height="9.646184"/>
		<rect x="327.6101685" y="116.1949081" class="st1" width="9.6461811" height="9.6461821"/>
		<rect x="317.9639893" y="174.158905" class="st1" width="9.6461811" height="9.6461811"/>
		<rect x="327.6101685" y="106.5487289" class="st1" width="9.6461811" height="9.6461821"/>
		<rect x="327.6101685" y="174.158905" class="st1" width="9.6461811" height="9.6461811"/>
		<rect x="327.6101685" y="154.8665466" class="st1" width="9.6461811" height="9.6461811"/>
		<rect x="308.3178101" y="174.158905" class="st1" width="9.6461811" height="9.6461811"/>
		<rect x="260" y="116.1949081" class="st1" width="9.6461821" height="9.6461821"/>
		<rect x="260" y="135.4872742" class="st1" width="9.6461821" height="9.646184"/>
		<rect x="269.6461792" y="106.5487289" class="st1" width="9.6461821" height="9.6461821"/>
		<rect x="260" y="106.5487289" class="st1" width="9.6461821" height="9.6461821"/>
		<rect x="260" y="125.841095" class="st1" width="9.6461821" height="9.646184"/>
		<rect x="279.2923584" y="106.5487289" class="st1" width="9.646184" height="9.6461821"/>
		<rect x="298.5847168" y="106.5487289" class="st1" width="9.6461811" height="9.6461821"/>
		<rect x="317.9639893" y="106.5487289" class="st1" width="9.6461811" height="9.6461821"/>
		<rect x="308.3178101" y="106.5487289" class="st1" width="9.6461811" height="9.6461821"/>
		<rect x="288.9385376" y="106.5487289" class="st1" width="9.646184" height="9.6461821"/>
	</g>
	<g>
		<rect x="414.5127258" y="116.1949081" class="st1" width="9.6461878" height="9.6461821"/>
		<rect x="404.8665466" y="116.1949081" class="st1" width="9.6461878" height="9.6461821"/>
		<rect x="385.4872742" y="116.1949081" class="st1" width="9.6461878" height="9.6461821"/>
		<rect x="414.5127258" y="125.841095" class="st1" width="9.6461878" height="9.646184"/>
		<rect x="395.2203674" y="116.1949081" class="st1" width="9.6461878" height="9.6461821"/>
		<rect x="414.5127258" y="154.8665466" class="st0" width="9.6461878" height="9.6461811"/>
		<rect x="414.5127258" y="164.5127258" class="st1" width="9.6461878" height="9.6461811"/>
		<rect x="375.841095" y="116.1949081" class="st1" width="9.6461878" height="9.6461821"/>
		<rect x="414.5127258" y="145.1334534" class="st1" width="9.6461878" height="9.6461811"/>
		<rect x="414.5127258" y="135.4872742" class="st0" width="9.6461878" height="9.646184"/>
		<rect x="366.1949158" y="135.4872742" class="st1" width="9.6461878" height="9.646184"/>
		<rect x="366.1949158" y="164.5127258" class="st1" width="9.6461878" height="9.6461811"/>
		<rect x="366.1949158" y="174.158905" class="st1" width="9.6461878" height="9.6461811"/>
		<rect x="375.841095" y="174.158905" class="st1" width="9.6461878" height="9.6461811"/>
		<rect x="385.4872742" y="174.158905" class="st1" width="9.6461878" height="9.6461811"/>
		<rect x="404.8665466" y="164.5127258" class="st0" width="9.6461878" height="9.6461811"/>
		<rect x="366.1949158" y="125.841095" class="st1" width="9.6461878" height="9.646184"/>
		<rect x="366.1949158" y="154.8665466" class="st1" width="9.6461878" height="9.6461811"/>
		<rect x="366.1949158" y="116.1949081" class="st1" width="9.6461878" height="9.6461821"/>
		<rect x="366.1949158" y="145.1334534" class="st1" width="9.6461878" height="9.6461811"/>
		<rect x="395.2203674" y="145.1334534" class="st0" width="9.6461878" height="9.6461811"/>
		<rect x="404.8665466" y="154.8665466" class="st1" width="9.6461878" height="9.6461811"/>
		<rect x="395.2203674" y="154.8665466" class="st1" width="9.6461878" height="9.6461811"/>
		<rect x="395.2203674" y="164.5127258" class="st0" width="9.6461878" height="9.6461811"/>
		<rect x="404.8665466" y="145.1334534" class="st0" width="9.6461878" height="9.6461811"/>
		<rect x="385.4872742" y="135.4872742" class="st1" width="9.6461878" height="9.646184"/>
		<rect x="395.2203674" y="135.4872742" class="st1" width="9.6461878" height="9.646184"/>
		<rect x="395.2203674" y="174.158905" class="st1" width="9.6461878" height="9.6461811"/>
		<rect x="385.4872742" y="145.1334534" class="st1" width="9.6461878" height="9.6461811"/>
		<rect x="404.8665466" y="135.4872742" class="st1" width="9.6461878" height="9.646184"/>
		<rect x="385.4872742" y="154.8665466" class="st1" width="9.6461878" height="9.6461811"/>
		<rect x="375.841095" y="164.5127258" class="st1" width="9.6461878" height="9.6461811"/>
		<rect x="375.841095" y="154.8665466" class="st0" width="9.6461878" height="9.6461811"/>
		<rect x="385.4872742" y="164.5127258" class="st0" width="9.6461878" height="9.6461811"/>
		<rect x="375.841095" y="145.1334534" class="st1" width="9.6461878" height="9.6461811"/>
		<rect x="404.8665466" y="125.841095" class="st0" width="9.6461878" height="9.646184"/>
		<rect x="385.4872742" y="125.841095" class="st0" width="9.6461878" height="9.646184"/>
		<rect x="375.841095" y="135.4872742" class="st0" width="9.6461878" height="9.646184"/>
		<rect x="395.2203674" y="125.841095" class="st0" width="9.6461878" height="9.646184"/>
		<rect x="375.841095" y="125.841095" class="st1" width="9.6461878" height="9.646184"/>
		<rect x="433.8050842" y="145.1334534" class="st1" width="9.6461878" height="9.6461811"/>
		<rect x="385.4872742" y="183.8050842" class="st1" width="9.6461878" height="9.6461811"/>
		<rect x="414.5127258" y="183.8050842" class="st1" width="9.6461878" height="9.6461811"/>
		<rect x="366.1949158" y="183.8050842" class="st1" width="9.6461878" height="9.6461811"/>
		<rect x="404.8665466" y="183.8050842" class="st1" width="9.6461878" height="9.6461811"/>
		<rect x="395.2203674" y="183.8050842" class="st1" width="9.6461878" height="9.6461811"/>
		<rect x="375.841095" y="183.8050842" class="st1" width="9.6461878" height="9.6461811"/>
		<rect x="356.5487366" y="164.5127258" class="st1" width="9.6461811" height="9.6461811"/>
		<rect x="356.5487366" y="154.8665466" class="st1" width="9.6461811" height="9.6461811"/>
		<rect x="356.5487366" y="174.158905" class="st1" width="9.6461811" height="9.6461811"/>
		<rect x="356.5487366" y="183.8050842" class="st1" width="9.6461811" height="9.6461811"/>
		<rect x="433.8050842" y="106.5487289" class="st1" width="9.6461878" height="9.6461821"/>
		<rect x="433.8050842" y="125.841095" class="st1" width="9.6461878" height="9.646184"/>
		<rect x="424.158905" y="183.8050842" class="st1" width="9.6461878" height="9.6461811"/>
		<rect x="433.8050842" y="135.4872742" class="st1" width="9.6461878" height="9.646184"/>
		<rect x="356.5487366" y="145.1334534" class="st1" width="9.6461811" height="9.6461811"/>
		<rect x="433.8050842" y="116.1949081" class="st1" width="9.6461878" height="9.6461821"/>
		<rect x="433.8050842" y="174.158905" class="st1" width="9.6461878" height="9.6461811"/>
		<rect x="433.8050842" y="183.8050842" class="st1" width="9.6461878" height="9.6461811"/>
		<rect x="433.8050842" y="164.5127258" class="st1" width="9.6461878" height="9.6461811"/>
		<rect x="433.8050842" y="154.8665466" class="st1" width="9.6461878" height="9.6461811"/>
		<rect x="424.158905" y="164.5127258" class="st1" width="9.6461878" height="9.6461811"/>
		<rect x="424.158905" y="145.1334534" class="st1" width="9.6461878" height="9.6461811"/>
		<rect x="424.158905" y="125.841095" class="st1" width="9.6461878" height="9.646184"/>
		<rect x="424.158905" y="135.4872742" class="st1" width="9.6461878" height="9.646184"/>
		<rect x="424.158905" y="116.1949081" class="st1" width="9.6461878" height="9.6461821"/>
		<rect x="414.5127258" y="174.158905" class="st1" width="9.6461878" height="9.6461811"/>
		<rect x="424.158905" y="106.5487289" class="st1" width="9.6461878" height="9.6461821"/>
		<rect x="424.158905" y="174.158905" class="st1" width="9.6461878" height="9.6461811"/>
		<rect x="424.158905" y="154.8665466" class="st1" width="9.6461878" height="9.6461811"/>
		<rect x="404.8665466" y="174.158905" class="st1" width="9.6461878" height="9.6461811"/>
		<rect x="356.5487366" y="116.1949081" class="st1" width="9.6461811" height="9.6461821"/>
		<rect x="356.5487366" y="135.4872742" class="st1" width="9.6461811" height="9.646184"/>
		<rect x="366.1949158" y="106.5487289" class="st1" width="9.6461878" height="9.6461821"/>
		<rect x="356.5487366" y="106.5487289" class="st1" width="9.6461811" height="9.6461821"/>
		<rect x="356.5487366" y="125.841095" class="st1" width="9.6461811" height="9.646184"/>
		<rect x="375.841095" y="106.5487289" class="st1" width="9.6461878" height="9.6461821"/>
		<rect x="395.2203674" y="106.5487289" class="st1" width="9.6461878" height="9.6461821"/>
		<rect x="414.5127258" y="106.5487289" class="st1" width="9.6461878" height="9.6461821"/>
		<rect x="404.8665466" y="106.5487289" class="st1" width="9.6461878" height="9.6461821"/>
		<rect x="385.4872742" y="106.5487289" class="st1" width="9.6461878" height="9.6461821"/>
	</g>
	<g>
		<rect x="511.0614319" y="116.1949081" class="st1" width="9.6461878" height="9.6461821"/>
		<rect x="501.4152527" y="116.1949081" class="st1" width="9.6461878" height="9.6461821"/>
		<rect x="482.1228943" y="116.1949081" class="st1" width="9.6461878" height="9.6461821"/>
		<rect x="511.0614319" y="125.841095" class="st2" width="9.6461878" height="9.646184"/>
		<rect x="491.769104" y="116.1949081" class="st1" width="9.6461878" height="9.6461821"/>
		<rect x="511.0614319" y="154.8665466" class="st2" width="9.6461878" height="9.6461811"/>
		<rect x="511.0614319" y="164.5127258" class="st1" width="9.6461878" height="9.6461811"/>
		<rect x="472.389801" y="116.1949081" class="st1" width="9.6461878" height="9.6461821"/>
		<rect x="511.0614319" y="145.1334534" class="st1" width="9.6461878" height="9.6461811"/>
		<rect x="511.0614319" y="135.4872742" class="st1" width="9.6461878" height="9.646184"/>
		<rect x="462.7436218" y="135.4872742" class="st1" width="9.6461878" height="9.646184"/>
		<rect x="462.7436218" y="164.5127258" class="st1" width="9.6461878" height="9.6461811"/>
		<rect x="462.7436218" y="174.158905" class="st1" width="9.6461878" height="9.6461811"/>
		<rect x="472.389801" y="174.158905" class="st1" width="9.6461878" height="9.6461811"/>
		<rect x="482.1228943" y="174.158905" class="st1" width="9.6461878" height="9.6461811"/>
		<rect x="501.4152527" y="164.5127258" class="st2" width="9.6461878" height="9.6461811"/>
		<rect x="462.7436218" y="125.841095" class="st1" width="9.6461878" height="9.646184"/>
		<rect x="462.7436218" y="154.8665466" class="st1" width="9.6461878" height="9.6461811"/>
		<rect x="462.7436218" y="116.1949081" class="st1" width="9.6461878" height="9.6461821"/>
		<rect x="462.7436218" y="145.1334534" class="st1" width="9.6461878" height="9.6461811"/>
		<rect x="491.769104" y="145.1334534" class="st2" width="9.6461878" height="9.6461811"/>
		<rect x="501.4152527" y="154.8665466" class="st1" width="9.6461878" height="9.6461811"/>
		<rect x="491.769104" y="154.8665466" class="st1" width="9.6461878" height="9.6461811"/>
		<rect x="491.769104" y="164.5127258" class="st2" width="9.6461878" height="9.6461811"/>
		<rect x="501.4152527" y="145.1334534" class="st2" width="9.6461878" height="9.6461811"/>
		<rect x="482.1228943" y="135.4872742" class="st1" width="9.6461878" height="9.646184"/>
		<rect x="491.769104" y="135.4872742" class="st1" width="9.6461878" height="9.646184"/>
		<rect x="491.769104" y="174.158905" class="st1" width="9.6461878" height="9.6461811"/>
		<rect x="482.1228943" y="145.1334534" class="st2" width="9.6461878" height="9.6461811"/>
		<rect x="501.4152527" y="135.4872742" class="st1" width="9.6461878" height="9.646184"/>
		<rect x="482.1228943" y="154.8665466" class="st1" width="9.6461878" height="9.6461811"/>
		<rect x="472.389801" y="164.5127258" class="st2" width="9.6461878" height="9.6461811"/>
		<rect x="472.389801" y="154.8665466" class="st1" width="9.6461878" height="9.6461811"/>
		<rect x="482.1228943" y="164.5127258" class="st2" width="9.6461878" height="9.6461811"/>
		<rect x="472.389801" y="145.1334534" class="st1" width="9.6461878" height="9.6461811"/>
		<rect x="501.4152527" y="125.841095" class="st2" width="9.6461878" height="9.646184"/>
		<rect x="482.1228943" y="125.841095" class="st2" width="9.6461878" height="9.646184"/>
		<rect x="472.389801" y="135.4872742" class="st2" width="9.6461878" height="9.646184"/>
		<rect x="491.769104" y="125.841095" class="st2" width="9.6461878" height="9.646184"/>
		<rect x="472.389801" y="125.841095" class="st1" width="9.6461878" height="9.646184"/>
		<rect x="530.3538208" y="145.1334534" class="st1" width="9.6461878" height="9.6461811"/>
		<rect x="482.1228943" y="183.8050842" class="st1" width="9.6461878" height="9.6461811"/>
		<rect x="511.0614319" y="183.8050842" class="st1" width="9.6461878" height="9.6461811"/>
		<rect x="462.7436218" y="183.8050842" class="st1" width="9.6461878" height="9.6461811"/>
		<rect x="501.4152527" y="183.8050842" class="st1" width="9.6461878" height="9.6461811"/>
		<rect x="491.769104" y="183.8050842" class="st1" width="9.6461878" height="9.6461811"/>
		<rect x="472.389801" y="183.8050842" class="st1" width="9.6461878" height="9.6461811"/>
		<rect x="453.0974426" y="164.5127258" class="st1" width="9.6461878" height="9.6461811"/>
		<rect x="453.0974426" y="154.8665466" class="st1" width="9.6461878" height="9.6461811"/>
		<rect x="453.0974426" y="174.158905" class="st1" width="9.6461878" height="9.6461811"/>
		<rect x="453.0974426" y="183.8050842" class="st1" width="9.6461878" height="9.6461811"/>
		<rect x="530.3538208" y="106.5487289" class="st1" width="9.6461878" height="9.6461821"/>
		<rect x="530.3538208" y="125.841095" class="st1" width="9.6461878" height="9.646184"/>
		<rect x="520.7076416" y="183.8050842" class="st1" width="9.6461878" height="9.6461811"/>
		<rect x="530.3538208" y="135.4872742" class="st1" width="9.6461878" height="9.646184"/>
		<rect x="453.0974426" y="145.1334534" class="st1" width="9.6461878" height="9.6461811"/>
		<rect x="530.3538208" y="116.1949081" class="st1" width="9.6461878" height="9.6461821"/>
		<rect x="530.3538208" y="174.158905" class="st1" width="9.6461878" height="9.6461811"/>
		<rect x="530.3538208" y="183.8050842" class="st1" width="9.6461878" height="9.6461811"/>
		<rect x="530.3538208" y="164.5127258" class="st1" width="9.6461878" height="9.6461811"/>
		<rect x="530.3538208" y="154.8665466" class="st1" width="9.6461878" height="9.6461811"/>
		<rect x="520.7076416" y="164.5127258" class="st1" width="9.6461878" height="9.6461811"/>
		<rect x="520.7076416" y="145.1334534" class="st1" width="9.6461878" height="9.6461811"/>
		<rect x="520.7076416" y="125.841095" class="st1" width="9.6461878" height="9.646184"/>
		<rect x="520.7076416" y="135.4872742" class="st1" width="9.6461878" height="9.646184"/>
		<rect x="520.7076416" y="116.1949081" class="st1" width="9.6461878" height="9.6461821"/>
		<rect x="511.0614319" y="174.158905" class="st1" width="9.6461878" height="9.6461811"/>
		<rect x="520.7076416" y="106.5487289" class="st1" width="9.6461878" height="9.6461821"/>
		<rect x="520.7076416" y="174.158905" class="st1" width="9.6461878" height="9.6461811"/>
		<rect x="520.7076416" y="154.8665466" class="st1" width="9.6461878" height="9.6461811"/>
		<rect x="501.4152527" y="174.158905" class="st1" width="9.6461878" height="9.6461811"/>
		<rect x="453.0974426" y="116.1949081" class="st1" width="9.6461878" height="9.6461821"/>
		<rect x="453.0974426" y="135.4872742" class="st1" width="9.6461878" height="9.646184"/>
		<rect x="462.7436218" y="106.5487289" class="st1" width="9.6461878" height="9.6461821"/>
		<rect x="453.0974426" y="106.5487289" class="st1" width="9.6461878" height="9.6461821"/>
		<rect x="453.0974426" y="125.841095" class="st1" width="9.6461878" height="9.646184"/>
		<rect x="472.389801" y="106.5487289" class="st1" width="9.6461878" height="9.6461821"/>
		<rect x="491.769104" y="106.5487289" class="st1" width="9.6461878" height="9.6461821"/>
		<rect x="511.0614319" y="106.5487289" class="st1" width="9.6461878" height="9.6461821"/>
		<rect x="501.4152527" y="106.5487289" class="st1" width="9.6461878" height="9.6461821"/>
		<rect x="482.1228943" y="106.5487289" class="st1" width="9.6461878" height="9.6461821"/>
	</g>
</g>
<polygon class="st1" points="0,300 0,0 300,0 "/>
<polygon class="st1" points="800,0 800,300 500,300 "/>
</svg>
