<svg height="81" width="339" xmlns="http://www.w3.org/2000/svg"><g fill="#2c3c69"><path d="m76.621002 68.878998v-31.406998h7.629997v24.796997h12.153999v6.609001h-19.783997v.000999z"/><path d="m121.546997 58.098999v.888s-.014999.576004-.043991.843002h-16.013008c.059006.620995.244003 1.182999.555 1.685997s.709999.938004 1.196999 1.308998c.488007.370003 1.035004.658005 1.642006.864006.604996.208 1.233994.310997 1.884995.310997 1.153 0 2.130005-.213997 2.928001-.642998.799004-.429001 1.449005-.983002 1.952003-1.664001l5.056992 3.194c-1.034988 1.507996-2.401993 2.668999-4.102997 3.482002-1.700996.811996-3.675995 1.219994-5.921997 1.219994-1.656998 0-3.223999-.259995-4.702003-.775993-1.478996-.518005-2.771996-1.271004-3.881996-2.263-1.108002-.990005-1.981003-2.210007-2.616997-3.659004s-.953003-3.104996-.953003-4.969002c0-1.802994.309998-3.437996.931-4.900997s1.463997-2.706001 2.528999-3.726002c1.064003-1.021 2.32-1.811996 3.771004-2.373997 1.447998-.561001 3.015999-.843002 4.700996-.843002 1.625999 0 3.120003.274002 4.480003.820999s2.528 1.338001 3.504997 2.373001c.975998 1.035 1.735992 2.292 2.283997 3.771.546005 1.478001.819 3.165001.819 5.056zm-6.697998-2.794998c0-1.153-.362-2.144001-1.086998-2.972-.724998-.827-1.812004-1.242001-3.260002-1.242001-.709999 0-1.360001.111-1.951996.333s-1.108002.525002-1.553001.909c-.443001.384998-.798004.835999-1.064003 1.354-.265999.517998-.414001 1.057999-.443001 1.618h9.359001z"/><path d="m133.167999 52.200001v8.461002c0 1.038994.199997 1.816994.600006 2.337997.397995.519997 1.11499.778 2.151001.778.353989 0 .730988-.028 1.130997-.088997.399002-.059006.731003-.147003.998001-.266006l.088989 5.323006c-.502991.176994-1.138992.332001-1.906998.465996-.769989.133003-1.537994.199005-2.306992.199005-1.479004 0-2.722-.186005-3.727005-.556007-1.005997-.369995-1.811996-.903999-2.416992-1.601997-.60701-.695999-1.043015-1.526001-1.309006-2.489998-.266998-.962997-.399002-2.038002-.399002-3.223999v-9.338001h-3.548996v-5.412003h3.503998v-5.810997h7.141998v5.810997h5.190002v5.412003h-5.190002z"/><path d="m161.912994 53.307999c-.59201-.560997-1.286011-1.034-2.085007-1.418999-.798004-.383999-1.640991-.577-2.528-.577-.681 0-1.30899.133999-1.884995.398998-.576996.267002-.865005.726002-.865005 1.375 0 .621002.317001 1.064003.953003 1.331001s1.664001.562 3.082993.887001c.828003.177998 1.664001.43 2.507004.754997s1.604004.754005 2.283997 1.286003c.680008.531998 1.227005 1.182999 1.642014 1.951996.412994.769005.620987 1.686005.620987 2.75 0 1.391006-.280991 2.565002-.842987 3.526001-.562012.960999-1.294006 1.737-2.196014 2.329002s-1.914993 1.019997-3.037994 1.286003c-1.123993.266998-2.248001.398994-3.371002.398994-1.804993 0-3.570999-.287994-5.302002-.864998-1.728989-.575996-3.17099-1.427002-4.32399-2.551003l4.080994-4.303001c.649002.710007 1.447998 1.302002 2.395004 1.774002.945999.473999 1.951996.709999 3.016998.709999.591995 0 1.175995-.140999 1.751999-.421997.576996-.279999.865005-.776001.865005-1.485001 0-.681-.354004-1.182999-1.064011-1.509003-.709991-.324997-1.817993-.664993-3.326996-1.020996-.768997-.177002-1.537994-.413002-2.306992-.709-.770004-.295998-1.457001-.694-2.062012-1.197998-.605988-.502007-1.10199-1.123001-1.485992-1.863007-.384003-.737995-.576004-1.625996-.576004-2.660995 0-1.331001.279999-2.462002.843002-3.394001.561996-.931999 1.285995-1.692001 2.173996-2.284.887009-.591999 1.87001-1.027 2.949005-1.308998s2.151001-.422001 3.216995-.422001c1.654999 0 3.274002.259998 4.856003.776001 1.582001.517998 2.921005 1.293999 4.014999 2.328999l-3.994995 4.127998z"/><path d="m179.567993 68.878998v-31.406998h21.113998v6.388h-13.794998v5.944h13.041v6.077h-13.041v6.521h14.593994v6.476997h-21.912994z"/><path d="m220.675003 68.878998v-12.065994c0-.621002-.053009-1.212002-.154999-1.774002-.104004-.562-.274002-1.057003-.511002-1.486-.237-.428001-.569-.769001-.998001-1.021-.429001-.25-.968994-.377003-1.619003-.377003s-1.220001.127003-1.707993.377003c-.487.251999-.895004.599998-1.220001 1.042999s-.569.953999-.731003 1.529999c-.162994.577-.244003 1.175999-.244003 1.797001v11.976997h-7.319v-22.091h7.053009v3.061001h.088989c.266998-.473.613007-.938 1.042999-1.396.428009-.459.932007-.850998 1.508011-1.175999.576996-.325001 1.204987-.591999 1.885986-.799.680008-.206001 1.404007-.311001 2.173004-.311001 1.479004 0 2.735001.266998 3.770996.799s1.87001 1.220001 2.507004 2.062c.636002.842999 1.094009 1.812 1.375 2.904999.279999 1.095001.421005 2.189003.421005 3.283001v13.661999h-7.320999v.000999z"/><path d="m246.713013 53.929001c-.415009-.532001-.977005-.959999-1.686005-1.285999-.709991-.325001-1.436005-.488003-2.173996-.488003-.770004 0-1.464005.155003-2.085007.466s-1.153.726002-1.597 1.242001c-.442993.518002-.791992 1.117001-1.042999 1.797001-.250992.681004-.376999 1.404003-.376999 2.174 0 .768997.117996 1.493004.354996 2.173004.236008.681.583008 1.279999 1.042007 1.796997.457993.517998 1.005005.924995 1.641998 1.220001.636002.295998 1.352997.443001 2.151001.443001.738007 0 1.470993-.139999 2.195007-.421005s1.30899-.687996 1.751984-1.220001l4.037018 4.924004c-.917023.887001-2.101013 1.582001-3.549011 2.084999-1.44899.501999-2.987.753998-4.612991.753998-1.74501 0-3.374008-.266998-4.887009-.798996-1.511993-.531998-2.826004-1.308998-3.940994-2.329002-1.115997-1.019997-1.992996-2.253998-2.632996-3.702995s-.959-3.090004-.959-4.924004c0-1.804001.318985-3.431.959-4.880001.639999-1.447998 1.516998-2.683998 2.632996-3.703999 1.11499-1.021 2.429993-1.804001 3.940994-2.351002 1.513-.546997 3.126999-.820999 4.843002-.820999.798004 0 1.589005.074001 2.373001.223.783005.147003 1.536987.348 2.261993.599003s1.390015.562 1.996002.931999 1.132019.776001 1.575012 1.219997l-4.212006 4.877003z"/><path d="m268.032013 52.776001c-.325989-.089001-.644012-.146999-.95401-.177002s-.613983-.044998-.908997-.044998c-.975983 0-1.796997.177998-2.462006.530998-.664978.354-1.196991.781002-1.596985 1.283001-.399017.500999-.688019 1.047001-.865021 1.636997s-.265991 1.105003-.265991 1.548004v11.324997h-7.274994v-22.063999h7.009003v3.194h.088989c.562012-1.132 1.359009-2.055 2.395996-2.77 1.034027-.715 2.232025-1.071999 3.593018-1.071999.294983 0 .583984.015999.86499.044998.279999.029003.51001.074001.688019.133003l-.312012 6.431999z"/><path d="m285.122009 72.206001c-.442993 1.153-.938995 2.181-1.485992 3.083-.546997.901001-1.197021 1.669998-1.951019 2.306999-.753998.636002-1.641998 1.114998-2.661987 1.441002-1.019989.324997-2.226013.487999-3.61499.487999-.681 0-1.382996-.044998-2.106018-.134003-.725983-.088997-1.354004-.207001-1.885986-.353996l.798981-6.121002c.354004.116997.746002.213997 1.176025.288002.427979.072998.819977.110001 1.174988.110001 1.123993 0 1.937012-.259003 2.440002-.776001.501984-.518005.931-1.249001 1.286011-2.195l.709991-1.818001-9.22699-21.736h8.072998l4.923981 14.195h.132996l4.391998-14.195h7.718018l-9.893005 25.417z"/><path d="m321.496002 57.745003c0 1.537994-.237 3.016998-.709991 4.435997-.473999 1.419998-1.161011 2.668999-2.062012 3.748001-.902008 1.080002-2.003998 1.945-3.304993 2.596001-1.302002.649002-2.779999.975998-4.437012.975998-1.359985 0-2.645996-.273003-3.859009-.82s-2.15799-1.293999-2.838989-2.239998h-.087982v13.085999h-7.275024v-32.739002h6.920013v2.706001h.132996c.681-.887001 1.618988-1.662998 2.816986-2.328999 1.197021-.665001 2.609009-.998001 4.236023-.998001 1.596985 0 3.044983.311001 4.346985.931999 1.300995.621002 2.402008 1.464001 3.304993 2.528s1.597015 2.299999 2.085022 3.704002c.488007 1.404999.731995 2.876999.731995 4.414001zm-7.053009 0c0-.709999-.110016-1.403999-.332001-2.085003-.222015-.68-.548004-1.278999-.97699-1.797001-.429016-.516998-.969025-.938-1.619019-1.264s-1.403992-.487999-2.261993-.487999c-.828003 0-1.567993.162998-2.217987.487999-.651001.325001-1.206024.754002-1.664001 1.285999-.459015.532001-.813019 1.139-1.064026 1.818001-.251984.681004-.376984 1.375004-.376984 2.085003s.125 1.404999.376984 2.084999c.251007.681.605011 1.285995 1.064026 1.818001.457977.531998 1.013.961998 1.664001 1.286995.648987.325005 1.389984.487 2.217987.487.856995 0 1.610992-.161995 2.261993-.487s1.190002-.754997 1.619019-1.286995.754974-1.146004.97699-1.841003c.221008-.693001.332001-1.394997.332001-2.104996z"/><path d="m333.118011 52.200001v8.461002c0 1.038994.200012 1.816994.600006 2.337997.39798.519997 1.11499.778 2.151001.778.354004 0 .730988-.028 1.130981-.088997.399017-.059006.731018-.147003.998016-.266006l.088989 5.323006c-.502991.176994-1.139008.332001-1.906982.465996-.77002.133003-1.538025.199005-2.307007.199005-1.479004 0-2.722015-.186005-3.72702-.556007-1.005981-.369995-1.811981-.903999-2.416992-1.601997-.606995-.695999-1.042999-1.526001-1.30899-2.489998-.266998-.962997-.399017-2.038002-.399017-3.223999v-9.338001h-3.548981v-5.412003h3.503998v-5.810997h7.141998v5.810997h5.190002v5.412003h-5.190002z"/><path d="m145.009995 36.869999c-2.182999 0-3.891998 1.573002-3.891998 3.582001 0 2.116001 1.438995 3.536999 3.582001 3.536999.182999 0 .355988-.016998.518997-.049999-.343002 1.566002-1.852005 2.690002-3.278 2.915001l-.290009.046001v3.376999l.376007-.035999c1.729996-.165001 3.438995-.951 4.690994-2.157001 1.632004-1.572998 2.49501-3.843998 2.49501-6.568001 0-2.691998-1.76799-4.646-4.203003-4.646z"/></g><path d="m46.488998 37.568001h-8.039997v-4.128002c0-3.296997-2.683002-5.979-5.98-5.979-3.297001 0-5.979 2.683002-5.979 5.979v4.128002h-8.040001v-4.128002c0-7.73 6.288998-14.019999 14.02-14.019999s14.02 6.289 14.02 14.019999v4.128002h-.001003z" fill="#f9a11d"/><path d="m49.731998 37.568001h-34.524998c-1.474001 0-2.68 1.205997-2.68 2.68v25.540001c0 1.473999 1.205999 2.68 2.68 2.68h34.524998c1.474003 0 2.68-1.206001 2.68-2.68v-25.540001c0-1.474003-1.205997-2.68-2.68-2.68zm-15.512997 16.769001v3.460995c0 .966003-.784 1.749001-1.749001 1.749001s-1.749001-.783997-1.749001-1.749001v-3.459995c-1.076-.611-1.803001-1.764-1.803001-3.09 0-1.962002 1.591-3.552002 3.552002-3.552002 1.961998 0 3.551998 1.591 3.551998 3.552002 0 1.325001-.727001 2.478001-1.802998 3.089001z" fill="#2c3c69"/><path d="m11.707001 33.759998h-8.331c-1.351001 0-2.446-1.094997-2.446-2.445999s1.094999-2.445999 2.446-2.445999h8.331c1.351 0 2.445999 1.095001 2.445999 2.445999s-1.096001 2.445999-2.445999 2.445999z" fill="#f9a11d"/><path d="m17.575001 20.655001c-.546001 0-1.097-.182001-1.552-.557001l-6.59-5.418999c-1.043001-.858002-1.194-2.399-.335001-3.443001.858-1.042999 2.399-1.194 3.443001-.336l6.59 5.419001c1.042999.858 1.194 2.399.334999 3.442999-.483.589001-1.184.893002-1.890999.893002z" fill="#f9a11d"/><path d="m32.469002 14.895c-1.351002 0-2.446003-1.095001-2.446003-2.446001v-8.396999c0-1.351 1.095001-2.446 2.446003-2.446s2.445999 1.095 2.445999 2.446v8.396999c0 1.351-1.095001 2.446001-2.445999 2.446001z" fill="#f9a11d"/><path d="m47.362999 20.655001c-.707001 0-1.406998-.304001-1.890999-.893002-.858002-1.042999-.708-2.584999.334999-3.442999l6.59-5.419001c1.044003-.858 2.585003-.706999 3.442997.336.858002 1.042999.708 2.584999-.334999 3.443001l-6.589996 5.418999c-.455002.375-1.005001.557001-1.552002.557001z" fill="#f9a11d"/><path d="m61.563004 33.759998h-8.410004c-1.351002 0-2.445999-1.094997-2.445999-2.445999s1.094997-2.445999 2.445999-2.445999h8.410004c1.350998 0 2.445999 1.095001 2.445999 2.445999s-1.095001 2.445999-2.445999 2.445999z" fill="#f9a11d"/></svg>