<svg shape-rendering="crispEdges" viewBox="0 0 41 41" xmlns="http://www.w3.org/2000/svg"><path d="m0 0h41v41h-41z" fill="#fff"/><path d="m4 4.5h7m4 0h1m1 0h2m1 0h8m2 0h7m-33 1h1m5 0h1m2 0h2m2 0h3m1 0h1m3 0h2m3 0h1m5 0h1m-33 1h1m1 0h3m1 0h1m1 0h1m1 0h1m1 0h2m1 0h4m1 0h2m1 0h1m2 0h1m1 0h3m1 0h1m-33 1h1m1 0h3m1 0h1m1 0h3m1 0h1m1 0h3m3 0h1m1 0h2m2 0h1m1 0h3m1 0h1m-33 1h1m1 0h3m1 0h1m1 0h4m3 0h1m1 0h2m2 0h1m1 0h1m2 0h1m1 0h3m1 0h1m-33 1h1m5 0h1m1 0h1m2 0h3m1 0h2m1 0h1m1 0h1m5 0h1m5 0h1m-33 1h7m1 0h1m1 0h1m1 0h1m1 0h1m1 0h1m1 0h1m1 0h1m1 0h1m1 0h1m1 0h7m-25 1h1m2 0h1m3 0h1m2 0h1m2 0h1m2 0h1m-25 1h1m1 0h5m2 0h1m2 0h6m2 0h1m1 0h1m1 0h1m1 0h5m-30 1h3m5 0h2m1 0h1m3 0h1m2 0h2m1 0h2m2 0h2m1 0h2m1 0h1m-30 1h1m2 0h6m3 0h2m1 0h1m1 0h2m2 0h2m2 0h1m1 0h2m-27 1h1m4 0h1m1 0h1m1 0h1m1 0h1m4 0h2m1 0h2m2 0h3m1 0h1m-32 1h4m1 0h1m1 0h1m9 0h2m2 0h1m1 0h2m1 0h3m1 0h1m-31 1h2m1 0h2m1 0h1m1 0h1m1 0h1m2 0h3m3 0h2m1 0h1m1 0h2m4 0h2m-30 1h2m1 0h1m2 0h2m2 0h1m5 0h1m1 0h2m1 0h8m-32 1h4m3 0h1m1 0h2m1 0h2m2 0h1m2 0h3m3 0h3m1 0h2m-31 1h2m4 0h1m2 0h2m1 0h1m1 0h1m2 0h1m1 0h1m2 0h1m2 0h1m1 0h2m3 0h1m-30 1h1m1 0h1m5 0h2m4 0h4m2 0h1m2 0h2m1 0h2m1 0h1m-32 1h2m1 0h1m1 0h4m1 0h2m1 0h4m2 0h1m1 0h1m4 0h2m1 0h2m-27 1h1m3 0h3m4 0h7m2 0h7m-32 1h1m4 0h3m1 0h1m1 0h1m2 0h1m1 0h1m3 0h1m1 0h1m2 0h1m2 0h2m1 0h1m-32 1h3m1 0h1m4 0h1m2 0h2m1 0h1m2 0h1m2 0h1m1 0h1m2 0h1m5 0h1m-33 1h1m1 0h2m1 0h2m2 0h1m1 0h1m3 0h4m1 0h2m2 0h2m1 0h1m1 0h1m1 0h1m-32 1h1m2 0h1m3 0h2m1 0h2m2 0h2m2 0h1m2 0h3m3 0h1m2 0h1m-31 1h1m1 0h3m1 0h2m2 0h3m1 0h2m1 0h2m3 0h7m-21 1h2m2 0h1m1 0h1m1 0h1m1 0h3m2 0h2m3 0h1m1 0h1m1 0h1m-33 1h7m6 0h1m1 0h2m1 0h1m3 0h3m1 0h1m1 0h1m1 0h2m-32 1h1m5 0h1m1 0h1m1 0h1m2 0h3m3 0h3m1 0h2m3 0h4m-32 1h1m1 0h3m1 0h1m1 0h1m1 0h1m1 0h1m5 0h2m1 0h1m2 0h6m-30 1h1m1 0h3m1 0h1m1 0h2m2 0h1m2 0h3m2 0h1m3 0h2m2 0h2m1 0h2m-33 1h1m1 0h3m1 0h1m1 0h2m4 0h1m2 0h1m1 0h1m1 0h4m1 0h2m1 0h2m-31 1h1m5 0h1m2 0h2m1 0h1m1 0h1m1 0h1m1 0h4m3 0h1m2 0h3m-31 1h7m1 0h4m1 0h1m3 0h1m1 0h1m3 0h3m1 0h1m1 0h1m1 0h1" stroke="#000"/></svg>