<?xml version="1.0" standalone="no"?>
<!DOCTYPE svg PUBLIC "-//W3C//DTD SVG 20010904//EN"
 "http://www.w3.org/TR/2001/REC-SVG-20010904/DTD/svg10.dtd">
<svg version="1.0" xmlns="http://www.w3.org/2000/svg"
 width="964.000000pt" height="964.000000pt" viewBox="0 0 964.000000 964.000000"
 preserveAspectRatio="xMidYMid meet">
<metadata>
Created by potrace 1.11, written by Peter Selinger 2001-2013
</metadata>
<g transform="translate(0.000000,964.000000) scale(0.100000,-0.100000)"
fill="#000000" stroke="none">
<path d="M3253 9001 c-95 -35 -165 -94 -217 -184 -946 -1632 -2217 -3845
-2229 -3881 -22 -65 -22 -187 0 -252 14 -42 2160 -3775 2249 -3912 42 -64 132
-132 205 -155 50 -16 218 -17 2344 -15 l2290 3 67 32 c84 40 151 107 192 193
29 60 31 73 31 175 0 98 -3 115 -26 160 -14 28 -243 426 -508 885 -266 459
-486 840 -488 847 -3 7 219 401 493 875 274 475 506 886 516 913 23 66 23 184
0 250 -10 28 -242 438 -516 913 -274 474 -496 868 -493 875 2 7 222 388 488
847 265 459 494 858 508 885 23 45 26 62 26 160 0 102 -2 115 -31 175 -41 86
-108 153 -192 193 l-67 32 -2295 2 c-2217 2 -2297 2 -2347 -16z m3827 -797 c0
-3 -140 -248 -311 -544 l-311 -539 -1022 -3 c-1015 -3 -1021 -3 -1084 -25 -72
-24 -135 -69 -179 -127 -45 -61 -1133 -1950 -1160 -2015 -30 -75 -32 -197 -3
-273 34 -92 1146 -2008 1193 -2056 23 -24 76 -60 116 -80 l75 -37 1032 -3
1032 -3 311 -539 c171 -296 311 -541 311 -544 0 -3 -779 -5 -1731 -4 l-1731 3
-575 995 c-316 547 -757 1311 -980 1697 l-405 703 195 337 c400 695 1691 2931
1729 2996 l39 67 1729 0 c952 0 1730 -3 1730 -6z m-232 -2572 c216 -373 392
-684 392 -690 0 -9 -194 -12 -789 -12 l-788 0 -394 682 c-217 375 -395 685
-397 690 -2 4 354 8 791 8 l794 0 391 -678z m-1784 -159 c207 -358 376 -657
376 -663 0 -7 -176 -317 -392 -691 -304 -526 -395 -676 -404 -666 -23 24 -778
1342 -778 1357 0 13 749 1323 777 1358 13 16 -32 91 421 -695z m2176 -795 c0
-6 -176 -317 -392 -690 l-391 -678 -794 0 c-437 0 -793 4 -791 8 2 5 180 316
397 690 l393 682 789 0 c593 0 789 -3 789 -12z"/>
</g>
</svg>
