<svg height="807.59375" width="1477.8381" xmlns="http://www.w3.org/2000/svg" xmlns:xlink="http://www.w3.org/1999/xlink"><filter id="a" color-interpolation-filters="sRGB" height="1.3" width="1.3" x="-.29" y="-.15"><feTurbulence baseFrequency=".00422535211 .02" numOctaves="4" result="result4" seed="76" type="fractalNoise"/><feDisplacementMap in="SourceGraphic" in2="result4" result="result3" scale="10" xChannelSelector="R" yChannelSelector="G"/><feDiffuseLighting diffuseConstant="1" in="result4" lighting-color="#e9e6d7" result="result1" surfaceScale="2"><feDistantLight azimuth="235" elevation="40"/></feDiffuseLighting><feComposite in="result3" in2="result1" operator="in" result="result2"/><feComposite in2="result1" k1="1.7" k2="0" k3="0" k4="0" operator="arithmetic" result="result5"/><feBlend in="result5" in2="result3" mode="normal"/></filter><filter id="b" color-interpolation-filters="sRGB" height="1.3" width="1.3" x="-.15" y="-.15"><feTurbulence baseFrequency=".007" numOctaves="6" result="result4" seed="0" type="fractalNoise"/><feDisplacementMap in="SourceGraphic" in2="result4" result="result3" scale="10" xChannelSelector="R" yChannelSelector="G"/><feDiffuseLighting diffuseConstant="1" in="result4" lighting-color="#e9e6d7" result="result1" surfaceScale="2"><feDistantLight azimuth="235" elevation="40"/></feDiffuseLighting><feComposite in="result3" in2="result1" operator="in" result="result2"/><feComposite in2="result1" k1="1.7" k2="0" k3="0" k4="0" operator="arithmetic" result="result5"/><feBlend in="result5" in2="result3" mode="normal"/></filter><filter id="c" color-interpolation-filters="sRGB" height="1.3" width="1.3" x="-.15" y="-.15"><feTurbulence baseFrequency=".007" numOctaves="6" result="result4" seed="0" type="fractalNoise"/><feDisplacementMap in="SourceGraphic" in2="result4" result="result3" scale="10" xChannelSelector="R" yChannelSelector="G"/><feDiffuseLighting diffuseConstant="1" in="result4" lighting-color="#e9e6d7" result="result1" surfaceScale="2"><feDistantLight azimuth="235" elevation="40"/></feDiffuseLighting><feComposite in="result3" in2="result1" operator="in" result="result2"/><feComposite in2="result1" k1="1.7" k2="0" k3="0" k4="0" operator="arithmetic" result="result5"/><feBlend in="result5" in2="result3" mode="normal"/></filter><filter id="d" color-interpolation-filters="sRGB" height="1.3" width="1.3" x="-.15" y="-.15"><feTurbulence baseFrequency=".007" numOctaves="6" result="result4" seed="0" type="fractalNoise"/><feDisplacementMap in="SourceGraphic" in2="result4" result="result3" scale="10" xChannelSelector="R" yChannelSelector="G"/><feDiffuseLighting diffuseConstant="1" in="result4" lighting-color="#e9e6d7" result="result1" surfaceScale="2"><feDistantLight azimuth="235" elevation="40"/></feDiffuseLighting><feComposite in="result3" in2="result1" operator="in" result="result2"/><feComposite in2="result1" k1="1.7" k2="0" k3="0" k4="0" operator="arithmetic" result="result5"/><feBlend in="result5" in2="result3" mode="normal"/></filter><filter id="e" color-interpolation-filters="sRGB" height="1.3" width="1.3" x="-.15" y="-.15"><feTurbulence baseFrequency=".007" numOctaves="6" result="result4" seed="0" type="fractalNoise"/><feDisplacementMap in="SourceGraphic" in2="result4" result="result3" scale="10" xChannelSelector="R" yChannelSelector="G"/><feDiffuseLighting diffuseConstant="1" in="result4" lighting-color="#e9e6d7" result="result1" surfaceScale="2"><feDistantLight azimuth="235" elevation="40"/></feDiffuseLighting><feComposite in="result3" in2="result1" operator="in" result="result2"/><feComposite in2="result1" k1="1.7" k2="0" k3="0" k4="0" operator="arithmetic" result="result5"/><feBlend in="result5" in2="result3" mode="normal"/></filter><filter id="f" color-interpolation-filters="sRGB" height="1.3" width="1.3" x="-.15" y="-.15"><feTurbulence baseFrequency=".007" numOctaves="6" result="result4" seed="0" type="fractalNoise"/><feDisplacementMap in="SourceGraphic" in2="result4" result="result3" scale="10" xChannelSelector="R" yChannelSelector="G"/><feDiffuseLighting diffuseConstant="1" in="result4" lighting-color="#e9e6d7" result="result1" surfaceScale="2"><feDistantLight azimuth="235" elevation="40"/></feDiffuseLighting><feComposite in="result3" in2="result1" operator="in" result="result2"/><feComposite in2="result1" k1="1.7" k2="0" k3="0" k4="0" operator="arithmetic" result="result5"/><feBlend in="result5" in2="result3" mode="normal"/></filter><filter id="g" color-interpolation-filters="sRGB" height="1.3" width="1.3" x="-.15" y="-.15"><feTurbulence baseFrequency=".007" numOctaves="6" result="result4" seed="0" type="fractalNoise"/><feDisplacementMap in="SourceGraphic" in2="result4" result="result3" scale="10" xChannelSelector="R" yChannelSelector="G"/><feDiffuseLighting diffuseConstant="1" in="result4" lighting-color="#e9e6d7" result="result1" surfaceScale="2"><feDistantLight azimuth="235" elevation="40"/></feDiffuseLighting><feComposite in="result3" in2="result1" operator="in" result="result2"/><feComposite in2="result1" k1="1.7" k2="0" k3="0" k4="0" operator="arithmetic" result="result5"/><feBlend in="result5" in2="result3" mode="normal"/></filter><filter id="h" color-interpolation-filters="sRGB" height="1.3" width="1.3" x="-.15" y="-.15"><feTurbulence baseFrequency=".007" numOctaves="6" result="result4" seed="0" type="fractalNoise"/><feDisplacementMap in="SourceGraphic" in2="result4" result="result3" scale="10" xChannelSelector="R" yChannelSelector="G"/><feDiffuseLighting diffuseConstant="1" in="result4" lighting-color="#e9e6d7" result="result1" surfaceScale="2"><feDistantLight azimuth="235" elevation="40"/></feDiffuseLighting><feComposite in="result3" in2="result1" operator="in" result="result2"/><feComposite in2="result1" k1="1.7" k2="0" k3="0" k4="0" operator="arithmetic" result="result5"/><feBlend in="result5" in2="result3" mode="normal"/></filter><filter id="i" color-interpolation-filters="sRGB" height="1.3" width="1.3" x="-.15" y="-.15"><feTurbulence baseFrequency=".007" numOctaves="6" result="result4" seed="0" type="fractalNoise"/><feDisplacementMap in="SourceGraphic" in2="result4" result="result3" scale="10" xChannelSelector="R" yChannelSelector="G"/><feDiffuseLighting diffuseConstant="1" in="result4" lighting-color="#e9e6d7" result="result1" surfaceScale="2"><feDistantLight azimuth="235" elevation="40"/></feDiffuseLighting><feComposite in="result3" in2="result1" operator="in" result="result2"/><feComposite in2="result1" k1="1.7" k2="0" k3="0" k4="0" operator="arithmetic" result="result5"/><feBlend in="result5" in2="result3" mode="normal"/></filter><filter id="j" color-interpolation-filters="sRGB" height="1.3" width="1.3" x="-.15" y="-.15"><feTurbulence baseFrequency=".007" numOctaves="6" result="result4" seed="0" type="fractalNoise"/><feDisplacementMap in="SourceGraphic" in2="result4" result="result3" scale="10" xChannelSelector="R" yChannelSelector="G"/><feDiffuseLighting diffuseConstant="1" in="result4" lighting-color="#e9e6d7" result="result1" surfaceScale="2"><feDistantLight azimuth="235" elevation="40"/></feDiffuseLighting><feComposite in="result3" in2="result1" operator="in" result="result2"/><feComposite in2="result1" k1="1.7" k2="0" k3="0" k4="0" operator="arithmetic" result="result5"/><feBlend in="result5" in2="result3" mode="normal"/></filter><filter id="k" color-interpolation-filters="sRGB" height="1.3" width="1.3" x="-.15" y="-.15"><feTurbulence baseFrequency=".007" numOctaves="6" result="result4" seed="0" type="fractalNoise"/><feDisplacementMap in="SourceGraphic" in2="result4" result="result3" scale="10" xChannelSelector="R" yChannelSelector="G"/><feDiffuseLighting diffuseConstant="1" in="result4" lighting-color="#e9e6d7" result="result1" surfaceScale="2"><feDistantLight azimuth="235" elevation="40"/></feDiffuseLighting><feComposite in="result3" in2="result1" operator="in" result="result2"/><feComposite in2="result1" k1="1.7" k2="0" k3="0" k4="0" operator="arithmetic" result="result5"/><feBlend in="result5" in2="result3" mode="normal"/></filter><filter id="l" color-interpolation-filters="sRGB" height="1.3" width="1.3" x="-.15" y="-.15"><feTurbulence baseFrequency=".007" numOctaves="6" result="result4" seed="0" type="fractalNoise"/><feDisplacementMap in="SourceGraphic" in2="result4" result="result3" scale="10" xChannelSelector="R" yChannelSelector="G"/><feDiffuseLighting diffuseConstant="1" in="result4" lighting-color="#e9e6d7" result="result1" surfaceScale="2"><feDistantLight azimuth="235" elevation="40"/></feDiffuseLighting><feComposite in="result3" in2="result1" operator="in" result="result2"/><feComposite in2="result1" k1="1.7" k2="0" k3="0" k4="0" operator="arithmetic" result="result5"/><feBlend in="result5" in2="result3" mode="normal"/></filter><filter id="m" color-interpolation-filters="sRGB" height="1.3" width="1.3" x="-.15" y="-.15"><feTurbulence baseFrequency=".007" numOctaves="6" result="result4" seed="0" type="fractalNoise"/><feDisplacementMap in="SourceGraphic" in2="result4" result="result3" scale="10" xChannelSelector="R" yChannelSelector="G"/><feDiffuseLighting diffuseConstant="1" in="result4" lighting-color="#e9e6d7" result="result1" surfaceScale="2"><feDistantLight azimuth="235" elevation="40"/></feDiffuseLighting><feComposite in="result3" in2="result1" operator="in" result="result2"/><feComposite in2="result1" k1="1.7" k2="0" k3="0" k4="0" operator="arithmetic" result="result5"/><feBlend in="result5" in2="result3" mode="normal"/></filter><filter id="n" color-interpolation-filters="sRGB" height="1.3" width="1.3" x="-.15" y="-.15"><feTurbulence baseFrequency=".007" numOctaves="6" result="result4" seed="0" type="fractalNoise"/><feDisplacementMap in="SourceGraphic" in2="result4" result="result3" scale="10" xChannelSelector="R" yChannelSelector="G"/><feDiffuseLighting diffuseConstant="1" in="result4" lighting-color="#e9e6d7" result="result1" surfaceScale="2"><feDistantLight azimuth="235" elevation="40"/></feDiffuseLighting><feComposite in="result3" in2="result1" operator="in" result="result2"/><feComposite in2="result1" k1="1.7" k2="0" k3="0" k4="0" operator="arithmetic" result="result5"/><feBlend in="result5" in2="result3" mode="normal"/></filter><filter id="o" color-interpolation-filters="sRGB" height="1.3" width="1.3" x="-.15" y="-.15"><feTurbulence baseFrequency=".007" numOctaves="6" result="result4" seed="0" type="fractalNoise"/><feDisplacementMap in="SourceGraphic" in2="result4" result="result3" scale="10" xChannelSelector="R" yChannelSelector="G"/><feDiffuseLighting diffuseConstant="1" in="result4" lighting-color="#e9e6d7" result="result1" surfaceScale="2"><feDistantLight azimuth="235" elevation="40"/></feDiffuseLighting><feComposite in="result3" in2="result1" operator="in" result="result2"/><feComposite in2="result1" k1="1.7" k2="0" k3="0" k4="0" operator="arithmetic" result="result5"/><feBlend in="result5" in2="result3" mode="normal"/></filter><filter id="p" color-interpolation-filters="sRGB"><feFlood flood-opacity=".239" result="flood"/><feComposite in="flood" in2="SourceGraphic" operator="in" result="composite1"/><feGaussianBlur result="blur" stdDeviation="18.4"/><feOffset dx="6" dy="6" result="offset"/><feComposite in="SourceGraphic" in2="offset" operator="over" result="composite2"/></filter><marker id="q" orient="auto" overflow="visible" refX="0" refY="0"><path d="m5.77 0-8.65 5v-10z" fill="#0aa8ff" fill-rule="evenodd" stroke="#0aa8ff" stroke-width="1pt" transform="scale(.8)"/></marker><marker id="r" orient="auto" overflow="visible" refX="0" refY="0"><path d="m5.77 0-8.65 5v-10z" fill="#0aa8ff" fill-rule="evenodd" stroke="#0aa8ff" stroke-width="1pt" transform="scale(.8)"/></marker><marker id="s" orient="auto" overflow="visible" refX="0" refY="0"><path d="m5.77 0-8.65 5v-10z" fill="#0aa8ff" fill-rule="evenodd" stroke="#0aa8ff" stroke-width="1pt" transform="scale(.8)"/></marker><marker id="t" orient="auto" overflow="visible" refX="0" refY="0"><path d="m5.77 0-8.65 5v-10z" fill="#14c814" fill-rule="evenodd" stroke="#14c814" stroke-width="1pt" transform="scale(.8)"/></marker><marker id="u" orient="auto" overflow="visible" refX="0" refY="0"><path d="m5.77 0-8.65 5v-10z" fill="#14c814" fill-rule="evenodd" stroke="#14c814" stroke-width="1pt" transform="scale(.8)"/></marker><marker id="v" orient="auto" overflow="visible" refX="0" refY="0"><path d="m5.77 0-8.65 5v-10z" fill="#14c814" fill-rule="evenodd" stroke="#14c814" stroke-width="1pt" transform="scale(.8)"/></marker><marker id="w" orient="auto" overflow="visible" refX="0" refY="0"><path d="m5.77 0-8.65 5v-10z" fill="#14c814" fill-rule="evenodd" stroke="#14c814" stroke-width="1pt" transform="scale(.8)"/></marker><marker id="x" orient="auto" overflow="visible" refX="0" refY="0"><path d="m5.77 0-8.65 5v-10z" fill="#14c814" fill-rule="evenodd" stroke="#14c814" stroke-width="1pt" transform="scale(.8)"/></marker><filter id="y" color-interpolation-filters="sRGB"><feGaussianBlur in="SourceGraphic" result="result5" stdDeviation="3"/><feTurbulence baseFrequency=".02" numOctaves="3" result="result1" seed="0" type="fractalNoise"/><feDisplacementMap in="SourceGraphic" in2="result1" result="result3" scale="30" xChannelSelector="R" yChannelSelector="G"/><feComposite in="result3" in2="result1" operator="out" result="result4"/><feComposite in2="result4" k1="0.3" k2="1" k3="0.3" operator="arithmetic" result="result6"/><feComposite in="result6" in2="result5" operator="over"/></filter><marker id="z" orient="auto" overflow="visible" refX="0" refY="0"><path d="m5.77 0-8.65 5v-10z" fill="#ff4d4d" fill-rule="evenodd" stroke="#ff4d4d" stroke-width="1pt" transform="scale(.8)"/></marker><g transform="translate(360.54457 193.6875)"><path d="m280.31732 103.82894h130.30968v36.87057h-130.30968z" fill="none" filter="url(#a)" stroke="#14c814" stroke-width=".345352" transform="matrix(2.1104716 0 0 5.7208444 -356.70384 -548.83611)"/><g filter="url(#p)" stroke-width="2.748523" transform="matrix(.43659822 0 0 .43659822 292.97807 50.146786)"><path d="m65.412121 155.07154s24.66784-21.47409 97.677319-21.47409c66.97804 0 85.80047 15.19398 104.91761 21.47409l-99.73639 48.73542z" fill="#c9781f" stroke-width="2.748523"/><g stroke-width="4.299524"><g transform="matrix(.63926204 0 0 .63926204 -21.039129 -84.874827)"><path d="m118.946 476.458c.707 14.572 15.264 7.83 21.858 3.274 6.259-4.325 8.089-.73 8.638-9.266.36-5.61 1.007-11.22.688-16.853-9.464-.858-19.759 1.396-27.518 7.033-3.996 2.905-11.49 12.174-3.666 15.812" fill="#f6d2a2"/><path d="m118.946 476.458c2.119-.788 4.364-1.348 5.802-3.264" fill="#c6b198"/><path d="m152.588 302.861c-55.784-15.687-14.304-86.654 30.492-57.464z" fill="#37abc8"/><path d="m400.436 240.071c44.155-31.014 84.056 38.959 32.74 56.565z" fill="#37abc8"/><path d="m409.934 655.8c11.216 6.94 31.716 27.923 14.891 38.098-16.166 14.802-25.214-16.247-39.403-20.549 6.111-8.298 13.856-15.865 24.512-17.549z" fill="#f6d2a2"/><path d="m424.825 693.897c-2.494-4.96-3.332-10.748-7.496-14.746" fill="none"/><path d="m209.561 679.514c-13.164 2.037-20.574 13.914-31.548 19.945-10.341 6.166-14.297-1.974-15.229-3.627-1.621-.739-1.485.688-3.987-1.831-9.587-15.13 9.989-26.189 20.182-33.705 14.198-2.871 23.096 9.438 30.582 19.218z" fill="#f6d2a2"/><path d="m162.785 695.831c.501-5.766 5.074-9.628 7.251-14.504" fill="none"/><path d="m154.916 283.26c-7.36-3.893-12.759-9.18-8.257-17.693 4.168-7.88 11.911-7.025 19.271-3.132z" fill="#077e91"/><path d="m421.549 275.859c7.36-3.893 12.759-9.18 8.257-17.693-4.168-7.881-11.91-7.025-19.271-3.132z" fill="#077e91"/><path d="m472.21 474.607c-.707 14.572-15.264 7.83-21.858 3.274-6.259-4.325-8.089-.73-8.638-9.265-.36-5.61-1.007-11.22-.688-16.853 9.464-.858 19.759 1.396 27.518 7.033 3.996 2.904 11.49 12.174 3.666 15.811" fill="#f6d2a2"/><path d="m472.21 474.607c-2.119-.788-4.364-1.348-5.802-3.264" fill="#c6b198"/><path d="m289.988 210.595c55.847 0 108.2 7.987 135.492 61.642 24.496 60.141 15.785 124.993 19.521 188.553 3.208 54.577 10.322 117.629-14.997 168.205-26.635 53.21-93.191 66.595-148.026 64.634-43.071-1.541-95.101-15.593-119.409-54.944-28.519-46.165-15.017-114.81-12.946-166.179 2.454-60.849-16.482-121.882 3.508-181.425 20.737-61.765 76.665-75.724 136.857-80.486" fill="#37abc8"/><g fill="#fff"><path d="m299.847 285.567c10.027 58.288 105.304 42.877 91.619-15.91-12.271-52.716-94.951-38.124-91.619 15.91"/><path d="m185.992 294.994c12.996 50.745 94.24 37.753 91.178-13.149-3.669-60.964-103.603-49.2-91.178 13.149"/><path d="m318.343 353.511c.044 7.79 1.843 15.403.289 24.148-1.935 3.656-5.729 4.043-9.001 5.52-4.524-.71-8.328-3.68-10.143-7.912-1.161-9.202.433-18.111.726-27.316z"/></g><g><ellipse cx="208.39999" cy="286.71799" rx="13.719" ry="14.86"/><ellipse cx="214.64" cy="290.07101" fill="#fff" rx="3.234" ry="3.777"/></g><g><ellipse cx="323.34799" cy="283.017" rx="13.491" ry="14.86"/><ellipse cx="329.48499" cy="286.371" fill="#fff" rx="3.181" ry="3.777"/></g><path d="m279.137 354.685c-5.986 14.507 3.338 43.515 19.579 22.119-1.161-9.202.433-18.111.726-27.316z" fill="#fff"/><path d="m278.185 326.748c-11.156.951-20.276 14.216-14.475 24.71 7.682 13.9 24.828-1.23 35.507.188 12.291.252 22.361 12.996 32.233 2.304 10.979-11.892-4.727-23.474-17.002-28.652z" fill="#f6d2a2"/></g><g transform="matrix(.63926204 0 0 .63926204 -21.039129 -84.874827)"><path d="m135.236 375.349s3.532 38.261 3.29 54.754c-.242 16.492 15.56 6.079 16.38 32.016s-9.572 21.018-15.047 33.713c-5.475 12.694-9.196 72.145-9.196 72.145s5.618 11.108 23.166 21.11 45.765 15.62 70.198 14.513 41.885-6.341 46.249-9.236c4.363-2.894 11.605-12.05 14.329-19.131s8.415-65.402 8.018-98.775-5.911-64.166-5.911-64.166z" fill="#ef9325"/><g fill="#e5e5e5"><path d="m290.007 537.841c-71.952 8.032-155.439-14.172-155.439-14.172s1.226-22.521 6.626-30.447c74.833 23.185 150.329 15.834 150.329 15.834 1.12 10.514.331 18.872-1.516 28.785z"/><path d="m280.95 582.228c-71.952 8.032-150.287-15.064-150.287-15.064s-.251-21.631 2.607-31.13c74.833 23.185 154.763 17.407 154.763 17.407-.673 11.413-2.278 22.646-7.083 28.787z"/></g></g><g transform="matrix(.63926204 0 0 .63926204 -21.039129 -84.874827)"><path d="m452.156 375.349s-.488 38.261-.243 54.754c.245 16.492-9.578 6.079-10.409 32.016s9.692 21.018 15.236 33.713c5.544 12.694 9.312 72.145 9.312 72.145s-5.689 11.108-23.457 21.11-46.34 15.62-71.08 14.513-42.411-6.341-46.83-9.236-11.751-12.05-14.509-19.131-8.521-65.402-8.119-98.775 5.985-64.166 5.985-64.166z" fill="#ef9325"/><g fill="#e5e5e5"><path d="m304.706 537.841c72.856 8.032 157.392-14.172 157.392-14.172s-1.242-22.521-6.709-30.447c-75.774 23.185-152.218 15.834-152.218 15.834-1.134 10.514-.335 18.872 1.535 28.785z"/><path d="m313.876 582.228c72.856 8.032 152.175-15.064 152.175-15.064s.254-21.631-2.64-31.13c-75.774 23.185-156.707 17.407-156.707 17.407.682 11.413 2.307 22.646 7.172 28.787z"/></g></g><g transform="matrix(.63926204 0 0 .63926204 -21.039129 -84.874827)"><path d="m481.221 445.525c-2.264 4.272-6.745 6.334-10.009 4.604l-2.615-1.385c-3.264-1.729-4.076-6.595-1.812-10.867l50.985-96.234c2.263-4.272 6.745-6.334 10.009-4.604l2.615 1.385c3.264 1.729 4.076 6.595 1.812 10.867z" fill="#d2e261"/><path d="m457.143 490.972c-1.319 2.489-5.034 3.105-8.298 1.375l-2.615-1.385c-3.264-1.729-4.842-5.149-3.523-7.638l23.92-45.149c1.319-2.489 5.034-3.105 8.298-1.375l2.615 1.385c3.264 1.729 4.842 5.149 3.523 7.638z"/><path d="m478.411 436.54-2.615-1.385c-3.264-1.729-6.604-1.823-7.459-.21l-1.529 2.886c.855-1.614 4.194-1.52 7.459.21l2.615 1.385c3.264 1.729 5.218 4.44 4.363 6.053l1.529-2.886c.855-1.613-1.099-4.323-4.363-6.053z" fill="#9b9b9b"/></g></g><ellipse cx="456.83801" cy="462.66101" fill="#f6d2a2" rx="11.224" ry="8.683" stroke-width="4.299512" transform="matrix(.59911638 .2229746 -.2229746 .59911638 100.48325 -168.1724)"/><g stroke-width="4.299524" transform="matrix(.63926204 0 0 .63926204 -21.039129 -84.874827)"><path d="m111.779 447.078c2.065 4.372 6.447 6.637 9.787 5.059l2.675-1.264c3.34-1.578 4.374-6.401 2.309-10.773l-46.518-98.471c-2.065-4.372-6.447-6.637-9.787-5.059l-2.675 1.264c-3.34 1.578-4.374 6.401-2.309 10.773z" fill="#d2e261"/><path d="m133.748 493.582c1.203 2.547 4.886 3.332 8.227 1.755l2.675-1.264c3.34-1.578 5.073-4.922 3.869-7.469l-21.825-46.199c-1.203-2.547-4.886-3.332-8.227-1.755l-2.675 1.264c-3.34 1.578-5.073 4.922-3.869 7.469z"/><path d="m114.998 438.232 2.675-1.264c3.34-1.578 6.68-1.519 7.46.132l1.395 2.954c-.78-1.651-4.12-1.71-7.46-.133l-2.675 1.264c-3.34 1.578-5.416 4.196-4.636 5.847l-1.395-2.954c-.779-1.65 1.296-4.268 4.636-5.846z" fill="#9b9b9b"/></g><ellipse cx="137.56" cy="463.922" fill="#f6d2a2" rx="11.224" ry="8.683" stroke-width="4.299512" transform="matrix(-.59911638 .2229746 -.2229746 -.59911638 252.76813 458.95304)"/><g stroke-width="4.299524" transform="matrix(.63926204 0 0 .63926204 -21.039129 -84.874827)"><g stroke-width="4.299524"><g><path d="m159.132 324.732c-2.218 4.033-7.45 5.414-11.687 3.084l-4.873-2.679c-4.237-2.33-5.873-7.488-3.656-11.521l50.714-92.23c2.218-4.033 7.45-5.414 11.687-3.084l4.873 2.679c4.237 2.33 5.33 6.689 3.656 11.521-17.765 51.258-50.714 92.23-50.714 92.23z" fill="#960000"/><path d="m172.547 272.051c15.422-28.047 25.555-52.169 23.141-54.905l.057-.103c-.066-.036-.136-.06-.202-.096-.008-.005-.01-.021-.019-.026l-.007.014c-23.699-12.841-55.583-.124-71.334 28.522s-9.41 62.381 14.128 75.514l-.007.014c.009.005.023-.002.032.002.066.037.123.083.189.119l.057-.103c3.602.573 18.543-20.905 33.965-48.952z" fill="#595959"/></g><g><path d="m426.693 324.925c2.1 4.095 7.291 5.627 11.593 3.42l4.948-2.538c4.302-2.206 6.087-7.315 3.987-11.41l-48.031-93.655c-2.1-4.095-7.291-5.627-11.593-3.42l-4.948 2.538c-4.302 2.206-5.521 6.533-3.987 11.41 16.279 51.749 48.031 93.655 48.031 93.655z" fill="#960000"/><path d="m414.804 271.879c-14.606-28.48-24.039-52.885-21.547-55.55l-.054-.105c.067-.034.138-.056.205-.09.009-.005.011-.021.02-.025l.007.014c24.059-12.152 55.563 1.48 70.481 30.569s7.606 62.627-16.301 75.075l.007.014c-.009.004-.023-.003-.032.001-.067.035-.125.08-.192.114l-.054-.105c-3.618.468-17.934-21.432-32.54-49.912z" fill="#595959"/></g><path d="m462.36 259.869s-17.746-44.446-38.326-67.945c-20.58-23.498-221.937-31.512-255.003 0s-45.533 67.945-45.533 67.945v-9.844s15.295-43.268 45.533-67.945 228.946-23.378 254.582 0c25.635 23.378 38.747 67.945 38.747 67.945z" fill="#353535"/></g><ellipse cx="462.09201" cy="248.211" fill="#960000" rx="6.949" ry="16.975" stroke-width="4.299623" transform="matrix(-.8898 .4563 -.4563 -.8898 986.5333 258.1984)"/><ellipse cx="125.962" cy="247.02901" fill="#960000" rx="6.949" ry="16.975" stroke-width="4.299453" transform="matrix(.8763 .4818 -.4818 .8763 134.6121 -30.1261)"/></g><g fill="#fff" stroke-width="4.299524" transform="matrix(.63926204 0 0 .63926204 -21.039129 -84.874827)"><path d="m386.49 250.492h-37.205-29.494-45.236-25.555-50.32c-33.72 0-33.604 89.606-1.945 94.771l65.466-4.21c7.915 0 23.719-30.655 26.684-33.065s12.729-2.704 16.575 0 12.593 29.976 20.507 29.976l65.466 7.298c30.579-14.072 22.87-94.77-4.943-94.77z" opacity=".6"/><path d="m248.545 269.019c-20.685-.462-53.05-.274-70.729-.13-2.964 9.719-6.269 22.024-4.63 33.972 16.056 0 50.96.078 75.782.078 14.946 0 27.512 2.82 39.198 5.875.288-.368.53-.639.719-.792 2.965-2.41 12.729-2.704 16.575 0 .995.7 2.323 3.058 3.874 6.149 5.967 1.258 11.943 2.127 18.153 2.205 16.915.214 56.557.146 82.066.074 3.249-10.857.853-22.495.125-33.432-24.906 0-64.487-.562-83.463-.562-26.738-.001-50.083-12.821-77.67-13.437z" opacity=".5"/></g><path d="m155.89646 123.63135c-.52803-12.35565 23.02878-13.90011 25.81085-3.55813 2.77504 10.31833-24.65122 12.71492-25.81085 3.55813-.92565-7.31124 0 0 0 0z" stroke-width="2.748523"/><g stroke-width="16.79652" transform="matrix(.16363642 0 0 .16363643 2.866751 26.432443)"><g fill="#333" transform="matrix(4.1803662 0 0 4.1803662 -117.56255 1825.0688)"><path d="m119.09119 162.63228h4.14844c1.68746 0 3.04684-.0469 4.07813-.14063 1.07808-.0937 2.13277-.30468 3.16406-.63281 1.07808-.32812 1.87495-.84375 2.39062-1.54687.51558-.75.77339-1.71094.77344-2.88282-.00005-1.31249-.44536-2.46093-1.33594-3.44531-.89067-.98437-2.10942-1.47655-3.65625-1.47656h-.42187l-4.78125.21094h-.77344c-2.95316 0-5.10941-1.05468-6.46875-3.16407-1.3594-2.15623-2.03909-5.64842-2.03906-10.47656v-38.32031h12.9375c3.0937.00006 4.64058-1.335877 4.64062-4.007814-.00004-1.265559-.39848-2.296808-1.19531-3.09375-.75004-.796806-1.89848-1.195243-3.44531-1.195313h-12.9375v-20.390625c-.00003-1.640533-.46878-2.88272-1.40625-3.726562-.93753-.890531-2.1094-1.335843-3.51563-1.335938-1.50002.000095-2.88283.539157-4.14843 1.617188-1.21877 1.078217-1.87502 2.367278-1.96875 3.867187l-1.68751 19.96875h-8.64844c-1.546881.00007-2.718754.398507-3.515625 1.195313-.796878.750067-1.195315 1.734441-1.195313 2.953125-.000002 1.265689.398435 2.2735 1.195313 3.023437.843745.750062 2.039057 1.125062 3.585937 1.125002h8.578128v40.5c-.00001 7.26564 1.59374 12.65626 4.78126 16.17187 3.18747 3.46875 7.47653 5.20313 12.86718 5.20313"/><path d="m154.80994 161.6479c1.73436 0 3.23436-.51562 4.5-1.54687 1.31248-1.03125 1.96873-2.48437 1.96875-4.35938v-36.21093c-.00002-5.48433 1.73435-9.86714 5.20313-13.14844 3.51559-3.28119 8.43746-4.92182 14.76562-4.92188 1.49996.00006 2.6484-.49212 3.44532-1.476559.79682-1.031187 1.19526-2.249936 1.19531-3.65625-.00005-1.499933-.44536-2.812432-1.33594-3.9375-.84379-1.12493-2.01567-1.687429-3.51562-1.6875-4.96879.000071-9.23441 1.476632-12.79688 4.429687-3.51565 2.906314-5.8594 6.539122-7.03125 10.898442l.0703-8.437504c-.00002-1.781184-.63283-3.163995-1.89843-4.148438-1.21877-1.03118-2.69534-1.546805-4.42969-1.546875-1.73439.00007-3.23439.515695-4.5 1.546875-1.26564.984443-1.89845 2.414129-1.89844 4.289063v58.007809c-.00001 1.87501.60936 3.32813 1.82813 4.35938 1.21873 1.03125 2.69529 1.54687 4.42968 1.54687"/><path d="m326.8058 161.6479c1.73435 0 3.23435-.53906 4.5-1.61718 1.2656-1.125 1.89841-2.67187 1.89844-4.64063v-54.63281h11.88281c2.99996.00006 4.49996-1.359314 4.5-4.078127-.00004-1.218683-.37504-2.226495-1.125-3.023437-.70317-.796806-1.82817-1.195243-3.375-1.195313h-11.88281v-5.484375c-.00003-3.796796.14059-6.796793.42187-9 .3281-2.249914.91404-3.960849 1.75782-5.132812.89059-1.21866 1.8984-1.992097 3.02343-2.320313 1.12497-.374908 2.69528-.562408 4.71094-.5625h5.97656c1.40621.000092 2.48433-.468657 3.23438-1.40625.79682-.937406 1.19526-2.062404 1.19531-3.375-.00005-1.312402-.39849-2.437401-1.19531-3.375-.75005-.984274-1.80474-1.476461-3.16406-1.476562h-8.57813c-6.28128.000101-11.20315 1.781349-14.76562 5.34375-3.56252 3.515717-5.34377 9.468836-5.34375 17.859375v8.929687h-9.21094c-1.54688.00007-2.69532.398507-3.44531 1.195313-.75001.796942-1.12501 1.804754-1.125 3.023437-.00001 1.171939.37499 2.156313 1.125 2.953125.74999.750062 1.89843 1.125062 3.44531 1.125002h9.21094v54.63281c-.00002 1.96876.60935 3.51563 1.82812 4.64063 1.26561 1.07812 2.76561 1.61718 4.5 1.61718"/><path d="m371.17299 75.515091c2.48435.000086 4.47654-.703038 5.97656-2.109375 1.49998-1.453035 2.24998-3.328033 2.25-5.625-.00002-2.343654-.75002-4.218652-2.25-5.625-1.50002-1.453024-3.46877-2.179586-5.90625-2.179688-2.48439.000102-4.50001.726664-6.04687 2.179688-1.50001 1.453223-2.25001 3.328221-2.25 5.625-.00001 2.296967.74999 4.171965 2.25 5.625 1.49998 1.406337 3.49217 2.109461 5.97656 2.109375m-.0703 86.132809c1.73435 0 3.23435-.5625 4.5-1.6875 1.31247-1.17187 1.96872-2.74218 1.96875-4.71093v-57.164067c-.00003-1.968684-.63284-3.515557-1.89844-4.640625-1.21877-1.12493-2.6719-1.68743-4.35938-1.6875-1.73439.00007-3.25782.56257-4.57031 1.6875-1.26564 1.125068-1.89845 2.671941-1.89844 4.640625v57.164067c-.00001 2.0625.60937 3.65625 1.82813 4.78125 1.21873 1.07812 2.6953 1.61718 4.42969 1.61718"/><path d="m404.92299 161.6479c1.73436 0 3.23435-.5625 4.5-1.6875 1.31248-1.12499 1.96873-2.6953 1.96875-4.71093v-30.65625l33.04687 35.15625c1.17182 1.3125 2.57807 1.96875 4.21875 1.96875 1.54682 0 2.90619-.58594 4.07813-1.75782 1.21868-1.17187 1.82806-2.5078 1.82812-4.00781-.00006-1.35937-.51569-2.57812-1.54687-3.65625l-27.91406-29.39062 25.52343-22.85157c1.12494-1.078059 1.68744-2.27337 1.6875-3.585934-.00006-1.453058-.586-2.765557-1.75781-3.9375-1.12506-1.171805-2.43756-1.757742-3.9375-1.757813-1.17193.000071-2.27349.445383-3.30469 1.335938l-31.92187 29.249999v-53.789062c-.00002-1.968654-.63284-3.515527-1.89844-4.640625-1.21877-1.1249-2.67189-1.687399-4.35937-1.6875-1.73439.000101-3.25783.5626-4.57032 1.6875-1.26563 1.125098-1.89844 2.671971-1.89843 4.640625v87.679692c-.00001 2.0625.60936 3.65625 1.82812 4.78125 1.21874 1.07812 2.6953 1.61718 4.42969 1.61718"/></g><path d="m776.62606 2500.7168c-33.86547-2.9196-59.74328-13.1348-78.56521-31.0137-19.14975-18.1909-27.36664-41.9069-24.12384-69.6286 3.73164-31.9013 18.89136-54.4293 45.47029-67.5719 20.48497-10.1294 40.92086-13.9825 74.2015-13.9904 23.6457-.01 43.45939 1.9263 73.67896 7.1839 7.4724 1.3001 13.94181 2.3644 14.37649 2.3653.63211 0 1.13342-2.3782 2.5045-11.8865 2.48071-17.2034 2.92533-23.1396 2.24949-30.0309-.78666-8.0217-1.81332-11.8425-4.85232-18.0592-7.8409-16.0392-26.4539-25.8526-56.3431-29.7057-8.54805-1.1019-28.27642-1.2561-36.83948-.2884-14.34651 1.622-22.35237 3.6887-40.20696 10.3786-10.44586 3.9141-10.4936 3.9262-14.66034 3.6816-7.16306-.4197-12.05304-3.6628-15.18945-10.0734-1.29168-2.6399-1.5188-3.7297-1.51885-7.2868 0-5.3399 1.39069-8.1747 6.23314-12.7045 10.85909-10.1583 29.13255-18.8091 47.57591-22.5234 11.80945-2.3782 17.62271-2.8782 33.18165-2.8543 16.09952.042 26.39396.9338 40.7011 3.5942 23.79706 4.4245 41.86649 12.2234 55.49189 23.9501 4.04288 3.4794 10.13915 10.3276 12.75137 14.3237.79841 1.2215 1.6209 2.221 1.8277 2.221.20693 0 1.52767-1.4677 2.9352-3.2611 20.63182-26.2903 55.38062-41.1712 96.0916-41.1503 28.7948 0 55.5598 7.2994 75.5111 20.5528 15.8247 10.5123 28.6803 26.7063 33.8736 42.6702 2.9819 9.1659 3.4352 12.5529 3.4627 25.8661.016 8.2838-.2116 13.8713-.6736 16.4602-4.6692 26.1661-15.7909 44.2934-35.0951 57.2012-15.53 10.384-35.0343 16.4601-60.5435 18.8601-12.8411 1.2081-36.32755 1.094-51.54251-.2509-12.9128-1.1411-28.76889-3.149-35.53309-4.4992-5.6619-1.1304-25.0506-4.3677-25.21024-4.2092-.0703.071-.99285 5.8692-2.04985 12.888-1.68766 11.2067-1.92673 14.003-1.96214 22.9511-.0376 9.0977.0915 10.6938 1.18915 14.8925 3.52969 13.5013 11.30818 22.5326 25.42034 29.5146 13.88254 6.8684 28.43586 9.8406 50.42569 10.2988 9.73545.2048 14.72115.062 20.81185-.5827 14.7651-1.5656 21.4933-3.2833 41.1098-10.4948 4.8858-1.7964 9.872-3.4309 11.0805-3.6324 2.5898-.4318 7.4198.4599 10.2348 1.89 5.081 2.5805 9.3499 9.4627 9.3233 15.0301-.029 6.5042-2.2232 10.4438-8.6626 15.5672-15.3968 12.2502-35.0556 19.7627-58.5228 22.3646-8.3681.928-27.4738 1.0647-36.70232.2633-25.98905-2.2573-44.03272-6.7024-60.52259-14.9089-12.86662-6.4034-22.68346-14.3474-30.01545-24.2895-1.80157-2.443-3.33187-4.5027-3.40069-4.578-.069-.075-1.26635 1.3361-2.66126 3.1353-6.16583 7.9536-15.59468 16.5025-24.80897 22.4937-13.30221 8.6492-32.39892 15.2475-51.72224 17.8715-5.76268.7822-24.88234 1.4276-29.78512 1.005zm33.18166-37.2321c15.77633-3.4964 29.83536-11.3772 40.04156-22.4447 9.30988-10.0952 16.94591-25.2189 21.14838-41.8852 2.36889-9.395 6.30655-35.5428 5.43369-36.082-.34447-.2132-2.42546-.5497-4.62386-.7487-2.19846-.2007-8.46495-.9389-13.92555-1.645-32.43526-4.195-52.33389-5.8249-63.48931-5.1995-21.20826 1.188-29.85413 3.0395-42.58748 9.1207-6.5233 3.1152-11.02568 6.4959-14.5881 10.953-5.11092 6.3951-8.19582 12.7501-10.34612 21.3132-1.5648 6.2312-1.72448 22.5471-.27214 27.804 2.44652 8.8552 5.35078 13.8671 11.88143 20.5034 8.94252 9.0869 20.73103 15.1488 35.35353 18.18 7.47705 1.5501 7.25577 1.535 19.77505 1.3465 9.08402-.1379 12.48275-.393 16.19892-1.2157zm206.66678-122.6017c13.1943-1.1642 21.3072-3.2126 31.2752-7.8955 8.2903-3.8952 13.1088-7.8762 17.6686-14.5978 6.7131-9.8962 9.3272-19.2614 9.2601-33.1758-.048-9.9175-.8885-14.0431-4.3122-21.1631-7.6497-15.908-25.6199-27.3028-49.1887-31.1902-5.8812-.9698-21.66658-.7976-27.69493.3011-11.5973 2.116-21.40043 5.9729-30.04639 11.8207-15.97364 10.8042-26.99764 27.0905-33.13643 48.9538-2.41127 8.5877-3.05405 11.884-5.20388 26.687l-1.98309 13.6552 2.65642.2926c8.02308.8896 26.11491 3.0802 36.62189 4.4346 6.6102.852 14.72275 1.7612 18.02786 2.0208 9.55476.75 26.68545.6802 36.05555-.1463z" fill="#37abc8"/></g></g><text font-family="Purisa" font-size="24" font-weight="bold" letter-spacing="0" word-spacing="0" x="778.0542" y="11.485144"><tspan font-family="Purisa" font-weight="bold" x="778.0542" y="11.485144">API</tspan></text><path d="m280.31732 103.82894h130.30968v36.87057h-130.30968z" fill="none" filter="url(#b)" stroke="#14c814" stroke-width=".575586" transform="matrix(.77983936 0 0 1.8161173 533.99855 -221.27532)"/><text font-family="Purisa" font-size="24" font-weight="bold" letter-spacing="0" word-spacing="0" x="744.12561" y="337.91373"><tspan font-family="Purisa" font-weight="bold" x="744.12561" y="337.91373">BACKOFFICE 1</tspan></text><path d="m280.31732 103.82894h130.30968v36.87057h-130.30968z" fill="none" filter="url(#c)" stroke="#14c814" stroke-width=".575586" transform="matrix(1.8463801 0 0 1.808317 209.46701 106.10695)"/><text font-family="Purisa" font-size="24" font-weight="bold" letter-spacing="0" word-spacing="0" x="931.26855" y="40.770851"><tspan font-family="Purisa" font-weight="bold" x="931.26855" y="40.770851">DATA</tspan></text><path d="m280.31732 103.82894h130.30968v36.87057h-130.30968z" fill="none" filter="url(#d)" stroke="#14c814" stroke-width=".575586" transform="matrix(.9950061 0 0 1.8142382 628.59301 -191.75986)"/><text font-family="Purisa" font-size="24" font-weight="bold" letter-spacing="0" word-spacing="0" x="845.5542" y="153.62798"><tspan font-family="Purisa" font-weight="bold" x="845.5542" y="153.62798">WEB</tspan></text><path d="m280.31732 103.82894h130.30968v36.87057h-130.30968z" fill="none" filter="url(#e)" stroke="#14c814" stroke-width=".575586" transform="matrix(.77983936 0 0 1.8161173 601.49857 -79.132456)"/><text font-family="Purisa" font-size="24" font-weight="bold" letter-spacing="0" word-spacing="0" x="914.12561" y="247.91368"><tspan font-family="Purisa" font-weight="bold" x="914.12561" y="247.91368">ADMIN</tspan></text><path d="m280.31732 103.82894h130.30968v36.87057h-130.30968z" fill="none" filter="url(#f)" stroke="#14c814" stroke-width=".575586" transform="matrix(1.0928312 0 0 1.8134524 584.79719 15.479066)"/><text font-family="Purisa" font-size="24" font-weight="bold" letter-spacing="0" word-spacing="0" x="743.41138" y="425.05661"><tspan font-family="Purisa" font-weight="bold" x="743.41138" y="425.05661">BACKOFFICE 2</tspan></text><path d="m280.31732 103.82894h130.30968v36.87057h-130.30968z" fill="none" filter="url(#g)" stroke="#14c814" stroke-width=".575586" transform="matrix(1.8463801 0 0 1.808317 208.75275 193.24981)"/><text font-family="Purisa" font-size="24" font-weight="bold" letter-spacing="0" word-spacing="0" x="743.41138" y="515.05652"><tspan font-family="Purisa" font-weight="bold" x="743.41138" y="515.05652">BACKOFFICE 3</tspan></text><path d="m280.31732 103.82894h130.30968v36.87057h-130.30968z" fill="none" filter="url(#h)" stroke="#14c814" stroke-width=".575586" transform="matrix(1.8463801 0 0 1.808317 208.75275 283.24981)"/><path id="A" d="m6.2008865 61.99427c291.6068435 11.159837 200.7892535 81.67282 273.6113735 79.21032" fill="none" filter="url(#h)" marker-end="url(#s)" stroke="#0aa8ff" stroke-width=".6" transform="matrix(2 0 0 2 -328.64049 -191.89475)"/><path id="B" d="m11.532646 290.78694c233.895554-13.32018 184.447104-107.11657 268.784684-96.56854" fill="none" filter="url(#h)" marker-end="url(#q)" stroke="#0aa8ff" stroke-width=".6" transform="matrix(2 0 0 2 -328.64049 -191.89475)"/><path id="C" d="m11.027571 172.346c40.080203-26.44115 182.602619-25.968 269.794839-3.86729" fill="none" filter="url(#h)" marker-end="url(#r)" stroke="#0aa8ff" stroke-width=".6" transform="matrix(2 0 0 2 -320.15521 -190.48054)"/><text font-family="Purisa" font-size="24" font-weight="bold" letter-spacing="0" transform="translate(-1.414214 -9.899495)" word-spacing="0"><textPath xlink:href="#A"><tspan font-family="Purisa" font-weight="bold">API.DOMAIN.COM</tspan></textPath></text><text font-family="Purisa" font-size="24" font-weight="bold" letter-spacing="0" transform="translate(0 -9.899495)" word-spacing="0"><textPath xlink:href="#C"><tspan font-family="Purisa" font-weight="bold">DOMAIN.COM/WEB</tspan></textPath></text><text font-family="Purisa" font-size="24" font-weight="bold" letter-spacing="0" transform="translate(-2.828427 -9.899495)" word-spacing="0"><textPath xlink:href="#B"><tspan font-family="Purisa" font-weight="bold">BACKOFFICE.DOMAIN.COM</tspan></textPath></text><g fill="none"><path d="m280.31732 103.82894h130.30968v36.87057h-130.30968z" filter="url(#a)" stroke="#14c814" stroke-dashoffset=".339715" stroke-width=".538619" transform="matrix(3.4166657 0 0 16.261584 -329.71074 -1746.0793)"/><path d="m412.65731 145.15348c105.36617 6.90432 80.57057 23.35788 160.03994 21.35318" filter="url(#i)" marker-end="url(#w)" stroke="#14c814" stroke-width=".6" transform="matrix(2 0 0 2 -328.64049 -191.89475)"/><path d="m411.94302 140.15348c116.01666 1.72762 36.53001-49.796081 128.61138-51.503961" filter="url(#j)" marker-end="url(#u)" stroke="#14c814" stroke-width=".6" transform="matrix(2 0 0 2 -328.64049 -191.89475)"/><path d="m412.30017 150.15348c94.60143 44.17539-3.50136 152.71789 78.96852 149.21032" filter="url(#k)" stroke="#14c814" stroke-width=".6" transform="matrix(2 0 0 2 -328.64049 -191.89475)"/><path d="m491.58228 299.26961c39.11912-10.42269-.90377-36.97359 36.11497-42.76295" filter="url(#l)" marker-end="url(#v)" stroke="#14c814" stroke-width=".6" transform="matrix(2 0 0 2 -328.64049 -191.89475)"/><path d="m491.50111 299.25475c31.83209-1.05365-.27127 53.5521 36.74805 47.762" filter="url(#n)" marker-end="url(#x)" stroke="#14c814" stroke-width=".6" transform="matrix(2 0 0 2 -328.64049 -191.89475)"/></g><text font-family="Purisa" font-size="24" font-weight="bold" letter-spacing="0" word-spacing="0" x="650.98431" y="-118.11623"><tspan font-family="Purisa" font-weight="bold" x="650.98431" y="-118.11623">ORCHESTRATOR</tspan></text><path d="m189.56777-173.69567v767.61096" fill="none" stroke="#000" stroke-dasharray="12.310899 12.310899" stroke-width="2.051816"/><text font-family="Purisa" font-size="24" font-weight="bold" letter-spacing="0" word-spacing="0" x="215.88057" y="-151.68956"><tspan font-family="Purisa" font-weight="bold" x="215.88057" y="-151.68956">PRIVATE NETWORK</tspan></text><text font-family="Purisa" font-size="24" font-weight="bold" letter-spacing="0" word-spacing="0" x="20.92112" y="-152.69972"><tspan font-family="Purisa" font-weight="bold" x="20.92112" y="-152.69972">INTERNET</tspan></text><path d="m478.78198 351.97006c-54.15937-14.85978-123.23365-44.54075-125.94706-124.23494" fill="none" filter="url(#o)" marker-end="url(#z)" stroke="#ff4d4d" stroke-width=".6" transform="matrix(2 0 0 2 -328.64049 -191.89475)"/><text font-family="Purisa" font-size="24" font-weight="bold" letter-spacing="0" transform="matrix(.94322266 .33216113 -.33216113 .94322266 0 0)" word-spacing="0" x="709.37872" y="301.61591"><tspan font-family="Purisa" font-weight="bold" x="709.37872" y="301.61591">API</tspan></text><text font-family="Purisa" font-size="24" font-weight="bold" letter-spacing="0" transform="matrix(.25375793 .96726776 -.96726776 .25375793 0 0)" word-spacing="0" x="356.25223" y="-269.90149"><tspan font-family="Purisa" font-weight="bold" x="356.25223" y="-269.90149">LISTEN</tspan></text><text font-family="Purisa" font-size="24" font-weight="bold" letter-spacing="0" word-spacing="0" x="678.20477" y="-88.049957"><tspan font-family="Purisa" font-weight="bold" x="678.20477" y="-88.049957">(DOCKER, SWARM, MESOS...)</tspan></text><path d="m27.274119 14.935519c89.683411-15.15876453 161.814611-3.504016 155.563491 98.994951 77.4462 13.45095 68.92895 77.66259 40.40611 115.15738 27.66602 87.90437-59.09936 183.73475-214.152347 129.29954" fill="none" filter="url(#y)" stroke="#0aa8ff" stroke-width="2" transform="matrix(2 0 0 2 -328.64049 -191.89475)"/><path d="m491.69225 299.9475c10.9877-3.24685 21.54108-9.40034 35.83903-.61471" fill="none" filter="url(#m)" marker-end="url(#t)" stroke="#14c814" stroke-width=".6" transform="matrix(2 0 0 2 -328.64049 -191.89475)"/><path d="m499.82144 323.88004a2.8571429 2.0607502 0 1 1 -5.71429 0 2.8571429 2.0607502 0 1 1 5.71429 0z" fill="#14c814" stroke="#14c814" stroke-dashoffset="1.2" stroke-linejoin="round" stroke-width=".6" transform="matrix(1.2583423 0 0 1.7330443 28.428656 -152.14196)"/></g></svg>