<svg height="1280pt" preserveAspectRatio="xMidYMid meet" viewBox="0 0 1280 1280" width="1280pt" xmlns="http://www.w3.org/2000/svg"><g fill="#fff" transform="matrix(.1 0 0 -.1 0 1280)"><path d="m6150 12790c-41-4-145-13-230-20-1630-125-3190-891-4269-2095-935-1043-1512-2392-1621-3790-6-77-15-187-20-245-13-134-13-346 0-480 5-58 14-168 20-245 109-1398 686-2747 1621-3790 1077-1203 2635-1968 4264-2095 77-6 187-15 245-20 134-13 346-13 480 0 58 5 168 14 245 20 1629 127 3187 892 4264 2095 935 1043 1512 2392 1621 3790 6 77 15 187 20 245 6 58 10 166 10 240s-4 182-10 240c-5 58-14 168-20 245-109 1398-686 2747-1621 3790-1077 1203-2635 1968-4264 2095-77 6-187 15-245 20-120 11-379 11-490 0zm549-99c12-8-1-93-77-512-51-276-96-507-101-512-7-7-14-1-21 14-24 54-300 995-296 1006 4 10 60 13 243 13 131 0 244-4 252-9zm-711-27c2-16-181-1054-203-1152-5-22-4-23 62-20l67 3 92 509c51 280 97 513 103 519 7 7 12 6 16-4 6-18 305-1021 305-1026 0-7 200-3 200 5 1 4 49 270 108 592l107 585 35 3c82 8 455-43 755-103 1444-291 2757-1085 3663-2214 1125-1401 1611-3229 1321-4966-219-1308-843-2530-1763-3451-921-920-2143-1544-3451-1763-653-109-1357-109-2010 0-1308 219-2530 843-3451 1763-920 921-1544 2143-1763 3451-109 653-109 1357 0 2010 237 1421 956 2741 2003 3679 983 881 2288 1457 3591 1585 61 6 124 13 140 15 54 6 70 2 73-20z"/><path d="m6145 11349c-968-50-1944-406-2735-998-782-586-1380-1419-1702-2371-267-792-331-1588-192-2405 131-770 459-1532 933-2165 579-773 1407-1372 2337-1690 453-155 898-245 1317-266 76-4 140-11 143-15 2-4-28-23-68-42-160-74-235-215-207-389 13-78 37-125 90-172 65-60 150-93 345-136 98-22 198-50 221-61 50-24 73-61 73-117 0-48-26-84-83-115-37-20-56-22-172-22-143 1-251 24-390 83l-70 30-3-116c-1-64-1-121 2-128 5-12 183-58 286-73 181-26 366-21 481 13 181 55 270 172 272 356 0 102-13 153-53 209-62 86-152 125-402 176-201 41-250 57-278 92-24 31-27 99-4 131 62 89 315 96 559 17 41-14 80-25 85-25 6 0 10 47 10 115 0 134 8 125-129 149-52 9-97 18-100 22-11 11 26 24 71 24 60 0 325 34 476 61 758 134 1509 462 2132 928 1068 800 1772 2038 1935 3401 61 516 27 1120-92 1635-241 1046-806 1989-1593 2664-327 281-632 482-1030 680-637 317-1280 485-1989 521-222 11-240 11-476-1zm765-83c531-64 1004-192 1470-398 952-420 1738-1127 2254-2026 293-512 492-1067 591-1650 52-309 60-413 60-792s-8-483-60-792c-210-1243-879-2353-1865-3100-712-538-1528-862-2460-975-207-25-793-25-1000 0-543 66-1011 192-1480 399-952 420-1738 1127-2254 2026-293 512-492 1067-591 1650-52 309-60 413-60 792s8 483 60 792c210 1243 879 2353 1865 3100 760 575 1668 915 2645 992 127 10 696-3 825-18z"/><path d="m6347 10940c-3-8-42-373-87-810-44-437-103-1013-131-1280s-71-690-97-940c-42-411-49-455-65-455-9 0-641 488-1403 1085s-1389 1087-1395 1088c-5 2-9 0-9-5 0-4 506-631 1125-1392s1125-1387 1125-1392c0-4-4-10-9-13s-305-35-667-71c-363-36-1155-115-1762-175-607-61-1108-110-1115-110s-8-3-1-10c5-5 785-106 1734-225 949-118 1735-218 1748-220 14-4 22-12 20-20s-499-620-1106-1361c-607-740-1102-1350-1100-1355 2-6 638 483 1413 1085 1083 842 1412 1093 1421 1083 6-6 41-262 77-567 62-514 231-1906 327-2689 22-184 42-337 45-339 2-3 7 1 9 9 3 8 35 302 71 654s88 854 115 1115 72 698 100 970c77 754 87 840 94 847 3 4 21-4 39-17 42-31 2746-2148 2771-2169 17-15 18-15 15 1-2 10-494 621-1094 1358-599 737-1091 1345-1093 1350s7 12 20 15 298 32 633 65c1334 132 2723 270 2778 276 33 3 55 10 50 15-7 7-1153 153-3223 410-179 23-329 45-334 50s-5 13 1 21c5 7 518 634 1139 1393 622 759 1134 1386 1139 1394 6 11 4 13-8 8-9-3-654-502-1433-1107-803-624-1421-1097-1426-1092-4 4-22 118-38 253-62 508-214 1757-319 2629-71 586-83 668-94 640z"/><path d="m765 7125c-184-40-330-151-445-339-155-250-182-599-64-802 35-59 125-141 188-170 155-71 379-54 539 39 146 86 290 280 350 472 104 332 25 638-193 754-106 57-248 74-375 46zm262-145c181-78 240-351 142-645-94-282-268-435-494-435-120 0-210 44-264 129-83 130-90 334-20 546 75 225 214 379 384 422 73 18 189 11 252-17z"/><path d="m11770 7107c0-1-58-294-130-651-71-357-127-652-124-657s193-9 423-9c323 0 421 3 428 13 12 15 32 114 25 122-3 3-158 5-344 5-317 0-338 1-338 18 0 28 80 435 90 459l9 23 323 2 323 3 12 55c7 30 11 61 8 68-3 9-76 12-319 12-173 0-317 3-319 8-6 9 66 373 77 390 5 9 93 12 341 12h335l5 23c3 12 9 41 14 65l9 42h-424c-233 0-424-1-424-3z"/></g></svg>