<svg xmlns="http://www.w3.org/2000/svg" width="447" height="80" viewBox="0 0 447 80">
  <path fill="#FFF" d="M72.6606801,60.9998025 C73.7511077,59.1089044 75.2898718,59.0749314 77.1776042,59.0749314 L94.5366141,59.0749314 L100.464618,49.0503145 L67.8351643,49.0503145 L49.3047115,80.9998683 L67.8351643,112.949686 L100.464618,112.949686 L94.5452662,102.940343 L75.9956739,102.940343 L75.9956739,102.931389 C74.6669201,102.929809 73.37461,102.238235 72.6606801,100.999934 L62.3067303,82.9868914 C61.613513,81.8194331 61.5537348,80.3196191 62.2799874,79.059986 L72.6606801,60.9998025 Z M62.1378831,118.812036 L41.5458693,82.9866281 C41.4868776,82.8870794 41.4323431,82.7851605 41.382528,82.6811348 L41.3804305,82.6769211 L41.3487061,82.6084485 L41.3463465,82.6031813 L41.3114758,82.5236477 C41.111953,82.0572438 41.0104874,81.5687179 41.0007866,81.0830889 L41,81.0580701 L41,80.9998683 L41,80.9416666 L41.0007866,80.9166477 C41.0107496,80.4312821 41.111953,79.9424929 41.3112137,79.4766156 L41.3463465,79.3965553 L41.3487061,79.3912882 L41.3804305,79.3230789 L41.382528,79.3186018 C41.4323431,79.2145761 41.4868776,79.1126572 41.5458693,79.0131086 L62.1378831,43.187964 C62.763981,41.8927778 64.0856559,41 65.6149813,41 L107.136703,41 C109.270103,41 111,42.7373614 111,44.8805548 C111,45.7185544 110.735717,46.4946654 110.285808,47.1290907 L101.197688,62.9404749 L110.441546,79.0233795 C111.127684,80.1834639 111.188511,81.6716902 110.471435,82.9252661 L101.197688,99.0595251 L110.285808,114.870646 C110.735717,115.505071 111,116.281182 111,117.119182 C111,119.262375 109.270103,121 107.136703,121 L65.6149813,121 C64.0856559,121 62.763981,120.106959 62.1378831,118.812036 Z M101.997876,82.2128873 L87.0666999,82.2128873 L79.6140898,95.1789703 L94.5452662,95.1789703 L101.997876,82.2128873 Z M77.5268346,93.9809626 L84.9867859,81.0022385 L77.5255237,68.0211442 L70.0653103,81.0001317 L77.5268346,93.9809626 Z M87.0695839,79.787376 L101.997876,79.787376 L94.5366141,66.805755 L79.6077974,66.8054916 L87.0695839,79.787376 Z M147.468366,101 C142.332443,101 138.359606,99.6944575 135.549735,97.0833333 C132.739864,94.4722092 131.241909,90.7592833 131.055825,85.9444444 C131.018608,84.9444394 131,83.3148261 131,81.0555556 C131,78.7592478 131.018608,77.0925978 131.055825,76.0555556 C131.241909,71.3147911 132.749168,67.6203836 135.577647,64.9722222 C138.406127,62.3240608 142.36966,61 147.468366,61 C150.780664,61 153.664925,61.5648092 156.121236,62.6944444 C158.577547,63.8240797 160.484881,65.3703606 161.843295,67.3333333 C163.20171,69.2963061 163.918123,71.4999878 163.992557,73.9444444 L163.992557,74.0555556 C163.992557,74.3518533 163.871604,74.6018508 163.629694,74.8055556 C163.387785,75.0092603 163.117967,75.1111111 162.820232,75.1111111 L157.40521,75.1111111 C156.958608,75.1111111 156.623662,75.0092603 156.400361,74.8055556 C156.17706,74.6018508 155.990978,74.2407433 155.842111,73.7222222 C155.283859,71.4259144 154.316236,69.8055603 152.939213,68.8611111 C151.56219,67.9166619 149.738593,67.4444444 147.468366,67.4444444 C142.146359,67.4444444 139.373745,70.4073778 139.150445,76.3333333 C139.113229,77.3333383 139.09462,78.87036 139.09462,80.9444444 C139.09462,83.0185289 139.113229,84.5925872 139.150445,85.6666667 C139.373745,91.5926222 142.146359,94.5555556 147.468366,94.5555556 C149.701376,94.5555556 151.515669,94.0833381 152.9113,93.1388889 C154.306931,92.1944397 155.283859,90.5740856 155.842111,88.2777778 C155.990978,87.7592567 156.17706,87.3981492 156.400361,87.1944444 C156.623662,86.9907397 156.958608,86.8888889 157.40521,86.8888889 L162.820232,86.8888889 C163.155184,86.8888889 163.44361,87 163.685519,87.2222222 C163.927429,87.4444456 164.029773,87.7222206 163.992557,88.0555556 C163.918123,90.5000122 163.20171,92.7036939 161.843295,94.6666667 C160.484881,96.6296394 158.577547,98.1759203 156.121236,99.3055556 C153.664925,100.435191 150.780664,101 147.468366,101 Z M186.471986,101 C181.354813,101 177.376924,99.722235 174.5382,97.1666667 C171.699476,94.6110983 170.205434,90.81484 170.056027,85.7777778 C170.018676,84.7036983 170,83.12964 170,81.0555556 C170,78.9444339 170.018676,77.3518572 170.056027,76.2777778 C170.205434,71.3518272 171.736828,67.5740872 174.650255,64.9444444 C177.563682,62.3148017 181.50422,61 186.471986,61 C191.402402,61 195.333602,62.3148017 198.265705,64.9444444 C201.197808,67.5740872 202.738539,71.3518272 202.887946,76.2777778 C202.962649,78.4259367 203,80.0185133 203,81.0555556 C203,82.0555606 202.962649,83.6296189 202.887946,85.7777778 C202.738539,90.81484 201.235159,94.6110983 198.377759,97.1666667 C195.520359,99.722235 191.551808,101 186.471986,101 Z M186.222408,94.5 C188.687303,94.5 190.637117,93.7623025 192.071906,92.2868852 C193.506696,90.811468 194.279264,88.5430481 194.389632,85.4815574 C194.463211,83.2684316 194.5,81.774594 194.5,81 C194.5,80.1516351 194.463211,78.6577976 194.389632,76.5184426 C194.279264,73.4938373 193.488302,71.2346386 192.016722,69.7407787 C190.545143,68.2469188 188.613724,67.5 186.222408,67.5 C183.794302,67.5 181.844489,68.2469188 180.37291,69.7407787 C178.90133,71.2346386 178.128763,73.4938373 178.055184,76.5184426 C178.018394,77.5881201 178,79.0819576 178,81 C178,82.8811569 178.018394,84.3749945 178.055184,85.4815574 C178.128763,88.5061627 178.892133,90.7653614 180.345318,92.2592213 C181.798502,93.7530812 183.757513,94.5 186.222408,94.5 Z M212.326087,100.5 C211.957728,100.5 211.644627,100.370001 211.386775,100.11 C211.128924,99.8499987 211,99.5342876 211,99.1628571 L211,62.8928571 C211,62.4842837 211.119715,62.1500013 211.359149,61.89 C211.598582,61.6299987 211.920894,61.5 212.326087,61.5 L216.63587,61.5 C217.335752,61.5 217.869865,61.8157111 218.238225,62.4471429 L234.040761,87.1842857 L234.040761,62.8928571 C234.040761,62.4842837 234.160476,62.1500013 234.399909,61.89 C234.639343,61.6299987 234.961653,61.5 235.366848,61.5 L240.118659,61.5 C240.523855,61.5 240.855373,61.6299987 241.113225,61.89 C241.371076,62.1500013 241.5,62.4842837 241.5,62.8928571 L241.5,99.1071429 C241.5,99.5157163 241.371076,99.8499987 241.113225,100.11 C240.855373,100.370001 240.542272,100.5 240.173913,100.5 L235.808877,100.5 C235.072158,100.5 234.519627,100.184289 234.151268,99.5528571 L218.403986,75.3728571 L218.403986,99.1628571 C218.403986,99.5342876 218.284271,99.8499987 218.044837,100.11 C217.805403,100.370001 217.483094,100.5 217.077899,100.5 L212.326087,100.5 Z M260.898214,100.5 C260.529165,100.5 260.215477,100.370001 259.957143,100.11 C259.698808,99.8499987 259.569643,99.5342876 259.569643,99.1628571 L259.569643,68.4642857 L249.328571,68.4642857 C248.959522,68.4642857 248.645835,68.334287 248.3875,68.0742857 C248.129165,67.8142844 248,67.480002 248,67.0714286 L248,62.8928571 C248,62.4842837 248.119939,62.1500013 248.359821,61.89 C248.599704,61.6299987 248.922619,61.5 249.328571,61.5 L277.616071,61.5 C278.022026,61.5 278.354165,61.6299987 278.6125,61.89 C278.870835,62.1500013 279,62.4842837 279,62.8928571 L279,67.0714286 C279,67.480002 278.870835,67.8142844 278.6125,68.0742857 C278.354165,68.334287 278.022026,68.4642857 277.616071,68.4642857 L267.430357,68.4642857 L267.430357,99.1628571 C267.430357,99.5342876 267.310418,99.8499987 267.070536,100.11 C266.830654,100.370001 266.50774,100.5 266.101786,100.5 L260.898214,100.5 Z M278.666667,100.5 C278.333332,100.5 278.055557,100.388573 277.833333,100.165714 C277.61111,99.942856 277.5,99.6642874 277.5,99.33 L277.611111,98.8285714 L290.944444,62.8928571 C291.314817,61.9642811 291.981477,61.5 292.944444,61.5 L299.055556,61.5 C300.018523,61.5 300.685183,61.9642811 301.055556,62.8928571 L314.388889,98.8285714 L314.5,99.33 C314.5,99.6642874 314.379631,99.942856 314.138889,100.165714 C313.898147,100.388573 313.629631,100.5 313.333333,100.5 L308.388889,100.5 C307.611107,100.5 307.074076,100.147146 306.777778,99.4414286 L304.222222,92.7 L287.777778,92.7 L285.222222,99.4414286 C284.925924,100.147146 284.388893,100.5 283.611111,100.5 L278.666667,100.5 Z M290,86 L302.5,86 L296.25,69 L290,86 Z M322.333333,100.5 C321.962961,100.5 321.648149,100.370001 321.388889,100.11 C321.129628,99.8499987 321,99.5342876 321,99.1628571 L321,62.8371429 C321,62.4285714 321.129628,62.1035726 321.388889,61.8621429 C321.648149,61.6207131 321.962961,61.5 322.333333,61.5 L327.666667,61.5 C328.074076,61.5 328.398147,61.6207131 328.638889,61.8621429 C328.879631,62.1035726 329,62.4285714 329,62.8371429 L329,99.1628571 C329,99.5342876 328.879631,99.8499987 328.638889,100.11 C328.398147,100.370001 328.074076,100.5 327.666667,100.5 L322.333333,100.5 Z M339.826087,100.5 C339.457728,100.5 339.144627,100.370001 338.886775,100.11 C338.628924,99.8499987 338.5,99.5342876 338.5,99.1628571 L338.5,62.8928571 C338.5,62.4842837 338.619715,62.1500013 338.859149,61.89 C339.098582,61.6299987 339.420894,61.5 339.826087,61.5 L344.13587,61.5 C344.835752,61.5 345.369865,61.8157111 345.738225,62.4471429 L361.540761,87.1842857 L361.540761,62.8928571 C361.540761,62.4842837 361.660476,62.1500013 361.899909,61.89 C362.139343,61.6299987 362.461653,61.5 362.866848,61.5 L367.618659,61.5 C368.023855,61.5 368.355373,61.6299987 368.613225,61.89 C368.871076,62.1500013 369,62.4842837 369,62.8928571 L369,99.1071429 C369,99.5157163 368.871076,99.8499987 368.613225,100.11 C368.355373,100.370001 368.042272,100.5 367.673913,100.5 L363.308877,100.5 C362.572158,100.5 362.019627,100.184289 361.651268,99.5528571 L345.903986,75.3728571 L345.903986,99.1628571 C345.903986,99.5342876 345.784271,99.8499987 345.544837,100.11 C345.305403,100.370001 344.983094,100.5 344.577899,100.5 L339.826087,100.5 Z M393.471986,101 C388.354813,101 384.376924,99.722235 381.5382,97.1666667 C378.699476,94.6110983 377.205434,90.81484 377.056027,85.7777778 C377.018676,84.7036983 377,83.12964 377,81.0555556 C377,78.9444339 377.018676,77.3518572 377.056027,76.2777778 C377.205434,71.3518272 378.736828,67.5740872 381.650255,64.9444444 C384.563682,62.3148017 388.50422,61 393.471986,61 C398.402402,61 402.333602,62.3148017 405.265705,64.9444444 C408.197808,67.5740872 409.738539,71.3518272 409.887946,76.2777778 C409.962649,78.4259367 410,80.0185133 410,81.0555556 C410,82.0555606 409.962649,83.6296189 409.887946,85.7777778 C409.738539,90.81484 408.235159,94.6110983 405.377759,97.1666667 C402.520359,99.722235 398.551808,101 393.471986,101 Z M393.722408,94.5 C396.187303,94.5 398.137117,93.7623025 399.571906,92.2868852 C401.006696,90.811468 401.779264,88.5430481 401.889632,85.4815574 C401.963211,83.2684316 402,81.774594 402,81 C402,80.1516351 401.963211,78.6577976 401.889632,76.5184426 C401.779264,73.4938373 400.988302,71.2346386 399.516722,69.7407787 C398.045143,68.2469188 396.113724,67.5 393.722408,67.5 C391.294302,67.5 389.344489,68.2469188 387.87291,69.7407787 C386.40133,71.2346386 385.628763,73.4938373 385.555184,76.5184426 C385.518394,77.5881201 385.5,79.0819576 385.5,81 C385.5,82.8811569 385.518394,84.3749945 385.555184,85.4815574 C385.628763,88.5061627 386.392133,90.7653614 387.845318,92.2592213 C389.298502,93.7530812 391.257513,94.5 393.722408,94.5 Z M433.805263,101 C428.794712,101 424.907909,99.7204353 422.144737,97.1612676 C419.381565,94.6020999 418,90.726317 418,85.5338028 L418,62.8908451 C418,62.4828618 418.119736,62.1490623 418.359211,61.8894366 C418.598685,61.6298109 418.921053,61.5 419.326316,61.5 L424.410526,61.5 C424.815791,61.5 425.147367,61.6298109 425.405263,61.8894366 C425.663159,62.1490623 425.792105,62.4828618 425.792105,62.8908451 L425.792105,85.5338028 C425.792105,88.4638644 426.482888,90.6706499 427.864474,92.1542254 C429.24606,93.6378008 431.207882,94.3795775 433.75,94.3795775 C436.292118,94.3795775 438.25394,93.6378008 439.635526,92.1542254 C441.017112,90.6706499 441.707895,88.4638644 441.707895,85.5338028 L441.707895,62.8908451 C441.707895,62.4828618 441.836841,62.1490623 442.094737,61.8894366 C442.352633,61.6298109 442.684209,61.5 443.089474,61.5 L448.173684,61.5 C448.578949,61.5 448.901315,61.6298109 449.140789,61.8894366 C449.380264,62.1490623 449.5,62.4828618 449.5,62.8908451 L449.5,85.5338028 C449.5,90.726317 448.127645,94.6020999 445.382895,97.1612676 C442.638144,99.7204353 438.778972,101 433.805263,101 Z M472.028021,101 C468.665482,101 465.788687,100.5 463.397548,99.5 C461.00641,98.5 459.194402,97.1851933 457.961471,95.5555556 C456.72854,93.9259178 456.074723,92.1481578 456,90.2222222 C456,89.9259244 456.112083,89.6574086 456.336252,89.4166667 C456.560421,89.1759247 456.840629,89.0555556 457.176883,89.0555556 L462.276708,89.0555556 C462.687684,89.0555556 463.023933,89.1481472 463.285464,89.3333333 C463.546995,89.5185194 463.789841,89.7777761 464.014011,90.1111111 C464.387626,91.3703767 465.237588,92.4259217 466.563923,93.2777778 C467.890258,94.1296339 469.711605,94.5555556 472.028021,94.5555556 C474.643329,94.5555556 476.614121,94.1203747 477.940455,93.25 C479.26679,92.3796253 479.929947,91.1851928 479.929947,89.6666667 C479.929947,88.6666617 479.593699,87.8333367 478.921191,87.1666667 C478.248683,86.5 477.230596,85.9166692 475.8669,85.4166667 C474.503204,84.9166642 472.476371,84.3148183 469.78634,83.6111111 C465.377678,82.5740689 462.145953,81.2037122 460.091068,79.5 C458.036184,77.7962878 457.008757,75.3518678 457.008757,72.1666667 C457.008757,70.0185078 457.606532,68.1018603 458.802102,66.4166667 C459.997671,64.7314731 461.706936,63.4074122 463.929947,62.4444444 C466.152959,61.4814767 468.740207,61 471.691769,61 C474.792777,61 477.473427,61.5370317 479.7338,62.6111111 C481.994174,63.6851906 483.712779,65.0277697 484.889667,66.6388889 C486.066556,68.2500081 486.692352,69.8518439 486.767075,71.4444444 C486.767075,71.7407422 486.654992,72.0092581 486.430823,72.25 C486.206654,72.4907419 485.926447,72.6111111 485.590193,72.6111111 L480.2662,72.6111111 C479.444246,72.6111111 478.88383,72.2777811 478.584939,71.6111111 C478.398131,70.42592 477.669592,69.4351892 476.399299,68.6388889 C475.129007,67.8425886 473.559846,67.4444444 471.691769,67.4444444 C469.636884,67.4444444 468.021022,67.8333294 466.844133,68.6111111 C465.667245,69.3888928 465.078809,70.5185111 465.078809,72 C465.078809,73 465.377697,73.83333 465.975482,74.5 C466.573266,75.16667 467.507291,75.7499975 468.777583,76.25 C470.047876,76.7500025 471.897244,77.3148117 474.325744,77.9444444 C477.650921,78.6851889 480.294211,79.5185139 482.255692,80.4444444 C484.217173,81.370375 485.664911,82.53703 486.598949,83.9444444 C487.532988,85.3518589 488,87.1481372 488,89.3333333 C488,91.7407528 487.336843,93.8240653 486.010508,95.5833333 C484.684173,97.3426014 482.816124,98.6851806 480.406305,99.6111111 C477.996485,100.537042 475.203752,101 472.028021,101 Z" transform="translate(-41 -41)"/>
</svg>
