<?xml version="1.0" encoding="UTF-8" standalone="no"?><!DOCTYPE svg PUBLIC "-//W3C//DTD SVG 1.1//EN" "http://www.w3.org/Graphics/SVG/1.1/DTD/svg11.dtd"><svg width="100%" height="100%" viewBox="0 0 145 35" version="1.1" xmlns="http://www.w3.org/2000/svg" xmlns:xlink="http://www.w3.org/1999/xlink" xml:space="preserve" xmlns:serif="http://www.serif.com/" style="fill-rule:evenodd;clip-rule:evenodd;"><g id="containous_logo_top"><path id="Fill-1" d="M46.593,23.024c1.111,0 2.097,-0.273 2.958,-0.821c0.25,-0.163 0.376,-0.343 0.376,-0.54c0,-0.122 -0.045,-0.223 -0.137,-0.309c-0.091,-0.083 -0.204,-0.125 -0.335,-0.125c-0.089,0 -0.183,0.029 -0.282,0.083c-0.419,0.244 -0.808,0.426 -1.168,0.548c-0.36,0.123 -0.781,0.182 -1.262,0.182c-0.567,0 -1.077,-0.086 -1.53,-0.257c-0.454,-0.174 -0.827,-0.402 -1.123,-0.688c-0.292,-0.288 -0.537,-0.629 -0.73,-1.023c-0.193,-0.398 -0.333,-0.806 -0.413,-1.226c-0.081,-0.421 -0.121,-0.865 -0.121,-1.332c0,-0.46 0.04,-0.904 0.126,-1.327c0.083,-0.424 0.223,-0.834 0.419,-1.231c0.199,-0.4 0.44,-0.746 0.733,-1.037c0.29,-0.291 0.658,-0.524 1.103,-0.698c0.446,-0.177 0.948,-0.265 1.504,-0.265c0.177,0 0.349,0.008 0.51,0.021c0.164,0.013 0.303,0.026 0.421,0.041c0.118,0.016 0.242,0.039 0.365,0.068c0.127,0.031 0.223,0.054 0.293,0.072c0.067,0.019 0.151,0.05 0.253,0.091c0.099,0.044 0.161,0.073 0.187,0.089c0.027,0.015 0.081,0.044 0.164,0.083l0.126,0.07c0.094,0.044 0.183,0.067 0.261,0.067c0.131,0 0.236,-0.046 0.319,-0.14c0.081,-0.093 0.121,-0.203 0.121,-0.324c0,-0.172 -0.075,-0.302 -0.228,-0.387c-0.808,-0.489 -1.745,-0.733 -2.816,-0.733c-0.843,0 -1.603,0.156 -2.28,0.465c-0.676,0.309 -1.224,0.727 -1.646,1.249c-0.418,0.522 -0.738,1.109 -0.958,1.764c-0.22,0.654 -0.33,1.345 -0.33,2.069c0,0.6 0.064,1.169 0.196,1.709c0.131,0.54 0.336,1.042 0.615,1.506c0.276,0.465 0.615,0.865 1.009,1.203c0.398,0.337 0.875,0.603 1.439,0.795c0.564,0.192 1.184,0.288 1.861,0.288Zm10.776,-0.982c-1.189,0 -2.134,-0.402 -2.827,-1.208c-0.695,-0.807 -1.041,-1.919 -1.041,-3.334c0,-1.413 0.346,-2.524 1.041,-3.332c0.693,-0.805 1.638,-1.21 2.827,-1.21c1.195,0 2.14,0.402 2.833,1.208c0.69,0.802 1.036,1.916 1.036,3.334c0,1.415 -0.346,2.527 -1.036,3.334c-0.693,0.806 -1.638,1.208 -2.833,1.208Zm0,0.982c1.595,0 2.862,-0.496 3.802,-1.486c0.942,-0.992 1.412,-2.337 1.412,-4.038c0,-1.698 -0.47,-3.044 -1.412,-4.036c-0.94,-0.992 -2.207,-1.488 -3.802,-1.488c-1.594,0 -2.862,0.496 -3.804,1.488c-0.94,0.992 -1.409,2.338 -1.409,4.036c0,1.701 0.469,3.046 1.409,4.038c0.942,0.99 2.21,1.486 3.804,1.486Zm8.283,-0.166c0.164,0 0.3,-0.05 0.413,-0.148c0.113,-0.099 0.169,-0.234 0.169,-0.408l0,-8.477l6.073,8.63c0.183,0.268 0.446,0.403 0.787,0.403c0.244,0 0.448,-0.076 0.609,-0.224c0.159,-0.15 0.239,-0.358 0.239,-0.62l0,-9.428c0,-0.176 -0.059,-0.316 -0.174,-0.415c-0.113,-0.099 -0.252,-0.148 -0.416,-0.148c-0.167,0 -0.307,0.049 -0.419,0.148c-0.113,0.099 -0.169,0.239 -0.169,0.415l0,8.605l-5.996,-8.553c-0.142,-0.202 -0.297,-0.355 -0.466,-0.459c-0.172,-0.104 -0.334,-0.156 -0.484,-0.156c-0.225,0 -0.408,0.075 -0.548,0.226c-0.139,0.148 -0.209,0.356 -0.209,0.618l0,9.435c0,0.177 0.057,0.314 0.169,0.41c0.113,0.096 0.255,0.146 0.422,0.146Zm14.259,0c0.174,0 0.322,-0.052 0.448,-0.156c0.126,-0.104 0.191,-0.247 0.191,-0.431l0,-9.274l3.09,0c0.171,0 0.308,-0.047 0.405,-0.14c0.097,-0.094 0.145,-0.208 0.145,-0.338c0,-0.143 -0.048,-0.262 -0.142,-0.356c-0.094,-0.093 -0.231,-0.14 -0.408,-0.14l-7.528,0c-0.167,0 -0.301,0.047 -0.398,0.14c-0.096,0.094 -0.145,0.213 -0.145,0.356c0,0.13 0.049,0.244 0.145,0.338c0.097,0.093 0.231,0.14 0.398,0.14l3.162,0l0,9.274c0,0.184 0.062,0.327 0.188,0.431c0.126,0.104 0.277,0.156 0.449,0.156Zm12.443,-3.821l-4.862,0l2.433,-5.91l2.429,5.91Zm1.407,3.439c0.11,0.28 0.312,0.421 0.599,0.421c0.164,0 0.306,-0.055 0.429,-0.161c0.124,-0.107 0.186,-0.239 0.186,-0.395c0,-0.081 -0.019,-0.166 -0.057,-0.252l-3.823,-9.076c-0.161,-0.395 -0.33,-0.66 -0.507,-0.795c-0.175,-0.135 -0.398,-0.203 -0.663,-0.203c-0.274,0 -0.497,0.068 -0.669,0.198c-0.174,0.132 -0.341,0.399 -0.504,0.8l-3.824,9.076c-0.035,0.086 -0.053,0.171 -0.053,0.252c0,0.156 0.061,0.288 0.185,0.395c0.123,0.106 0.266,0.161 0.427,0.161c0.29,0 0.489,-0.141 0.598,-0.421l1.039,-2.54l5.601,0l1.036,2.54Zm3.995,0.382c0.18,0 0.333,-0.05 0.457,-0.148c0.126,-0.099 0.19,-0.242 0.19,-0.432l0,-9.66c0,-0.19 -0.062,-0.333 -0.185,-0.434c-0.124,-0.101 -0.271,-0.153 -0.446,-0.153c-0.171,0 -0.322,0.052 -0.451,0.155c-0.129,0.105 -0.193,0.247 -0.193,0.432l0,9.66c0,0.185 0.062,0.325 0.185,0.426c0.124,0.102 0.271,0.154 0.443,0.154Zm4.304,0c0.164,0 0.3,-0.05 0.413,-0.148c0.113,-0.099 0.169,-0.234 0.169,-0.408l0,-8.477l6.073,8.63c0.183,0.268 0.446,0.403 0.787,0.403c0.244,0 0.448,-0.076 0.609,-0.224c0.159,-0.15 0.239,-0.358 0.239,-0.62l0,-9.428c0,-0.176 -0.059,-0.316 -0.174,-0.415c-0.113,-0.099 -0.252,-0.148 -0.416,-0.148c-0.167,0 -0.306,0.049 -0.419,0.148c-0.113,0.099 -0.169,0.239 -0.169,0.415l0,8.605l-5.995,-8.553c-0.143,-0.202 -0.298,-0.355 -0.467,-0.459c-0.172,-0.104 -0.333,-0.156 -0.484,-0.156c-0.225,0 -0.408,0.075 -0.547,0.226c-0.14,0.148 -0.21,0.356 -0.21,0.618l0,9.435c0,0.177 0.057,0.314 0.169,0.41c0.113,0.096 0.255,0.146 0.422,0.146Zm15.982,-0.816c-1.189,0 -2.134,-0.402 -2.827,-1.208c-0.695,-0.807 -1.041,-1.919 -1.041,-3.334c0,-1.413 0.346,-2.524 1.041,-3.332c0.693,-0.805 1.638,-1.21 2.827,-1.21c1.195,0 2.14,0.402 2.833,1.208c0.69,0.802 1.036,1.916 1.036,3.334c0,1.415 -0.346,2.527 -1.036,3.334c-0.693,0.806 -1.638,1.208 -2.833,1.208Zm0,0.982c1.595,0 2.862,-0.496 3.802,-1.486c0.942,-0.992 1.412,-2.337 1.412,-4.038c0,-1.698 -0.47,-3.044 -1.412,-4.036c-0.94,-0.992 -2.207,-1.488 -3.802,-1.488c-1.594,0 -2.862,0.496 -3.804,1.488c-0.94,0.992 -1.41,2.338 -1.41,4.036c0,1.701 0.47,3.046 1.41,4.038c0.942,0.99 2.21,1.486 3.804,1.486Zm12.122,0c0.566,0 1.103,-0.081 1.616,-0.242c0.51,-0.163 0.972,-0.402 1.38,-0.716c0.408,-0.314 0.733,-0.728 0.975,-1.239c0.241,-0.514 0.362,-1.091 0.362,-1.735l0,-6.466c0,-0.19 -0.062,-0.333 -0.185,-0.434c-0.124,-0.104 -0.271,-0.153 -0.443,-0.153c-0.18,0 -0.33,0.051 -0.456,0.156c-0.127,0.103 -0.191,0.246 -0.191,0.431l0,6.435c0,0.389 -0.057,0.75 -0.172,1.08c-0.115,0.33 -0.271,0.611 -0.464,0.842c-0.194,0.231 -0.422,0.426 -0.685,0.589c-0.26,0.161 -0.54,0.281 -0.832,0.359c-0.296,0.075 -0.596,0.111 -0.905,0.111c-0.389,0 -0.762,-0.059 -1.122,-0.184c-0.36,-0.125 -0.685,-0.307 -0.975,-0.546c-0.29,-0.238 -0.523,-0.553 -0.695,-0.942c-0.175,-0.39 -0.26,-0.826 -0.26,-1.309l0,-6.435c0,-0.19 -0.062,-0.333 -0.186,-0.434c-0.123,-0.104 -0.271,-0.153 -0.443,-0.153c-0.18,0 -0.33,0.051 -0.456,0.156c-0.127,0.103 -0.191,0.246 -0.191,0.431l0,6.466c0,0.644 0.121,1.221 0.363,1.735c0.241,0.511 0.566,0.925 0.974,1.239c0.411,0.314 0.87,0.553 1.377,0.716c0.51,0.161 1.048,0.242 1.614,0.242Zm10.761,0c1.264,0 2.257,-0.262 2.985,-0.79c0.725,-0.527 1.09,-1.285 1.09,-2.274c0,-0.403 -0.064,-0.754 -0.193,-1.057c-0.129,-0.307 -0.322,-0.567 -0.578,-0.785c-0.257,-0.218 -0.534,-0.4 -0.832,-0.545c-0.295,-0.143 -0.658,-0.286 -1.087,-0.421l-2.062,-0.654c-0.644,-0.203 -1.114,-0.434 -1.407,-0.694c-0.295,-0.257 -0.44,-0.61 -0.44,-1.057c0,-0.537 0.241,-0.971 0.73,-1.298c0.489,-0.328 1.147,-0.491 1.973,-0.491c0.583,0 1.12,0.098 1.614,0.291c0.494,0.192 0.883,0.392 1.173,0.6c0.094,0.072 0.196,0.106 0.306,0.106c0.132,0 0.25,-0.047 0.355,-0.143c0.104,-0.098 0.155,-0.207 0.155,-0.327c0,-0.117 -0.051,-0.223 -0.155,-0.319c-0.331,-0.307 -0.825,-0.58 -1.48,-0.824c-0.655,-0.244 -1.345,-0.366 -2.07,-0.366c-0.711,0 -1.358,0.112 -1.938,0.335c-0.58,0.224 -1.039,0.551 -1.38,0.979c-0.341,0.429 -0.51,0.925 -0.51,1.488c0,0.709 0.209,1.268 0.628,1.673c0.419,0.405 1.034,0.737 1.842,0.997l2.043,0.67c0.389,0.122 0.698,0.234 0.929,0.338c0.231,0.104 0.44,0.234 0.628,0.389c0.191,0.154 0.322,0.335 0.403,0.548c0.078,0.211 0.118,0.468 0.118,0.772c0,0.597 -0.258,1.062 -0.771,1.389c-0.515,0.327 -1.17,0.488 -1.967,0.488c-0.623,0 -1.198,-0.101 -1.719,-0.304c-0.521,-0.202 -0.958,-0.449 -1.31,-0.737c-0.056,-0.044 -0.121,-0.068 -0.188,-0.068c-0.142,0 -0.284,0.063 -0.424,0.187c-0.142,0.122 -0.212,0.25 -0.212,0.377c0,0.07 0.024,0.13 0.078,0.182c0.953,0.898 2.177,1.345 3.673,1.345Z" style="fill:#fff;"/><path d="M16.056,8.212c0.067,-0.005 0.134,-0.007 0.202,-0.007l5.558,0l0.534,-0.915l-8.713,0l-5.972,10.21l5.972,10.21l8.713,0l-0.531,-0.909l-7.395,0l0,-0.374c-0.418,-0.238 -0.776,-0.584 -1.03,-1.018l-3.784,-6.47c-0.524,-0.866 -0.542,-1.956 -0.02,-2.844l3.804,-6.504l0.001,-0.002c0.554,-0.944 1.597,-1.465 2.661,-1.377Zm-6.54,23.575l-7.513,-12.846c-0.044,-0.073 -0.085,-0.148 -0.088,-0.158l-0.041,-0.081l-0.03,-0.065l0.006,0.015l-0.012,-0.028l-0.004,-0.018l-0.004,0.001c-0.145,-0.333 -0.222,-0.689 -0.229,-1.055l-0.001,-0.022l0,-0.039l0,-0.034l0.001,-0.016c0.007,-0.359 0.084,-0.715 0.229,-1.048l0.003,0.001l0.004,-0.015l0.022,-0.049l0.002,-0.004l0.053,-0.107l-0.033,0.064c0.037,-0.076 0.077,-0.15 0.111,-0.205l7.525,-12.865c0.478,-0.924 1.439,-1.517 2.503,-1.517l15.216,0c1.551,0 2.816,1.248 2.816,2.797c0,0.565 -0.17,1.107 -0.482,1.565l-2.888,4.939l2.965,5.069c0.519,0.863 0.537,1.945 0.019,2.834l-2.984,5.104l2.888,4.938c0.312,0.458 0.482,1 0.482,1.565c0,1.549 -1.265,2.797 -2.816,2.797l-15.216,0c-1.064,0 -2.025,-0.593 -2.504,-1.517Zm12.303,-10.581l-0.406,0.693l1.209,-0.693l-0.803,0Zm-2.228,0l-2.441,0l1.209,2.107l1.232,-2.107Zm1.093,-1.869l0.406,-0.693l-1.209,0.693l0.803,0Zm2.228,0l2.441,0l-1.209,-2.107l-1.232,2.107Zm-7.639,-1.837l-0.413,-0.707l0,1.414l0.413,-0.707Zm1.112,-1.901l1.208,-2.066l-2.417,0l1.209,2.066Zm1.112,1.902l0.414,0.707l0,-1.414l-0.414,0.707Zm-1.112,1.901l-1.208,2.066l2.417,0l-1.209,-2.066Zm3.204,-5.613l-1.232,-2.107l-1.209,2.107l2.441,0Zm2.227,0l0.803,0l-1.209,-0.694l0.406,0.694Zm1.096,1.874l1.232,2.107l1.209,-2.107l-2.441,0Zm-2.227,0l-0.803,0l1.209,0.694l-0.406,-0.694Z" style="fill:none;stroke:#fff;stroke-width:2.8px;"/><path id="path-2" d="M14.602,10.298c0.302,-0.514 0.886,-0.767 1.446,-0.678c0.069,-0.01 0.139,-0.015 0.209,-0.015l6.362,0l2.172,-3.715l-11.957,0l-6.791,11.61l6.791,11.61l11.957,0l-2.169,-3.709l-6.798,0l0,-0.003c-0.487,-0.001 -0.96,-0.25 -1.222,-0.696l-3.794,-6.487c-0.254,-0.42 -0.276,-0.96 -0.01,-1.414l3.804,-6.503Zm-3.856,20.819l-7.546,-12.902c-0.021,-0.035 -0.041,-0.072 -0.06,-0.11l-0.001,-0.001l-0.011,-0.025l-0.001,-0.002l-0.013,-0.028l0,0c-0.073,-0.168 -0.11,-0.344 -0.114,-0.519l0,-0.009l0,-0.021l0,-0.021l0,-0.009c0.004,-0.175 0.041,-0.351 0.114,-0.519l0,0l0.013,-0.028l0.001,-0.002l0.011,-0.025l0.001,-0.001c0.019,-0.038 0.039,-0.075 0.06,-0.11l7.546,-12.901c0.23,-0.467 0.714,-0.788 1.274,-0.788l15.216,0c0.782,0 1.416,0.625 1.416,1.397c0,0.302 -0.097,0.581 -0.262,0.81l-3.33,5.694l3.387,5.791c0.252,0.418 0.274,0.954 0.011,1.405l-3.398,5.811l3.33,5.693c0.165,0.229 0.262,0.508 0.262,0.81c0,0.772 -0.634,1.397 -1.416,1.397l-15.216,0c-0.56,0 -1.044,-0.321 -1.274,-0.787Zm14.607,-13.18l-5.472,0l-2.731,4.669l5.472,0l2.731,-4.669Zm-8.968,4.238l2.734,-4.674l-2.734,-4.675l-2.734,4.674l2.734,4.675Zm3.497,-5.112l5.471,0l-2.734,-4.674l-5.471,0l2.734,4.674Z" style="fill:url(#_Linear1);"/></g><defs><linearGradient id="_Linear1" x1="0" y1="0" x2="1" y2="0" gradientUnits="userSpaceOnUse" gradientTransform="matrix(25.6516,0,0,25.6516,3.00014,17.5)"><stop offset="0" style="stop-color:#03008b;stop-opacity:1"/><stop offset="1" style="stop-color:#8a008b;stop-opacity:1"/></linearGradient></defs></svg>